<?xml version="1.0" encoding="UTF-8"?>
<svg version="1.1" xmlns="http://www.w3.org/2000/svg" width="744" height="744">
<path d="M0 0 C245.52 0 491.04 0 744 0 C744 245.52 744 491.04 744 744 C498.48 744 252.96 744 0 744 C0 498.48 0 252.96 0 0 Z " fill="#FEFEFE" transform="translate(0,0)"/>
<path d="M0 0 C2.0463888 1.62076717 4.02311588 3.29351037 6 5 C9.28198946 3.53130972 12.1319931 1.5714926 15.07592773 -0.47851562 C22.07049518 -5.32794038 28.89585987 -9.23420553 37 -12 C37.66902344 -12.24363281 38.33804688 -12.48726562 39.02734375 -12.73828125 C47.8931126 -15.49360476 58.3424723 -15.2606041 66.75390625 -11.32421875 C77.9089155 -4.7476133 82.73751269 4.79829745 86 17 C87.24081672 22.74911746 87.08691981 28.64390158 87.125 34.5 C87.12983398 35.20020264 87.13466797 35.90040527 87.13964844 36.62182617 C87.12273331 41.81054185 86.63859157 46.85072197 86 52 C87.07636719 52.46148437 88.15273438 52.92296875 89.26171875 53.3984375 C104.64772671 60.19007652 119.89555167 69.3191845 127.30859375 85.17578125 C130.27174328 92.99380853 130.29869576 102.56230263 127.375 110.375 C120.48350077 125.04336468 106.89290858 135.21715687 92.10546875 141.1640625 C90.09157937 141.84275908 88.04865544 142.43485367 86 143 C86.23976563 144.90845703 86.23976563 144.90845703 86.484375 146.85546875 C88.55714894 165.65376436 87.16513509 182.64650922 77 199 C71.58819511 205.35807332 65.19195125 208.62055769 57 210 C39.52680004 211.30172836 24.7776346 204.29454929 11.3046875 193.50390625 C8.90034813 191.63567716 8.90034813 191.63567716 5 192 C2.59366634 193.51711917 2.59366634 193.51711917 0.125 195.5625 C-13.34750195 205.69382147 -28.00740097 211.73675809 -45 210 C-52.81787192 208.18841037 -59.66888271 204.1282461 -64.08789062 197.32519531 C-73.73084449 181.07065399 -75.07500843 162.45005055 -72 144 C-73.63195312 143.29037109 -73.63195312 143.29037109 -75.296875 142.56640625 C-91.12065135 135.51796158 -107.3827597 126.00459956 -114.17578125 109.10546875 C-117.09004913 98.12517032 -115.68023763 88.91876413 -110.1015625 79.1171875 C-101.14204812 65.82779628 -87.03558049 58.86829116 -73 52 C-73.01571045 51.18958252 -73.0314209 50.37916504 -73.04760742 49.54418945 C-73.09943913 46.47080965 -73.13668541 43.39765611 -73.16479492 40.32397461 C-73.18689361 38.36622098 -73.2250566 36.40866938 -73.26367188 34.45117188 C-73.37943272 19.28650054 -70.52792357 5.15539136 -59.9609375 -6.2421875 C-42.16699461 -22.19293312 -16.91373606 -12.09990387 0 0 Z " fill="#040404" transform="translate(365,162)"/>
<path d="M0 0 C245.52 0 491.04 0 744 0 C744 245.52 744 491.04 744 744 C498.48 744 252.96 744 0 744 C0 498.48 0 252.96 0 0 Z M9.80056715 9.8018924 C7.03422603 14.71537567 7.3163767 19.24814495 7.37638092 24.79892731 C7.36971291 26.01376248 7.3630449 27.22859765 7.35617483 28.48024601 C7.34269313 31.86457682 7.35171521 35.2475154 7.37006495 38.63173568 C7.38451881 42.30866433 7.37003061 45.98549551 7.35917997 49.66242075 C7.3441767 56.11065686 7.34782999 62.55867528 7.36359787 69.00690651 C7.38698045 78.59544912 7.38182814 88.18382714 7.37088897 97.77238439 C7.3522807 114.89535587 7.3620329 132.0182235 7.38336661 149.14118652 C7.40190447 164.12552966 7.41034689 179.10983788 7.40879822 194.0941925 C7.40870654 195.08713382 7.40861487 196.08007514 7.40852041 197.10310559 C7.40812727 201.13351405 7.40767765 205.16392249 7.40714902 209.19433093 C7.40227504 247.02278317 7.42495935 284.85117344 7.46110525 322.67960642 C7.49309987 356.30708768 7.50514905 389.93451599 7.49902344 423.56201172 C7.49863659 425.72113818 7.49825014 427.88026464 7.49786407 430.0393911 C7.49767272 431.10680882 7.49748138 432.17422655 7.49728423 433.27399026 C7.49632993 438.6469368 7.49541556 444.01988334 7.49454498 449.3928299 C7.49437119 450.45276959 7.4941974 451.51270929 7.49401833 452.60476837 C7.48966566 480.68194229 7.49967212 508.75911048 7.51438284 536.83628035 C7.51490298 537.83474409 7.51542312 538.83320783 7.51595903 539.86192806 C7.51647837 540.85859533 7.51699771 541.8552626 7.5175328 542.8821319 C7.51805054 543.87700353 7.51856828 544.87187516 7.51910171 545.89689441 C7.5201498 547.90052128 7.52121001 549.90414814 7.52228243 551.907775 C7.52967085 565.89145662 7.53174981 579.87513015 7.53028842 593.85881348 C7.52844479 611.87716422 7.53647301 629.89546502 7.56192988 647.91379941 C7.57511985 657.44869893 7.58009129 666.98351871 7.57329134 676.51842542 C7.56959099 682.88034094 7.57674167 689.24218342 7.59288373 695.60407941 C7.60179303 699.23356274 7.6059069 702.86288152 7.59695655 706.49236852 C7.58745448 710.39536815 7.60095618 714.29808935 7.61688995 718.20107269 C7.61043815 719.33682407 7.60398635 720.47257544 7.59733903 721.64274353 C7.60536204 722.680459 7.61338505 723.71817448 7.62165117 724.78733587 C7.62230193 725.68014213 7.62295269 726.57294839 7.62362316 727.49280939 C8.08697771 730.57939193 9.19314279 732.47625141 11 735 C13.46720783 736.23360391 15.0797692 736.12605837 17.84006864 736.1276505 C18.87104223 736.13066647 19.90201583 736.13368244 20.96423104 736.1367898 C22.67967967 736.13413559 22.67967967 736.13413559 24.42978382 736.13142776 C25.64115746 736.1334804 26.8525311 736.13553303 28.10061303 736.13764787 C31.4887388 736.14235582 34.87681191 736.14253775 38.2649371 736.14087028 C41.94125807 736.14014185 45.61757179 736.14515581 49.2938897 736.1494453 C56.5969285 736.15704219 63.89995999 736.15921921 71.20300233 736.15977435 C79.94571879 736.16068632 88.68842845 736.16734887 97.431142 736.17412117 C118.56450522 736.19020037 139.69786774 736.19608649 160.83123598 736.20086992 C170.82315111 736.2032038 180.81506566 736.20680621 190.80698033 736.2105653 C224.99157819 736.22340208 259.17617573 736.2341215 293.36077595 736.2375679 C295.50769435 736.23778954 297.65461275 736.23801132 299.80153115 736.23823325 C301.95371722 736.2384539 304.10590329 736.23867438 306.25808936 736.2388947 C310.57594955 736.23933726 314.89380974 736.23978437 319.21166992 736.24023438 C320.28225257 736.24034377 321.35283521 736.24045316 322.45585975 736.24056586 C357.18335173 736.24419792 391.91082286 736.26012295 426.63830686 736.28342474 C463.3302955 736.30799981 500.02227222 736.32173965 536.71426934 736.32293582 C540.73917687 736.32310728 544.7640844 736.32332271 548.78899193 736.32357025 C550.2756251 736.3236539 550.2756251 736.3236539 551.79229126 736.32373925 C567.76759625 736.32489168 583.7428799 736.33592997 599.71817767 736.35045731 C615.76387933 736.36479679 631.80955351 736.36807375 647.85525981 736.36001733 C657.39681847 736.35554909 666.9382887 736.35946918 676.4798358 736.37525584 C682.84628049 736.38496723 689.21266287 736.38386456 695.57910691 736.37381961 C699.2112434 736.36839967 702.84320945 736.36780636 706.47533218 736.38032833 C710.38120136 736.3936823 714.28681478 736.38402046 718.19269276 736.3719368 C719.32930167 736.37953199 720.46591059 736.38712718 721.63696221 736.39495254 C722.67544635 736.38795443 723.7139305 736.38095633 724.78388387 736.37374616 C725.67736135 736.37399036 726.57083883 736.37423456 727.49139138 736.37448616 C730.57992042 735.91342923 732.47526606 734.80806178 735 733 C736.23412317 730.53175367 736.12697974 728.91508309 736.12995183 726.15351933 C736.13348025 725.12111232 736.13700867 724.08870531 736.14064401 723.02501324 C736.13944624 721.87977648 736.13824846 720.73453971 736.13701439 719.55459881 C736.14099213 717.73500579 736.14099213 717.73500579 736.14505023 715.87865332 C736.15142764 712.48579414 736.15327949 709.09298542 736.153273 705.7001237 C736.1543394 702.01866802 736.16112621 698.33722227 736.1671797 694.65577203 C736.17827259 687.34253271 736.18390822 680.0292982 736.18788858 672.71605195 C736.19289087 663.96112262 736.20361725 655.20620264 736.21437032 646.45127882 C736.24002016 625.28840081 736.25503895 604.12551915 736.26788078 582.96263005 C736.27213339 575.95562972 736.27669906 568.94862965 736.2814641 561.94162965 C736.3067205 524.71044634 736.32877566 487.47926261 736.34119225 450.24807262 C736.34411373 441.61907639 736.34708122 432.99008018 736.35009766 424.36108398 C736.35046857 423.2890065 736.35083947 422.21692901 736.35122162 421.11236433 C736.36338292 386.33635539 736.39433586 351.56039699 736.43601918 316.78441179 C736.47876953 281.05323134 736.50542846 245.32207758 736.51066696 209.59087085 C736.51140746 204.54831056 736.51231815 199.50575032 736.51332474 194.46319008 C736.51351535 193.47071815 736.51370597 192.47824622 736.51390236 191.45569938 C736.51742132 175.45805913 736.53774392 159.46048202 736.56412137 143.46286498 C736.59021642 127.39474843 736.59801448 111.32670511 736.58702008 95.2585704 C736.58102662 85.70361934 736.589042 76.14891602 736.61685092 66.59400228 C736.63403845 60.21863721 736.63320879 53.84344203 736.61748323 47.46807354 C736.60903129 43.83075076 736.60862911 40.19390241 736.63009469 36.55662265 C736.65299391 32.64516604 736.63753112 28.73441259 736.61803246 24.82292461 C736.63088168 23.68471135 736.6437309 22.54649809 736.65696949 21.37379351 C736.60645902 16.80334799 736.46405708 13.82478926 734.19978201 9.80039257 C729.28180096 7.0332364 724.74073244 7.31361858 719.18545532 7.3707943 C717.36067001 7.35989349 717.36067001 7.35989349 715.49902034 7.34877247 C712.10996408 7.33362638 708.72228667 7.34097776 705.33332512 7.35766223 C701.65125488 7.37031588 697.96929562 7.35405815 694.28724098 7.34144557 C687.8300003 7.32335845 681.37296848 7.32395231 674.91571808 7.33668137 C665.31376481 7.35555827 655.71198843 7.34594371 646.11003643 7.33063983 C628.96314613 7.30427897 611.81634883 7.30660583 594.66944963 7.32103439 C579.66416493 7.33359927 564.65891437 7.33690172 549.65362549 7.33092117 C548.65929782 7.33053925 547.66497016 7.33015732 546.64051135 7.32976382 C542.60447594 7.3282072 538.56844055 7.3266152 534.53240518 7.324965 C496.65111984 7.30966102 458.76989384 7.32355153 420.88861766 7.35044949 C387.21412478 7.37417852 353.53972643 7.37205542 319.86523438 7.34814453 C282.05439236 7.3213865 244.24360278 7.31074626 206.43275261 7.32620585 C202.40395992 7.3278095 198.37516722 7.3293737 194.34637451 7.33092117 C193.35434208 7.33131656 192.36230966 7.33171195 191.34021564 7.33211931 C176.34229493 7.33781294 161.34441206 7.33114367 146.34649658 7.31852341 C129.29763424 7.30424909 112.24887967 7.30775415 95.2000308 7.33492713 C85.65174505 7.34964237 76.10369251 7.35051859 66.55541266 7.33169625 C60.18457023 7.32051979 53.81391555 7.32739738 47.44310104 7.3492201 C43.80843657 7.36116149 40.17423682 7.36508423 36.53958631 7.34719019 C32.63098861 7.32814287 28.72313199 7.34744538 24.81454468 7.3707943 C23.67718896 7.35908847 22.53983324 7.34738263 21.36801219 7.33532208 C16.79955038 7.39035379 13.82227851 7.53689998 9.80056715 9.8018924 Z " fill="#000000" transform="translate(0,0)"/>
<path d="M0 0 C0.9553212 -0.0004985 1.9106424 -0.00099701 2.89491272 -0.00151062 C4.91132694 0.0008254 6.92774433 0.01052601 8.9440918 0.02709961 C12.02093765 0.05067232 15.09691498 0.0476591 18.17382812 0.04101562 C20.13672389 0.0465936 22.09961602 0.05370423 24.0625 0.0625 C24.9782933 0.06158859 25.89408661 0.06067719 26.83763123 0.05973816 C31.61045554 0.11237439 35.68019631 0.3350694 40.09765625 2.36328125 C41.9435415 4.5307078 43.3713605 6.46855832 44.84765625 8.86328125 C45.26813232 9.52038086 45.6886084 10.17748047 46.12182617 10.85449219 C50.73642837 18.17414696 54.97993322 25.7112512 59.02734375 33.35693359 C59.97295974 35.12953219 60.95455979 36.88283266 61.94140625 38.6328125 C62.42609375 39.55449219 62.91078125 40.47617188 63.41015625 41.42578125 C63.81878906 42.17988281 64.22742188 42.93398437 64.6484375 43.7109375 C65.79292657 50.46839906 61.17703753 57.63711982 58.03515625 63.42578125 C57.64884033 64.14604492 57.26252441 64.86630859 56.86450195 65.60839844 C42.29016546 92.4062779 42.29016546 92.4062779 37.01757812 93.98681641 C33.11902115 94.48945644 29.28630509 94.50600308 25.359375 94.49609375 C24.51977737 94.49705048 23.68017975 94.4980072 22.81513977 94.49899292 C21.04253057 94.49967179 19.26991884 94.49783795 17.49731445 94.49365234 C14.80479238 94.48832014 12.11243865 94.49359687 9.41992188 94.5 C7.69140589 94.49933877 5.96289 94.49805669 4.234375 94.49609375 C3.04022224 94.4991301 3.04022224 94.4991301 1.82194519 94.50222778 C-0.4224091 94.49296869 -2.65944902 94.4431681 -4.90234375 94.36328125 C-5.9935704 94.33175461 -5.9935704 94.33175461 -7.10684204 94.29959106 C-10.61513119 94.05680341 -12.54167024 93.68968227 -15.17871094 91.30322266 C-15.76297852 90.40780762 -16.34724609 89.51239258 -16.94921875 88.58984375 C-17.60857422 87.59243164 -18.26792969 86.59501953 -18.94726562 85.56738281 C-22.13130924 80.34917747 -25.20678312 75.09503089 -28.15234375 69.73828125 C-28.75046875 68.6709375 -29.34859375 67.60359375 -29.96484375 66.50390625 C-31.64674754 63.47499102 -33.27816971 60.42342477 -34.90234375 57.36328125 C-35.36962891 56.55149414 -35.83691406 55.73970703 -36.31835938 54.90332031 C-37.95033681 51.82499955 -39.0607035 49.60512001 -38.61206055 46.08691406 C-37.87825416 43.72808929 -36.97621658 41.58691192 -35.90234375 39.36328125 C-35.60086426 38.70489258 -35.29938477 38.04650391 -34.98876953 37.36816406 C-34.0344815 35.37507542 -33.01604481 33.43191315 -31.96484375 31.48828125 C-31.58295898 30.77720215 -31.20107422 30.06612305 -30.80761719 29.33349609 C-27.5937677 23.4482459 -24.17696928 17.69211368 -20.65234375 11.98828125 C-20.15742432 11.17375488 -19.66250488 10.35922852 -19.15258789 9.52001953 C-18.67297607 8.75931152 -18.19336426 7.99860352 -17.69921875 7.21484375 C-17.27995117 6.54275879 -16.86068359 5.87067383 -16.42871094 5.17822266 C-11.79872498 -0.32710614 -6.69184145 -0.06714861 0 0 Z " fill="#FCFCFC" transform="translate(358.90234375,212.63671875)"/>
<path d="M0 0 C35.41333333 0 35.41333333 0 43.625 7.40234375 C47.81465835 12.27044109 47.47324072 17.29920749 47.3828125 23.5 C46.85781468 28.29998002 45.44950721 31.60643074 42 35 C39.1875 36.5 39.1875 36.5 37 37 C40.3888117 43.74356498 44.60217981 49.6442519 49.20703125 55.59375 C51 58 51 58 51 59 C37.89713322 60.36593592 37.89713322 60.36593592 33.65625 57.3125 C31.85720446 54.95738584 30.40162032 52.61086139 29 50 C28.06632945 48.31939301 27.10867718 46.65183527 26.125 45 C25.54105469 43.88625 25.54105469 43.88625 24.9453125 42.75 C22.3114108 40.03878647 22.3114108 40.03878647 14 40 C14 46.27 14 52.54 14 59 C9.38 59 4.76 59 0 59 C0 39.53 0 20.06 0 0 Z " fill="#060606" transform="translate(262,517)"/>
<path d="M0 0 C7.35761919 5.85975935 10.57324089 14.31422314 11.74609375 23.390625 C11.88354272 26.57944103 11.88590272 29.76179152 11.87109375 32.953125 C11.87689453 34.20899414 11.87689453 34.20899414 11.8828125 35.49023438 C11.87632591 39.58651502 11.77547755 43.39563548 10.74609375 47.390625 C9.72773438 47.13667969 8.709375 46.88273437 7.66015625 46.62109375 C6.23069339 46.27251502 4.80098558 45.9249399 3.37109375 45.578125 C2.61393066 45.39145264 1.85676758 45.20478027 1.07666016 45.01245117 C-2.98973924 44.04241155 -6.98921093 43.24904645 -11.14453125 42.7734375 C-22.95291151 41.39798501 -22.95291151 41.39798501 -26.625 38.5546875 C-28.37232812 36.2545096 -29.78377873 33.87529364 -31.25390625 31.390625 C-32.73759795 29.6499367 -34.26036513 27.94195219 -35.81640625 26.265625 C-36.56792969 25.43675781 -37.31945312 24.60789063 -38.09375 23.75390625 C-39.45399211 22.26575711 -40.82034913 20.78315205 -42.1953125 19.30859375 C-43.62357315 17.73452459 -44.95136832 16.07021339 -46.25390625 14.390625 C-44.92420929 10.40153413 -42.40701791 9.1620438 -39.00390625 7.015625 C-38.37564941 6.61931885 -37.74739258 6.2230127 -37.10009766 5.81469727 C-26.1714664 -0.88247975 -12.23676497 -7.22503379 0 0 Z " fill="#FBFBFB" transform="translate(428.25390625,162.609375)"/>
<path d="M0 0 C6.09810432 3.354125 11.4272633 7.02181402 16.23730469 12.10595703 C15.55667969 12.60095703 14.87605469 13.09595703 14.17480469 13.60595703 C11.93049148 15.51601083 10.0558061 17.29861568 8.11230469 19.48095703 C7.50128906 20.16416016 6.89027344 20.84736328 6.26074219 21.55126953 C4.67259064 23.55638751 3.4337216 25.41004666 2.15136719 27.59814453 C-1.705721 33.7994672 -4.92076149 37.98978937 -12.27050781 39.78955078 C-17.17215593 40.70526061 -22.09373671 41.21755993 -27.05273438 41.70898438 C-30.52021744 42.21692379 -33.63565939 43.24849203 -36.90087891 44.49584961 C-38.76269531 45.10595703 -38.76269531 45.10595703 -41.76269531 45.10595703 C-44.40611128 31.71694771 -44.16054065 16.78163369 -37.40722656 4.67626953 C-28.26099829 -8.71204318 -13.29840461 -6.74498029 0 0 Z " fill="#FBFBFB" transform="translate(346.7626953125,164.89404296875)"/>
<path d="M0 0 C2.63049717 13.32357511 2.49983294 28.49206963 -4.42578125 40.46484375 C-8.02950698 45.61435364 -11.77684817 48.68334762 -18 50 C-33.03573871 51.75709801 -45.47819159 43.78105491 -57 35 C-55.35774828 30.8943707 -52.39493674 28.06122101 -49.375 24.9375 C-45.3755135 20.79664726 -42.2628052 16.89523542 -39.375 11.875 C-36.93365054 8.360474 -35.09774686 6.77894218 -31 5.79296875 C-27.11744557 5.09339809 -23.21024578 4.70646306 -19.28759766 4.30664062 C-14.61794982 3.6806985 -10.21059764 2.17102874 -5.72265625 0.76953125 C-3 0 -3 0 0 0 Z " fill="#FBFBFB" transform="translate(439,310)"/>
<path d="M0 0 C1.670625 0.38091797 1.670625 0.38091797 3.375 0.76953125 C4.47062256 1.016427 4.47062256 1.016427 5.58837891 1.26831055 C7.21129726 1.63452689 8.83336023 2.00455248 10.45458984 2.37817383 C14.45249841 3.28282429 18.40900292 4.09850541 22.4765625 4.6171875 C34.06697016 6.14672919 34.06697016 6.14672919 38.4375 11 C39.65373718 12.64581322 40.83987959 14.31416054 42 16 C43.52743643 17.90731699 45.06954792 19.80296054 46.625 21.6875 C47.74068359 23.06421875 47.74068359 23.06421875 48.87890625 24.46875 C51.42942112 27.51245835 54.12098693 30.26862863 57 33 C55.23747223 38.28758331 49.67246743 40.34253415 45 43 C41.38594208 44.80232315 37.72841146 46.44939897 34 48 C33.19949219 48.36609375 32.39898437 48.7321875 31.57421875 49.109375 C25.95337097 51.05406892 19.16360059 51.13021776 13.55078125 49.125 C6.21779652 44.87885265 2.21658601 38.01265888 0 30 C-1.12069127 24.79569396 -1.14957424 19.73324786 -1.125 14.4375 C-1.12886719 13.60025391 -1.13273437 12.76300781 -1.13671875 11.90039062 C-1.13023216 7.80410998 -1.0293838 3.99498952 0 0 Z " fill="#FBFBFB" transform="translate(305,310)"/>
<path d="M0 0 C2.2188459 3.32826885 3.19919201 6.587265 4.3125 10.375 C6.24190027 16.81951921 8.50048393 22.95620547 11.1796875 29.1328125 C12.58066039 34.02954632 11.11703777 38.08097952 9.3125 42.6875 C6.1820289 51.00461878 3.63724099 59.51687481 1 68 C-12.58578599 62.113015 -25.76258159 55.8024551 -32.1484375 41.640625 C-34.22728537 35.1942894 -34.03138348 29.30414409 -30.9375 23.25 C-23.79030473 12.11459079 -12.09180803 4.87373895 0 0 Z " fill="#FCFCFC" transform="translate(295,226)"/>
<path d="M0 0 C13.24781001 6.25816792 24.4383881 12.37630255 32.875 24.75 C35.20230994 31.47333982 34.92434347 37.78343459 31.9375 44.25 C24.99198508 56.4965486 12.58721072 62.71678003 0 68 C-1.70118333 64.05055675 -2.78175619 60.10872283 -3.8125 55.9375 C-5.34285994 49.8675448 -7.41016727 44.33675096 -10.14453125 38.68359375 C-12.14632881 32.40398223 -8.67421024 25.6700084 -6.625 19.6875 C-6.32078125 18.78837891 -6.0165625 17.88925781 -5.703125 16.96289062 C-5.09966996 15.17960362 -4.49455962 13.39687579 -3.88769531 11.61474609 C-2.57518495 7.74868835 -1.28627298 3.87485282 0 0 Z " fill="#FCFCFC" transform="translate(448,226)"/>
<path d="M0 0 C5.92782788 3.33945859 9.55448439 7.43277943 11.58984375 14.02734375 C13.0836147 21.60893593 12.42012767 28.13601454 8.625 34.8984375 C4.78878378 40.17670126 -0.58458565 43.82043521 -6.99609375 45.12890625 C-13.69892914 45.93074076 -18.31735353 44.71088085 -23.99609375 41.12890625 C-24.88296875 40.57203125 -25.76984375 40.01515625 -26.68359375 39.44140625 C-32.10258717 34.02241283 -34.33166784 28.89188036 -34.68359375 21.19140625 C-34.39801209 14.22471673 -32.68473795 9.32262797 -27.99609375 4.12890625 C-19.13108511 -3.2435244 -10.5164438 -5.24907717 0 0 Z " fill="#030303" transform="translate(382.99609375,238.87109375)"/>
<path d="M0 0 C1.19367188 -0.01675781 2.38734375 -0.03351562 3.6171875 -0.05078125 C9.43383778 0.55161126 13.161396 2.81241357 16.875 7.25 C17.44734375 7.91902344 18.0196875 8.58804688 18.609375 9.27734375 C23.42977444 15.7500966 22.125 17.87643626 22.125 27.3125 C11.895 27.3125 1.665 27.3125 -8.875 27.3125 C-7.885 29.6225 -6.895 31.9325 -5.875 34.3125 C-2.17601215 35.54549595 1.27890442 35.90126612 5.125 35.3125 C5.888125 34.6525 6.65125 33.9925 7.4375 33.3125 C11.63907458 30.18574683 16.05781958 30.99302803 21.125 31.3125 C20.66964562 36.20755956 19.66493401 38.86333353 16.125 42.3125 C10.31528944 46.90935861 3.88393211 46.96579612 -3.30078125 46.765625 C-9.57302883 45.97045482 -12.89523309 43.34577412 -17.1875 38.9375 C-22.0074078 31.43986564 -22.84467561 25.21588511 -21.875 16.3125 C-19.95791492 9.28318803 -15.05706667 4.98792693 -9.0859375 1.16796875 C-6.00694708 -0.02337207 -3.29296105 0.01062246 0 0 Z " fill="#080808" transform="translate(336.875,530.6875)"/>
<path d="M0 0 C3.68829602 -0.10839074 7.37337651 -0.18751031 11.0625 -0.25 C12.10083984 -0.28351562 13.13917969 -0.31703125 14.20898438 -0.3515625 C20.75329745 -0.43466489 24.69310612 0.0787554 30 4 C34.58280938 8.94461012 35.14686083 12.76757694 35.09765625 19.29296875 C35.0962413 19.99899734 35.09482635 20.70502594 35.09336853 21.43244934 C35.08777764 23.68417626 35.07522688 25.93580321 35.0625 28.1875 C35.05748382 29.71549335 35.05292112 31.24348827 35.04882812 32.77148438 C35.0378112 36.51436135 35.02055287 40.25716373 35 44 C31.7 44 28.4 44 25 44 C24.67 42.02 24.34 40.04 24 38 C23.443125 38.78375 22.88625 39.5675 22.3125 40.375 C19.31669629 43.77564205 16.78817005 44.77615339 12.31640625 45.3359375 C6.37531417 45.42020831 2.56761271 45.22504176 -2 41 C-5.36475935 37.18660607 -5.57823865 33.34842914 -5.41015625 28.4375 C-4.70894685 24.27031271 -3.19223473 22.7847154 0 20 C6.6168236 15.68468026 14.39434243 16.73571074 22 17 C20.88145414 13.27385847 20.88145414 13.27385847 18 11 C16.62451844 10.91691362 15.24514204 10.89263984 13.8671875 10.90234375 C13.06152344 10.90556641 12.25585938 10.90878906 11.42578125 10.91210938 C10.16314453 10.92467773 10.16314453 10.92467773 8.875 10.9375 C7.60076172 10.94426758 7.60076172 10.94426758 6.30078125 10.95117188 C4.20049091 10.96297126 2.1002367 10.98090694 0 11 C0 7.37 0 3.74 0 0 Z " fill="#060606" transform="translate(368,532)"/>
<path d="M0 0 C5.22856339 2.39934075 8.89596368 6.14348987 11.48046875 11.3125 C11.52046075 13.31210012 11.52393674 15.31297242 11.48046875 17.3125 C7.4266914 17.65668864 3.52027042 17.86708919 -0.51953125 17.3125 C-2.70703125 14.3125 -2.70703125 14.3125 -4.51953125 11.3125 C-7.68291786 10.38663075 -10.3457761 10.46228302 -13.51953125 11.3125 C-16.3652807 13.95002388 -17.34024807 15.87357786 -17.8203125 19.7265625 C-17.96093504 24.62614795 -17.44204891 28.74652055 -15.51953125 33.3125 C-13.74945411 33.39364106 -11.97831027 33.45175505 -10.20703125 33.5 C-9.22089844 33.53480469 -8.23476563 33.56960938 -7.21875 33.60546875 C-4.51420401 33.54124925 -4.51420401 33.54124925 -2.7265625 31.98828125 C-1.32034392 30.21138182 -1.32034392 30.21138182 -0.51953125 27.3125 C3.77046875 27.3125 8.06046875 27.3125 12.48046875 27.3125 C11.4359079 33.67482521 10.70842379 37.1538994 5.48046875 41.3125 C4.6090625 42.00730469 3.73765625 42.70210937 2.83984375 43.41796875 C-1.35080495 45.7812997 -4.30605739 45.91190542 -9.01953125 45.8125 C-10.11974609 45.83570313 -10.11974609 45.83570313 -11.2421875 45.859375 C-16.44351329 45.82215621 -19.37941707 44.67979286 -23.51953125 41.3125 C-29.10336456 35.46895351 -31.64164488 30.47646644 -32.01953125 22.5 C-31.82805841 15.55475797 -29.7333567 9.80578853 -24.9921875 4.65234375 C-17.81652507 -1.61038453 -9.14723529 -2.49598979 0 0 Z " fill="#070707" transform="translate(440.51953125,531.6875)"/>
<path d="M0 0 C4.29 0 8.58 0 13 0 C13 3.96 13 7.92 13 12 C16.96 12 20.92 12 25 12 C25 14.97 25 17.94 25 21 C21.04 21 17.08 21 13 21 C13.33 28.92 13.66 36.84 14 45 C17.63 45.33 21.26 45.66 25 46 C25 49.3 25 52.6 25 56 C22.60347472 56.08139142 20.20974564 56.14067009 17.8125 56.1875 C16.80219727 56.22520508 16.80219727 56.22520508 15.77148438 56.26367188 C11.26690018 56.32959262 8.49547239 55.87968969 5 53 C0.328459 48.21723184 0.57578521 43.73284844 0.6484375 37.23046875 C0.68195313 36.04066406 0.71546875 34.85085938 0.75 33.625 C0.76804687 32.41199219 0.78609375 31.19898438 0.8046875 29.94921875 C0.85167784 26.9653321 0.91736628 23.98307721 1 21 C-1.31 21 -3.62 21 -6 21 C-6 18.03 -6 15.06 -6 12 C-4.02 12 -2.04 12 0 12 C0 8.04 0 4.08 0 0 Z " fill="#070707" transform="translate(460,520)"/>
<path d="M0 0 C14.19642857 -0.53571429 14.19642857 -0.53571429 17.8125 1.875 C20.60921179 4.59180574 20.94303123 5.39613102 21.3125 9.3125 C20.95124058 13.57536111 19.98007946 15.01992054 17 18 C13.93618406 19.53190797 10.73034134 19.10243613 7.375 19.0625 C4.94125 19.041875 2.5075 19.02125 0 19 C0 12.73 0 6.46 0 0 Z " fill="#F2F2F2" transform="translate(275,528)"/>
<path d="M0 0 C9.9 0 19.8 0 30 0 C28.42949268 3.14101463 27.46530927 4.80286248 25.1796875 7.234375 C24.64472656 7.80800781 24.10976563 8.38164062 23.55859375 8.97265625 C23.00300781 9.55917969 22.44742187 10.14570313 21.875 10.75 C21.31167969 11.35199219 20.74835938 11.95398438 20.16796875 12.57421875 C18.78275854 14.05334151 17.3919271 15.52719641 16 17 C13.10820032 15.69985934 11.13291606 14.35656066 8.984375 12.03125 C8.45585937 11.46019531 7.92734375 10.88914062 7.3828125 10.30078125 C6.84398437 9.70652344 6.30515625 9.11226563 5.75 8.5 C5.19570313 7.90574219 4.64140625 7.31148438 4.0703125 6.69921875 C0 2.25796644 0 2.25796644 0 0 Z " fill="#F0F0F0" transform="translate(357,319)"/>
<path d="M0 0 C0.66 0 1.32 0 2 0 C2.28198242 0.54414551 2.56396484 1.08829102 2.85449219 1.64892578 C4.14942954 4.14282028 5.44966792 6.63391439 6.75 9.125 C7.1934375 9.9809375 7.636875 10.836875 8.09375 11.71875 C10.0311143 15.42253468 11.95371713 19.04783041 14.328125 22.4921875 C16 25 16 25 16 27 C8.96871122 26.56615452 2.670985 25.25678003 -4 23 C-5.39609312 18.4229352 -4.43776212 14.8262199 -3.125 10.375 C-2.93808594 9.70726562 -2.75117188 9.03953125 -2.55859375 8.3515625 C-1.76702363 5.54457624 -0.92230936 2.76692809 0 0 Z " fill="#F3F3F3" transform="translate(313,276)"/>
<path d="M0 0 C1.48046875 1.50390625 1.48046875 1.50390625 3.1875 3.5625 C6.18677493 7.10996174 9.33995132 10.36522872 12.71484375 13.5546875 C14 15 14 15 14 17 C4.1 17 -5.8 17 -16 17 C-14.13043488 13.26086976 -12.35824421 10.98114271 -9.5625 7.9375 C-8.78003906 7.08027344 -7.99757813 6.22304687 -7.19140625 5.33984375 C-6.10666016 4.18162109 -6.10666016 4.18162109 -5 3 C-4.45214844 2.40316406 -3.90429688 1.80632812 -3.33984375 1.19140625 C-2 0 -2 0 0 0 Z " fill="#F3F3F3" transform="translate(373,184)"/>
<path d="M0 0 C0.66 0 1.32 0 2 0 C4.31993846 7.28640866 6.47536437 14.50387484 8 22 C0.64925625 24.71548094 -6.14868332 26.65259661 -14 27 C-12.15622302 21.797559 -9.2668598 17.36087282 -6.36523438 12.703125 C-3.83645088 8.57965108 -1.8042685 4.49036598 0 0 Z " fill="#F4F4F4" transform="translate(429,276)"/>
<path d="M0 0 C-1.34211975 3.555782 -2.92244697 6.79105167 -4.8203125 10.08203125 C-5.35527344 11.01337891 -5.89023437 11.94472656 -6.44140625 12.90429688 C-6.99699219 13.86400391 -7.55257813 14.82371094 -8.125 15.8125 C-8.68832031 16.79154297 -9.25164062 17.77058594 -9.83203125 18.77929688 C-11.21844415 21.18789555 -12.60785055 23.59471395 -14 26 C-14.66 26 -15.32 26 -16 26 C-18.71548094 18.64925625 -20.65259661 11.85131668 -21 4 C-18.62734939 3.32382476 -16.25244645 2.65891774 -13.875 2 C-13.20984375 1.80921875 -12.5446875 1.6184375 -11.859375 1.421875 C-7.8013795 0.30791545 -4.20314026 -0.20950232 0 0 Z " fill="#F5F5F5" transform="translate(329,217)"/>
<path d="M0 0 C7.03128878 0.43384548 13.329015 1.74321997 20 4 C21.68637231 9.03892085 20.11883569 12.96469718 18.5625 17.8125 C18.31951172 18.60076172 18.07652344 19.38902344 17.82617188 20.20117188 C17.22772569 22.13732129 16.61524123 24.06912181 16 26 C15.34 26 14.68 26 14 26 C13.71801758 25.48614746 13.43603516 24.97229492 13.14550781 24.44287109 C11.84976582 22.08538473 10.54991698 19.73018666 9.25 17.375 C8.8065625 16.56675781 8.363125 15.75851563 7.90625 14.92578125 C5.94195458 11.37271748 3.97733021 7.88339568 1.671875 4.5390625 C0 2 0 2 0 0 Z " fill="#F7F7F7" transform="translate(415,217)"/>
<path d="M0 0 C0.99386719 0.02707031 1.98773438 0.05414062 3.01171875 0.08203125 C4.15060547 0.13423828 4.15060547 0.13423828 5.3125 0.1875 C5.79442771 7.41641566 5.79442771 7.41641566 3.75 10.6875 C0.42453064 12.73394269 -1.85056413 12.60607482 -5.6875 12.1875 C-6.6775 11.5275 -7.6675 10.8675 -8.6875 10.1875 C-9.34591766 4.1520048 -9.34591766 4.1520048 -7.51953125 1.4765625 C-4.95280268 -0.32945121 -3.10210363 -0.10948601 0 0 Z " fill="#F6F6F6" transform="translate(384.6875,555.8125)"/>
<path d="M0 0 C3.19379728 0.62735304 4.83240788 1.99142607 6.96875 4.38671875 C7.29875 6.03671875 7.62875 7.68671875 7.96875 9.38671875 C1.69875 9.38671875 -4.57125 9.38671875 -11.03125 9.38671875 C-9.61871862 2.32406187 -7.59088589 -0.41070092 0 0 Z " fill="#F6F6F6" transform="translate(339.03125,540.61328125)"/>
</svg>
