<?xml version="1.0" encoding="UTF-8"?>
<svg version="1.1" xmlns="http://www.w3.org/2000/svg" width="744" height="744">
<path d="M0 0 C245.52 0 491.04 0 744 0 C744 245.52 744 491.04 744 744 C498.48 744 252.96 744 0 744 C0 498.48 0 252.96 0 0 Z " fill="#FEFEFE" transform="translate(0,0)"/>
<path d="M0 0 C245.52 0 491.04 0 744 0 C744 245.52 744 491.04 744 744 C498.48 744 252.96 744 0 744 C0 498.48 0 252.96 0 0 Z M9.80056715 9.8018924 C7.03422603 14.71537567 7.3163767 19.24814495 7.37638092 24.79892731 C7.36971291 26.01376248 7.3630449 27.22859765 7.35617483 28.48024601 C7.34269313 31.86457682 7.35171521 35.2475154 7.37006495 38.63173568 C7.38451881 42.30866433 7.37003061 45.98549551 7.35917997 49.66242075 C7.3441767 56.11065686 7.34782999 62.55867528 7.36359787 69.00690651 C7.38698045 78.59544912 7.38182814 88.18382714 7.37088897 97.77238439 C7.3522807 114.89535587 7.3620329 132.0182235 7.38336661 149.14118652 C7.40190447 164.12552966 7.41034689 179.10983788 7.40879822 194.0941925 C7.40870654 195.08713382 7.40861487 196.08007514 7.40852041 197.10310559 C7.40812727 201.13351405 7.40767765 205.16392249 7.40714902 209.19433093 C7.40227504 247.02278317 7.42495935 284.85117344 7.46110525 322.67960642 C7.49309987 356.30708768 7.50514905 389.93451599 7.49902344 423.56201172 C7.49863659 425.72113818 7.49825014 427.88026464 7.49786407 430.0393911 C7.49767272 431.10680882 7.49748138 432.17422655 7.49728423 433.27399026 C7.49632993 438.6469368 7.49541556 444.01988334 7.49454498 449.3928299 C7.49437119 450.45276959 7.4941974 451.51270929 7.49401833 452.60476837 C7.48966566 480.68194229 7.49967212 508.75911048 7.51438284 536.83628035 C7.51490298 537.83474409 7.51542312 538.83320783 7.51595903 539.86192806 C7.51647837 540.85859533 7.51699771 541.8552626 7.5175328 542.8821319 C7.51805054 543.87700353 7.51856828 544.87187516 7.51910171 545.89689441 C7.5201498 547.90052128 7.52121001 549.90414814 7.52228243 551.907775 C7.52967085 565.89145662 7.53174981 579.87513015 7.53028842 593.85881348 C7.52844479 611.87716422 7.53647301 629.89546502 7.56192988 647.91379941 C7.57511985 657.44869893 7.58009129 666.98351871 7.57329134 676.51842542 C7.56959099 682.88034094 7.57674167 689.24218342 7.59288373 695.60407941 C7.60179303 699.23356274 7.6059069 702.86288152 7.59695655 706.49236852 C7.58745448 710.39536815 7.60095618 714.29808935 7.61688995 718.20107269 C7.61043815 719.33682407 7.60398635 720.47257544 7.59733903 721.64274353 C7.60536204 722.680459 7.61338505 723.71817448 7.62165117 724.78733587 C7.62230193 725.68014213 7.62295269 726.57294839 7.62362316 727.49280939 C8.08697771 730.57939193 9.19314279 732.47625141 11 735 C13.46720783 736.23360391 15.0797692 736.12605837 17.84006864 736.1276505 C18.87104223 736.13066647 19.90201583 736.13368244 20.96423104 736.1367898 C22.67967967 736.13413559 22.67967967 736.13413559 24.42978382 736.13142776 C25.64115746 736.1334804 26.8525311 736.13553303 28.10061303 736.13764787 C31.4887388 736.14235582 34.87681191 736.14253775 38.2649371 736.14087028 C41.94125807 736.14014185 45.61757179 736.14515581 49.2938897 736.1494453 C56.5969285 736.15704219 63.89995999 736.15921921 71.20300233 736.15977435 C79.94571879 736.16068632 88.68842845 736.16734887 97.431142 736.17412117 C118.56450522 736.19020037 139.69786774 736.19608649 160.83123598 736.20086992 C170.82315111 736.2032038 180.81506566 736.20680621 190.80698033 736.2105653 C224.99157819 736.22340208 259.17617573 736.2341215 293.36077595 736.2375679 C295.50769435 736.23778954 297.65461275 736.23801132 299.80153115 736.23823325 C301.95371722 736.2384539 304.10590329 736.23867438 306.25808936 736.2388947 C310.57594955 736.23933726 314.89380974 736.23978437 319.21166992 736.24023438 C320.28225257 736.24034377 321.35283521 736.24045316 322.45585975 736.24056586 C357.18335173 736.24419792 391.91082286 736.26012295 426.63830686 736.28342474 C463.3302955 736.30799981 500.02227222 736.32173965 536.71426934 736.32293582 C540.73917687 736.32310728 544.7640844 736.32332271 548.78899193 736.32357025 C550.2756251 736.3236539 550.2756251 736.3236539 551.79229126 736.32373925 C567.76759625 736.32489168 583.7428799 736.33592997 599.71817767 736.35045731 C615.76387933 736.36479679 631.80955351 736.36807375 647.85525981 736.36001733 C657.39681847 736.35554909 666.9382887 736.35946918 676.4798358 736.37525584 C682.84628049 736.38496723 689.21266287 736.38386456 695.57910691 736.37381961 C699.2112434 736.36839967 702.84320945 736.36780636 706.47533218 736.38032833 C710.38120136 736.3936823 714.28681478 736.38402046 718.19269276 736.3719368 C719.32930167 736.37953199 720.46591059 736.38712718 721.63696221 736.39495254 C722.67544635 736.38795443 723.7139305 736.38095633 724.78388387 736.37374616 C725.67736135 736.37399036 726.57083883 736.37423456 727.49139138 736.37448616 C730.57992042 735.91342923 732.47526606 734.80806178 735 733 C736.23412317 730.53175367 736.12697974 728.91508309 736.12995183 726.15351933 C736.13348025 725.12111232 736.13700867 724.08870531 736.14064401 723.02501324 C736.13944624 721.87977648 736.13824846 720.73453971 736.13701439 719.55459881 C736.14099213 717.73500579 736.14099213 717.73500579 736.14505023 715.87865332 C736.15142764 712.48579414 736.15327949 709.09298542 736.153273 705.7001237 C736.1543394 702.01866802 736.16112621 698.33722227 736.1671797 694.65577203 C736.17827259 687.34253271 736.18390822 680.0292982 736.18788858 672.71605195 C736.19289087 663.96112262 736.20361725 655.20620264 736.21437032 646.45127882 C736.24002016 625.28840081 736.25503895 604.12551915 736.26788078 582.96263005 C736.27213339 575.95562972 736.27669906 568.94862965 736.2814641 561.94162965 C736.3067205 524.71044634 736.32877566 487.47926261 736.34119225 450.24807262 C736.34411373 441.61907639 736.34708122 432.99008018 736.35009766 424.36108398 C736.35046857 423.2890065 736.35083947 422.21692901 736.35122162 421.11236433 C736.36338292 386.33635539 736.39433586 351.56039699 736.43601918 316.78441179 C736.47876953 281.05323134 736.50542846 245.32207758 736.51066696 209.59087085 C736.51140746 204.54831056 736.51231815 199.50575032 736.51332474 194.46319008 C736.51351535 193.47071815 736.51370597 192.47824622 736.51390236 191.45569938 C736.51742132 175.45805913 736.53774392 159.46048202 736.56412137 143.46286498 C736.59021642 127.39474843 736.59801448 111.32670511 736.58702008 95.2585704 C736.58102662 85.70361934 736.589042 76.14891602 736.61685092 66.59400228 C736.63403845 60.21863721 736.63320879 53.84344203 736.61748323 47.46807354 C736.60903129 43.83075076 736.60862911 40.19390241 736.63009469 36.55662265 C736.65299391 32.64516604 736.63753112 28.73441259 736.61803246 24.82292461 C736.63088168 23.68471135 736.6437309 22.54649809 736.65696949 21.37379351 C736.60645902 16.80334799 736.46405708 13.82478926 734.19978201 9.80039257 C729.28180096 7.0332364 724.74073244 7.31361858 719.18545532 7.3707943 C717.36067001 7.35989349 717.36067001 7.35989349 715.49902034 7.34877247 C712.10996408 7.33362638 708.72228667 7.34097776 705.33332512 7.35766223 C701.65125488 7.37031588 697.96929562 7.35405815 694.28724098 7.34144557 C687.8300003 7.32335845 681.37296848 7.32395231 674.91571808 7.33668137 C665.31376481 7.35555827 655.71198843 7.34594371 646.11003643 7.33063983 C628.96314613 7.30427897 611.81634883 7.30660583 594.66944963 7.32103439 C579.66416493 7.33359927 564.65891437 7.33690172 549.65362549 7.33092117 C548.65929782 7.33053925 547.66497016 7.33015732 546.64051135 7.32976382 C542.60447594 7.3282072 538.56844055 7.3266152 534.53240518 7.324965 C496.65111984 7.30966102 458.76989384 7.32355153 420.88861766 7.35044949 C387.21412478 7.37417852 353.53972643 7.37205542 319.86523438 7.34814453 C282.05439236 7.3213865 244.24360278 7.31074626 206.43275261 7.32620585 C202.40395992 7.3278095 198.37516722 7.3293737 194.34637451 7.33092117 C193.35434208 7.33131656 192.36230966 7.33171195 191.34021564 7.33211931 C176.34229493 7.33781294 161.34441206 7.33114367 146.34649658 7.31852341 C129.29763424 7.30424909 112.24887967 7.30775415 95.2000308 7.33492713 C85.65174505 7.34964237 76.10369251 7.35051859 66.55541266 7.33169625 C60.18457023 7.32051979 53.81391555 7.32739738 47.44310104 7.3492201 C43.80843657 7.36116149 40.17423682 7.36508423 36.53958631 7.34719019 C32.63098861 7.32814287 28.72313199 7.34744538 24.81454468 7.3707943 C23.67718896 7.35908847 22.53983324 7.34738263 21.36801219 7.33532208 C16.79955038 7.39035379 13.82227851 7.53689998 9.80056715 9.8018924 Z " fill="#000000" transform="translate(0,0)"/>
<path d="M0 0 C3.38659825 3.26291379 6.29914533 6.57339069 9.0625 10.375 C11.58250488 13.80037087 14.11460724 17.1751405 16.828125 20.44921875 C28.78006504 34.8760854 39.06881158 50.53294156 46 68 C46.30196289 68.73750488 46.60392578 69.47500977 46.91503906 70.23486328 C51.61672564 82.18181336 52.55422772 93.7424842 52.5625 106.4375 C52.56540039 107.15525604 52.56830078 107.87301208 52.57128906 108.61251831 C52.55758857 138.54168158 40.22340483 163.42989513 20.4375 185.3125 C19.97496826 185.82723877 19.51243652 186.34197754 19.03588867 186.87231445 C16.3732495 189.75735067 13.73375139 191.84748553 10.4375 193.9375 C7.54085423 196.85342527 6.52794491 198.84325966 6.1015625 202.91796875 C5.94989624 204.3112439 5.94989624 204.3112439 5.79516602 205.73266602 C5.50350946 209.35832732 5.29433297 212.98049058 5.17016602 216.61572266 C4.98977957 219.14320335 4.54463153 221.52759805 4 224 C1.66705225 224.04241723 -0.66702567 224.04092937 -3 224 C-4.69890056 222.30109944 -4.14842483 220.07381028 -4.18359375 217.75 C-4.16256528 205.6860129 -4.16256528 205.6860129 -8.07421875 194.62109375 C-10.60482687 192.45476919 -13.15177369 190.72071575 -16 189 C-28.51665367 178.29528096 -36.95090373 163.65603469 -44 149 C-44.66322266 147.62908203 -44.66322266 147.62908203 -45.33984375 146.23046875 C-55.78177174 122.47015713 -54.10809601 92.69207259 -45.3125 68.75 C-38.12035771 50.43327119 -27.40617006 34.05928683 -14.63671875 19.171875 C-9.4454382 13.0361784 -4.7727107 6.46202068 0 0 Z " fill="#010101" transform="translate(372,148)"/>
<path d="M0 0 C36.77977468 0 36.77977468 0 46.34375 9.1328125 C52.80467702 16.41659343 53.46227025 23.79693405 53.27734375 33.23046875 C52.744245 40.4761067 49.70434788 46.09790922 44.84375 51.4296875 C31.95464925 62.40726907 16.50171197 59 0 59 C0 39.53 0 20.06 0 0 Z " fill="#030303" transform="translate(471,517)"/>
<path d="M0 0 C32.2173913 0 32.2173913 0 39.625 5.875 C42.85854838 10.18333577 42.70487696 14.73794217 42.4765625 19.953125 C41.8435928 23.99998043 40.73722584 26.00615924 38 29 C38.78375 29.5775 39.5675 30.155 40.375 30.75 C43.59773128 33.5123411 44.78855163 35.37233929 45.3359375 39.5859375 C45.42037458 45.61474535 45.13899784 49.26971675 41 54 C40.525625 54.5775 40.05125 55.155 39.5625 55.75 C35.24590663 59.2032747 30.60105683 59.27437509 25.29296875 59.1953125 C24.3274408 59.19229126 24.3274408 59.19229126 23.34240723 59.18920898 C20.95736478 59.17881174 18.57242459 59.15088947 16.1875 59.125 C10.845625 59.08375 5.50375 59.0425 0 59 C0 39.53 0 20.06 0 0 Z " fill="#030303" transform="translate(532,517)"/>
<path d="M0 0 C6.27 0 12.54 0 19 0 C19 19.47 19 38.94 19 59 C14.71 59 10.42 59 6 59 C5.67 44.81 5.34 30.62 5 16 C1.09300179 25.82688206 1.09300179 25.82688206 -2.80834961 35.65600586 C-3.29311768 36.87167236 -3.77788574 38.08733887 -4.27734375 39.33984375 C-4.53132935 39.98248169 -4.78531494 40.62511963 -5.04699707 41.28723145 C-6.8859282 45.8859282 -6.8859282 45.8859282 -8 47 C-12.29 47 -16.58 47 -21 47 C-24.96 37.1 -28.92 27.2 -33 17 C-33.33 30.86 -33.66 44.72 -34 59 C-37.96 59 -41.92 59 -46 59 C-46 39.86 -46 20.72 -46 1 C-39.73 1 -33.46 1 -27 1 C-25.28781629 5.23459722 -23.57774937 9.4699229 -21.87304688 13.70751953 C-21.29225637 15.14942616 -20.71023 16.59083563 -20.12695312 18.03173828 C-19.28972689 20.10059835 -18.45693291 22.17119419 -17.625 24.2421875 C-17.36251465 24.88807831 -17.1000293 25.53396912 -16.82958984 26.19943237 C-15 30.77225659 -15 30.77225659 -15 33 C-11.74653657 30.35418733 -10.54756765 26.94617803 -9.08203125 23.14453125 C-8.81992355 22.48289474 -8.55781586 21.82125824 -8.2877655 21.13957214 C-7.45532565 19.03335801 -6.63380151 16.92307903 -5.8125 14.8125 C-5.24876244 13.38057746 -4.68431723 11.94893329 -4.11914062 10.51757812 C-2.73651811 7.01534048 -1.36874665 3.50781117 0 0 Z " fill="#050505" transform="translate(216,517)"/>
<path d="M0 0 C2.55835579 1.70557053 4.57576361 3.46431325 6.625 5.75 C6.955 3.77 7.285 1.79 7.625 -0.25 C10.925 -0.25 14.225 -0.25 17.625 -0.25 C17.72424314 6.29699332 17.79664631 12.84354394 17.84472656 19.39111328 C17.86478046 21.61612582 17.89203065 23.84108607 17.92675781 26.06591797 C17.97554934 29.27324365 17.99803162 32.47986951 18.015625 35.6875 C18.03627014 36.67427734 18.05691528 37.66105469 18.07818604 38.67773438 C18.08016324 44.83183544 17.2858338 49.67064419 13.625 54.75 C8.40438131 58.97092575 3.58937881 61.0169987 -3.11328125 60.9453125 C-4.71333008 60.93564453 -4.71333008 60.93564453 -6.34570312 60.92578125 C-7.44849609 60.90902344 -8.55128906 60.89226563 -9.6875 60.875 C-10.80962891 60.86597656 -11.93175781 60.85695313 -13.08789062 60.84765625 C-15.85035217 60.82414594 -18.6127036 60.78827662 -21.375 60.75 C-21.375 57.12 -21.375 53.49 -21.375 49.75 C-20.15683594 49.78480469 -18.93867188 49.81960938 -17.68359375 49.85546875 C-16.05990972 49.88362512 -14.43621065 49.91092329 -12.8125 49.9375 C-12.01263672 49.96263672 -11.21277344 49.98777344 -10.38867188 50.01367188 C-4.94048277 50.08038439 -1.18815899 49.36213491 3.625 46.75 C4.97939668 44.04120665 4.69001451 41.74066732 4.625 38.75 C3.861875 39.389375 3.09875 40.02875 2.3125 40.6875 C-2.80427274 44.61432559 -8.17167663 44.22237951 -14.375 43.75 C-19.74727172 42.0268185 -23.3530777 38.43762043 -26.375 33.75 C-29.2746979 26.64425565 -29.85558774 18.37683669 -27.5 11.015625 C-22.09125809 0.41164416 -11.2864501 -4.1801667 0 0 Z " fill="#050505" transform="translate(374.375,532.25)"/>
<path d="M0 0 C4.99871641 3.06021636 9.35143921 7.93788519 11.4375 13.4375 C12.11778307 20.74658788 12.8959346 29.36441905 8.9140625 35.82421875 C4.38498805 40.77265194 -1.35915698 44.22014302 -8.07421875 44.67578125 C-23.23120506 45.08297301 -23.23120506 45.08297301 -28.5625 40.4375 C-34.82455395 33.68181567 -37.06987553 27.62602404 -36.8671875 18.4375 C-36.10193062 10.90266305 -32.2634316 6.67288884 -26.66015625 1.8828125 C-19.50814086 -3.04501933 -7.9438339 -3.58704127 0 0 Z " fill="#050505" transform="translate(435.5625,532.5625)"/>
<path d="M0 0 C5.79865455 3.67941533 9.88624163 8.44589829 11.7421875 15.10546875 C12.80403683 23.52867806 11.63881272 30.10110984 6.7421875 37.10546875 C2.43142228 42.01719856 -2.59277881 43.81554877 -8.9921875 44.51171875 C-16.56071958 44.80544253 -22.90036996 44.67038483 -29.26171875 40.046875 C-35.10703179 34.36170753 -36.56326409 28.50912245 -36.8828125 20.48046875 C-36.63855252 14.09756967 -35.80719755 9.69838859 -31.2578125 5.10546875 C-22.62473488 -2.51985662 -10.91684754 -4.98988954 0 0 Z " fill="#040404" transform="translate(279.2578125,532.89453125)"/>
<path d="M0 0 C3.87850945 2.67801843 6.13291589 5.33624767 7.625 9.8125 C7.70981773 12.39880224 7.74098229 14.95728056 7.72265625 17.54296875 C7.7212413 18.29338943 7.71982635 19.04381012 7.71836853 19.81697083 C7.7127756 22.2113546 7.70022444 24.60564453 7.6875 27 C7.68248408 28.62434761 7.67792134 30.24869668 7.67382812 31.87304688 C7.66280848 35.85290069 7.64554873 39.83268444 7.625 43.8125 C3.665 43.8125 -0.295 43.8125 -4.375 43.8125 C-4.42398437 41.83765625 -4.47296875 39.8628125 -4.5234375 37.828125 C-4.59846811 35.23956908 -4.67401581 32.65102811 -4.75 30.0625 C-4.7809375 28.76054688 -4.811875 27.45859375 -4.84375 26.1171875 C-4.88242187 24.86679687 -4.92109375 23.61640625 -4.9609375 22.328125 C-5.00806885 20.59997559 -5.00806885 20.59997559 -5.05615234 18.83691406 C-5.36104306 15.94488784 -5.78017286 14.21835333 -7.375 11.8125 C-9.17726193 10.96816831 -9.17726193 10.96816831 -11.25 10.8125 C-11.92804688 10.709375 -12.60609375 10.60625 -13.3046875 10.5 C-16.42926441 10.97163425 -17.43256256 12.36867618 -19.375 14.8125 C-20.01571929 17.9955881 -20.01571929 17.9955881 -19.984375 21.546875 C-20.01660156 22.84238281 -20.04882812 24.13789062 -20.08203125 25.47265625 C-20.09677469 26.83593302 -20.11109222 28.19921445 -20.125 29.5625 C-20.15316814 30.94144376 -20.18309678 32.32035275 -20.21484375 33.69921875 C-20.2855593 37.0699935 -20.33254094 40.44125093 -20.375 43.8125 C-24.665 43.8125 -28.955 43.8125 -33.375 43.8125 C-33.375 29.2925 -33.375 14.7725 -33.375 -0.1875 C-30.075 -0.1875 -26.775 -0.1875 -23.375 -0.1875 C-23.045 2.4525 -22.715 5.0925 -22.375 7.8125 C-21.941875 7.049375 -21.50875 6.28625 -21.0625 5.5 C-16.19227243 -2.25628835 -8.34204642 -2.93516448 0 0 Z " fill="#030303" transform="translate(331.375,532.1875)"/>
<path d="M0 0 C16.54957507 0 16.54957507 0 22 4 C25.95523033 7.95523033 27.32544506 11.96207413 27.625 17.5 C27.3386211 23.08051847 25.76653933 26.88488634 22 31 C14.98742622 37.09789024 10.42854481 35 0 35 C0 23.45 0 11.9 0 0 Z " fill="#FBFBFB" transform="translate(484,529)"/>
<path d="M0 0 C0.33 0 0.66 0 1 0 C2.39637007 20.67390992 3.35387337 41.35628929 4.125 62.0625 C4.16929138 63.21098419 4.21358276 64.35946838 4.25921631 65.54275513 C4.51548176 72.24167749 4.73737031 78.94029498 4.91027832 85.64190674 C4.97173352 87.94204533 5.041052 90.2419835 5.11706543 92.54168701 C5.226356 96.00558103 5.30109228 99.46863748 5.3671875 102.93359375 C5.40578888 103.98853531 5.44439026 105.04347687 5.48416138 106.13038635 C5.56981484 113.39208355 5.56981484 113.39208355 2.47705078 116.69165039 C1.65962402 117.12340576 0.84219727 117.55516113 0 118 C-3.3705115 115.24744329 -4.87697516 113.83685704 -5.52124023 109.4543457 C-5.49787384 108.08993951 -5.44613318 106.72582275 -5.37109375 105.36328125 C-5.33972572 104.25017326 -5.33972572 104.25017326 -5.307724 103.11457825 C-5.23266297 100.74108938 -5.11936627 98.3716401 -5 96 C-4.93570818 94.47056765 -4.87206307 92.94110798 -4.80908203 91.41162109 C-4.6359902 87.48987113 -4.42574559 83.57098764 -4.20263672 79.65179443 C-3.95966098 75.37908292 -3.73139786 71.10559133 -3.50390625 66.83203125 C-3.458638 65.98483521 -3.41336975 65.13763916 -3.36672974 64.26477051 C-2.98385939 56.97029745 -2.72312242 49.67617887 -2.5 42.375 C-2.05796371 28.22041149 -1.06781312 14.11938042 0 0 Z " fill="#F1F1F1" transform="translate(372,226)"/>
<path d="M0 0 C3.46092943 0.50310635 5.14413803 1.76664747 7.4453125 4.35546875 C9.98081483 7.85687673 9.86744438 11.13414991 9.4453125 15.35546875 C8.14639148 19.05806319 6.92878997 22.42754458 3.515625 24.5625 C0.32086105 25.78615487 -2.16384012 25.70624607 -5.5546875 25.35546875 C-9.57733195 23.2302981 -11.87398669 21.57264004 -13.5546875 17.35546875 C-14.14377976 13.07881197 -14.04261567 9.42426379 -12.2421875 5.48046875 C-8.31364929 0.53342063 -6.36396064 -0.19481512 0 0 Z " fill="#F7F7F7" transform="translate(425.5546875,541.64453125)"/>
<path d="M0 0 C3.75035594 0.89372517 5.51562607 2.30601376 7.70703125 5.4375 C9.4975507 9.5187245 9.52154981 13.30266321 8.671875 17.63671875 C6.67530373 21.49216673 5.27479862 23.23476967 1.671875 25.63671875 C-2.97651679 26.17014076 -5.94109243 26.38859555 -9.703125 23.44921875 C-12.83085945 20.0980747 -14.25349495 18.15081845 -14.390625 13.53125 C-14.1834563 9.66625903 -13.58781832 6.35000268 -11.453125 3.07421875 C-7.49646029 -0.01197973 -4.93444301 -0.30006748 0 0 Z " fill="#F7F7F7" transform="translate(269.328125,541.36328125)"/>
<path d="M0 0 C4.46266363 2.19218564 4.46266363 2.19218564 6 5 C6.98815925 10.54594805 7.01103741 15.2812364 4.125 20.1875 C0.53852391 23.24655314 -2.14390187 23.38547632 -6.73828125 23.36328125 C-10.29566317 22.7918883 -11.85459738 20.7487971 -14 18 C-14.33 17.67 -14.66 17.34 -15 17 C-15.55108256 12.20287148 -15.85118474 7.59265146 -13.125 3.4375 C-9.38470544 -0.85283788 -5.42176106 -0.7446975 0 0 Z " fill="#FBFBFB" transform="translate(374,542)"/>
<path d="M0 0 C2.77141717 -0.08089542 5.54047819 -0.14044062 8.3125 -0.1875 C9.09818359 -0.21263672 9.88386719 -0.23777344 10.69335938 -0.26367188 C11.45068359 -0.27333984 12.20800781 -0.28300781 12.98828125 -0.29296875 C14.03302612 -0.31653442 14.03302612 -0.31653442 15.09887695 -0.34057617 C17.61857831 0.11081504 18.47514782 0.97357089 20 3 C20.47973802 6.76937016 20.67138535 9.01981209 18.48828125 12.20703125 C15.01082725 14.71276341 11.85827469 14.43871933 7.75 14.25 C6.63238281 14.22292969 6.63238281 14.22292969 5.4921875 14.1953125 C3.66090299 14.14835649 1.83028351 14.07661652 0 14 C0 9.38 0 4.76 0 0 Z " fill="#F5F5F5" transform="translate(544,552)"/>
<path d="M0 0 C2.0625 -0.061875 4.125 -0.12375 6.25 -0.1875 C7.99023438 -0.23970703 7.99023438 -0.23970703 9.765625 -0.29296875 C13.27295611 0.02472429 14.64359841 0.40910213 17 3 C17.53125 5.15625 17.53125 5.15625 17.5 7.5 C17.5103125 8.2734375 17.520625 9.046875 17.53125 9.84375 C17 12 17 12 15.390625 13.76953125 C12.20696387 15.40818036 9.81073721 15.29432212 6.25 15.1875 C4.1875 15.125625 2.125 15.06375 0 15 C0 10.05 0 5.1 0 0 Z " fill="#EBEBEB" transform="translate(544,527)"/>
<path d="M0 0 C0.33 0 0.66 0 1 0 C1.99263429 9.35912329 2.10731538 18.60394198 2 28 C0.50463867 26.86010742 0.50463867 26.86010742 -1 25 C-1.2487793 22.36450195 -1.2487793 22.36450195 -1.07421875 19.23828125 C-1.01943359 18.12001953 -0.96464844 17.00175781 -0.90820312 15.84960938 C-0.83537109 14.68236328 -0.76253906 13.51511719 -0.6875 12.3125 C-0.62626953 11.13365234 -0.56503906 9.95480469 -0.50195312 8.74023438 C-0.34856044 5.82577331 -0.18069004 2.91287541 0 0 Z " fill="#CACACA" transform="translate(372,226)"/>
</svg>
