<?xml version="1.0" encoding="UTF-8"?>
<svg version="1.1" xmlns="http://www.w3.org/2000/svg" width="744" height="744">
<path d="M0 0 C245.52 0 491.04 0 744 0 C744 245.52 744 491.04 744 744 C498.48 744 252.96 744 0 744 C0 498.48 0 252.96 0 0 Z " fill="#FEFEFE" transform="translate(0,0)"/>
<path d="M0 0 C245.52 0 491.04 0 744 0 C744 245.52 744 491.04 744 744 C498.48 744 252.96 744 0 744 C0 498.48 0 252.96 0 0 Z M9.80056715 9.8018924 C7.03422603 14.71537567 7.3163767 19.24814495 7.37638092 24.79892731 C7.36971291 26.01376248 7.3630449 27.22859765 7.35617483 28.48024601 C7.34269313 31.86457682 7.35171521 35.2475154 7.37006495 38.63173568 C7.38451881 42.30866433 7.37003061 45.98549551 7.35917997 49.66242075 C7.3441767 56.11065686 7.34782999 62.55867528 7.36359787 69.00690651 C7.38698045 78.59544912 7.38182814 88.18382714 7.37088897 97.77238439 C7.3522807 114.89535587 7.3620329 132.0182235 7.38336661 149.14118652 C7.40190447 164.12552966 7.41034689 179.10983788 7.40879822 194.0941925 C7.40870654 195.08713382 7.40861487 196.08007514 7.40852041 197.10310559 C7.40812727 201.13351405 7.40767765 205.16392249 7.40714902 209.19433093 C7.40227504 247.02278317 7.42495935 284.85117344 7.46110525 322.67960642 C7.49309987 356.30708768 7.50514905 389.93451599 7.49902344 423.56201172 C7.49863659 425.72113818 7.49825014 427.88026464 7.49786407 430.0393911 C7.49767272 431.10680882 7.49748138 432.17422655 7.49728423 433.27399026 C7.49632993 438.6469368 7.49541556 444.01988334 7.49454498 449.3928299 C7.49437119 450.45276959 7.4941974 451.51270929 7.49401833 452.60476837 C7.48966566 480.68194229 7.49967212 508.75911048 7.51438284 536.83628035 C7.51490298 537.83474409 7.51542312 538.83320783 7.51595903 539.86192806 C7.51647837 540.85859533 7.51699771 541.8552626 7.5175328 542.8821319 C7.51805054 543.87700353 7.51856828 544.87187516 7.51910171 545.89689441 C7.5201498 547.90052128 7.52121001 549.90414814 7.52228243 551.907775 C7.52967085 565.89145662 7.53174981 579.87513015 7.53028842 593.85881348 C7.52844479 611.87716422 7.53647301 629.89546502 7.56192988 647.91379941 C7.57511985 657.44869893 7.58009129 666.98351871 7.57329134 676.51842542 C7.56959099 682.88034094 7.57674167 689.24218342 7.59288373 695.60407941 C7.60179303 699.23356274 7.6059069 702.86288152 7.59695655 706.49236852 C7.58745448 710.39536815 7.60095618 714.29808935 7.61688995 718.20107269 C7.61043815 719.33682407 7.60398635 720.47257544 7.59733903 721.64274353 C7.60536204 722.680459 7.61338505 723.71817448 7.62165117 724.78733587 C7.62230193 725.68014213 7.62295269 726.57294839 7.62362316 727.49280939 C8.08697771 730.57939193 9.19314279 732.47625141 11 735 C13.46720783 736.23360391 15.0797692 736.12605837 17.84006864 736.1276505 C18.87104223 736.13066647 19.90201583 736.13368244 20.96423104 736.1367898 C22.67967967 736.13413559 22.67967967 736.13413559 24.42978382 736.13142776 C25.64115746 736.1334804 26.8525311 736.13553303 28.10061303 736.13764787 C31.4887388 736.14235582 34.87681191 736.14253775 38.2649371 736.14087028 C41.94125807 736.14014185 45.61757179 736.14515581 49.2938897 736.1494453 C56.5969285 736.15704219 63.89995999 736.15921921 71.20300233 736.15977435 C79.94571879 736.16068632 88.68842845 736.16734887 97.431142 736.17412117 C118.56450522 736.19020037 139.69786774 736.19608649 160.83123598 736.20086992 C170.82315111 736.2032038 180.81506566 736.20680621 190.80698033 736.2105653 C224.99157819 736.22340208 259.17617573 736.2341215 293.36077595 736.2375679 C295.50769435 736.23778954 297.65461275 736.23801132 299.80153115 736.23823325 C301.95371722 736.2384539 304.10590329 736.23867438 306.25808936 736.2388947 C310.57594955 736.23933726 314.89380974 736.23978437 319.21166992 736.24023438 C320.28225257 736.24034377 321.35283521 736.24045316 322.45585975 736.24056586 C357.18335173 736.24419792 391.91082286 736.26012295 426.63830686 736.28342474 C463.3302955 736.30799981 500.02227222 736.32173965 536.71426934 736.32293582 C540.73917687 736.32310728 544.7640844 736.32332271 548.78899193 736.32357025 C550.2756251 736.3236539 550.2756251 736.3236539 551.79229126 736.32373925 C567.76759625 736.32489168 583.7428799 736.33592997 599.71817767 736.35045731 C615.76387933 736.36479679 631.80955351 736.36807375 647.85525981 736.36001733 C657.39681847 736.35554909 666.9382887 736.35946918 676.4798358 736.37525584 C682.84628049 736.38496723 689.21266287 736.38386456 695.57910691 736.37381961 C699.2112434 736.36839967 702.84320945 736.36780636 706.47533218 736.38032833 C710.38120136 736.3936823 714.28681478 736.38402046 718.19269276 736.3719368 C719.32930167 736.37953199 720.46591059 736.38712718 721.63696221 736.39495254 C722.67544635 736.38795443 723.7139305 736.38095633 724.78388387 736.37374616 C725.67736135 736.37399036 726.57083883 736.37423456 727.49139138 736.37448616 C730.57992042 735.91342923 732.47526606 734.80806178 735 733 C736.23412317 730.53175367 736.12697974 728.91508309 736.12995183 726.15351933 C736.13348025 725.12111232 736.13700867 724.08870531 736.14064401 723.02501324 C736.13944624 721.87977648 736.13824846 720.73453971 736.13701439 719.55459881 C736.14099213 717.73500579 736.14099213 717.73500579 736.14505023 715.87865332 C736.15142764 712.48579414 736.15327949 709.09298542 736.153273 705.7001237 C736.1543394 702.01866802 736.16112621 698.33722227 736.1671797 694.65577203 C736.17827259 687.34253271 736.18390822 680.0292982 736.18788858 672.71605195 C736.19289087 663.96112262 736.20361725 655.20620264 736.21437032 646.45127882 C736.24002016 625.28840081 736.25503895 604.12551915 736.26788078 582.96263005 C736.27213339 575.95562972 736.27669906 568.94862965 736.2814641 561.94162965 C736.3067205 524.71044634 736.32877566 487.47926261 736.34119225 450.24807262 C736.34411373 441.61907639 736.34708122 432.99008018 736.35009766 424.36108398 C736.35046857 423.2890065 736.35083947 422.21692901 736.35122162 421.11236433 C736.36338292 386.33635539 736.39433586 351.56039699 736.43601918 316.78441179 C736.47876953 281.05323134 736.50542846 245.32207758 736.51066696 209.59087085 C736.51140746 204.54831056 736.51231815 199.50575032 736.51332474 194.46319008 C736.51351535 193.47071815 736.51370597 192.47824622 736.51390236 191.45569938 C736.51742132 175.45805913 736.53774392 159.46048202 736.56412137 143.46286498 C736.59021642 127.39474843 736.59801448 111.32670511 736.58702008 95.2585704 C736.58102662 85.70361934 736.589042 76.14891602 736.61685092 66.59400228 C736.63403845 60.21863721 736.63320879 53.84344203 736.61748323 47.46807354 C736.60903129 43.83075076 736.60862911 40.19390241 736.63009469 36.55662265 C736.65299391 32.64516604 736.63753112 28.73441259 736.61803246 24.82292461 C736.63088168 23.68471135 736.6437309 22.54649809 736.65696949 21.37379351 C736.60645902 16.80334799 736.46405708 13.82478926 734.19978201 9.80039257 C729.28180096 7.0332364 724.74073244 7.31361858 719.18545532 7.3707943 C717.36067001 7.35989349 717.36067001 7.35989349 715.49902034 7.34877247 C712.10996408 7.33362638 708.72228667 7.34097776 705.33332512 7.35766223 C701.65125488 7.37031588 697.96929562 7.35405815 694.28724098 7.34144557 C687.8300003 7.32335845 681.37296848 7.32395231 674.91571808 7.33668137 C665.31376481 7.35555827 655.71198843 7.34594371 646.11003643 7.33063983 C628.96314613 7.30427897 611.81634883 7.30660583 594.66944963 7.32103439 C579.66416493 7.33359927 564.65891437 7.33690172 549.65362549 7.33092117 C548.65929782 7.33053925 547.66497016 7.33015732 546.64051135 7.32976382 C542.60447594 7.3282072 538.56844055 7.3266152 534.53240518 7.324965 C496.65111984 7.30966102 458.76989384 7.32355153 420.88861766 7.35044949 C387.21412478 7.37417852 353.53972643 7.37205542 319.86523438 7.34814453 C282.05439236 7.3213865 244.24360278 7.31074626 206.43275261 7.32620585 C202.40395992 7.3278095 198.37516722 7.3293737 194.34637451 7.33092117 C193.35434208 7.33131656 192.36230966 7.33171195 191.34021564 7.33211931 C176.34229493 7.33781294 161.34441206 7.33114367 146.34649658 7.31852341 C129.29763424 7.30424909 112.24887967 7.30775415 95.2000308 7.33492713 C85.65174505 7.34964237 76.10369251 7.35051859 66.55541266 7.33169625 C60.18457023 7.32051979 53.81391555 7.32739738 47.44310104 7.3492201 C43.80843657 7.36116149 40.17423682 7.36508423 36.53958631 7.34719019 C32.63098861 7.32814287 28.72313199 7.34744538 24.81454468 7.3707943 C23.67718896 7.35908847 22.53983324 7.34738263 21.36801219 7.33532208 C16.79955038 7.39035379 13.82227851 7.53689998 9.80056715 9.8018924 Z " fill="#000000" transform="translate(0,0)"/>
<path d="M0 0 C3.60288899 1.22486276 6.73806358 3.055648 10 5 C11.05316406 5.62003906 12.10632813 6.24007812 13.19140625 6.87890625 C15.69127485 8.36306025 18.17970925 9.86503338 20.6640625 11.375 C25.46201962 14.2879661 30.29161024 17.14631552 35.125 20 C36.03258057 20.53641113 36.94016113 21.07282227 37.87524414 21.62548828 C43.39954366 24.88679343 48.93291767 28.13221022 54.47265625 31.3671875 C55.76482132 32.12237851 57.05697626 32.87758686 58.34912109 33.6328125 C60.84412693 35.09098292 63.34076502 36.54630242 65.83837891 38 C68.14803885 39.34598438 70.44901832 40.7041744 72.74755859 42.06933594 C74.86437133 43.32588564 76.99192972 44.56456315 79.13134766 45.78222656 C80.09476074 46.35166992 81.05817383 46.92111328 82.05078125 47.5078125 C82.88907471 47.99137207 83.72736816 48.47493164 84.59106445 48.97314453 C88.5090045 52.26966204 91.45835087 56.24895161 92.46321774 61.35269356 C92.63982385 63.99238345 92.66465823 66.59092511 92.63110352 69.23632812 C92.64183647 70.72573158 92.64183647 70.72573158 92.65278625 72.245224 C92.66961155 75.50770933 92.65030583 78.76880858 92.62890625 82.03125 C92.62973551 84.30993767 92.63219705 86.58862529 92.63621521 88.86730957 C92.63906901 93.63519366 92.62441212 98.40260691 92.59692383 103.17041016 C92.56284248 109.27015694 92.56886364 115.36906211 92.5875864 121.46884918 C92.59817429 126.17188483 92.58920218 130.87472595 92.57420158 135.57774353 C92.56903249 137.82632367 92.56948606 140.07492422 92.57574654 142.32350159 C92.58122018 145.47066663 92.56075362 148.61664247 92.53344727 151.76367188 C92.54323608 153.14636513 92.54323608 153.14636513 92.55322266 154.55699158 C92.45378785 161.32505082 90.98300677 166.93465971 86.16015625 171.890625 C79.49736935 176.20840869 72.6245322 180.13602608 65.71240234 184.03857422 C58.63385724 188.03778684 51.64769525 192.17359081 44.6875 196.375 C36.13391769 201.53070234 27.55801228 206.64437034 18.9375 211.6875 C17.95676514 212.2635498 16.97603027 212.83959961 15.96557617 213.43310547 C-1.21090439 223.45309179 -1.21090439 223.45309179 -9 222 C-20.5358413 217.97962799 -32.33836 209.41853551 -42 202 C-42 201.34 -42 200.68 -42 200 C-40.10908264 199.15557119 -38.21202485 198.32488413 -36.3125 197.5 C-35.25675781 197.0359375 -34.20101562 196.571875 -33.11328125 196.09375 C-29.92200719 194.97259976 -28.31144582 194.41416701 -25 195 C-22.19453448 196.42035456 -19.6103621 198.12673165 -17 199.875 C-15.60661166 200.79278531 -14.21083221 201.70695238 -12.8125 202.6171875 C-12.20019531 203.02565918 -11.58789062 203.43413086 -10.95703125 203.85498047 C-8.62412609 205.21991625 -6.61812549 206.28068821 -4 207 C-1.52418689 206.23978863 -1.52418689 206.23978863 0.859375 204.66015625 C1.79676514 204.09965576 2.73415527 203.53915527 3.69995117 202.96166992 C4.70646729 202.33494385 5.7129834 201.70821777 6.75 201.0625 C7.81130127 200.42223877 8.87260254 199.78197754 9.96606445 199.12231445 C12.20482287 197.7698376 14.43887242 196.40953939 16.66845703 195.04199219 C20.81268111 192.50188591 24.98080533 190.00305227 29.15112305 187.50610352 C31.18131261 186.29014452 33.21011573 185.07186781 35.23754883 183.85131836 C43.76978924 178.71676061 52.34597377 173.65945448 60.9375 168.625 C61.58045013 168.24797943 62.22340027 167.87095886 62.88583374 167.48251343 C73.62344931 161.18827535 73.62344931 161.18827535 76 160 C76.55819335 147.46649199 76.98349429 134.93597184 77.24349213 122.39253044 C77.36835447 116.5659549 77.53729144 110.7479233 77.81054688 104.92626953 C80.39689452 80.74521829 80.39689452 80.74521829 73.71090698 58.55981445 C68.19100267 53.48497111 62.08583459 50.9651416 54.94744873 48.93270874 C50.5527567 47.54202546 46.91192505 45.23260133 43.0625 42.75 C41.70895341 41.94507413 40.35258546 41.14485402 38.9921875 40.3515625 C38.33444336 39.96387695 37.67669922 39.57619141 36.99902344 39.17675781 C34.96167365 37.97743857 32.92249624 36.78128257 30.8828125 35.5859375 C29.48434359 34.76567856 28.08590622 33.94536583 26.6875 33.125 C26.00284668 32.72385986 25.31819336 32.32271973 24.61279297 31.90942383 C20.59752856 29.5500964 16.60385496 27.15856269 12.625 24.73828125 C11.72048096 24.18962402 10.81596191 23.6409668 9.8840332 23.07568359 C8.11942657 22.0036591 6.35742895 20.92732526 4.59838867 19.84619141 C3.7963501 19.35940918 2.99431152 18.87262695 2.16796875 18.37109375 C1.45922607 17.93724365 0.7504834 17.50339355 0.02026367 17.05639648 C-2.13494807 15.92943561 -3.56598483 15.18904147 -6 15 C-8.78584586 16.16833578 -8.78584586 16.16833578 -11.71484375 18.0234375 C-12.27389404 18.3558847 -12.83294434 18.68833191 -13.40893555 19.03085327 C-15.25881014 20.13429002 -17.09782944 21.25464822 -18.9375 22.375 C-20.23497807 23.1526707 -21.53324997 23.92901834 -22.83227539 24.70410156 C-25.53840809 26.32011135 -28.24100287 27.9418189 -30.94140625 29.56738281 C-36.65226193 32.99860072 -42.40708937 36.35425467 -48.16091919 39.71270752 C-53.22309152 42.62061553 -53.22309152 42.62061553 -58.18659973 45.6893158 C-61.94884116 48.07620281 -65.40763141 49.45658331 -69.70800781 50.65698242 C-76.68143349 52.9962218 -82.04679084 55.57709991 -86 62 C-90.41411707 76.45547023 -88.45778329 93.43219437 -87.97418213 108.32171631 C-87.80868439 114.14652378 -87.76924178 119.9720897 -87.71875 125.79882812 C-87.60155664 137.20340778 -87.34540619 148.60020728 -87 160 C-86.22319382 160.30259735 -85.44638763 160.6051947 -84.64604187 160.91696167 C-81.9843295 162.00641401 -79.70800934 163.30077134 -77.26953125 164.8203125 C-76.38330078 165.35527344 -75.49707031 165.89023437 -74.58398438 166.44140625 C-72.74707187 167.55727558 -70.91873013 168.68738651 -69.09960938 169.83203125 C-63.19182863 173.35537197 -57.94561277 175.57844315 -51 174 C-47.94843162 172.1510317 -47.1522746 171.4568238 -46 168 C-45.90300502 166.6570411 -45.85826698 165.30989218 -45.84851074 163.96347046 C-45.83599525 162.73519279 -45.83599525 162.73519279 -45.82322693 161.48210144 C-45.81904251 160.58743668 -45.81485809 159.69277191 -45.81054688 158.77099609 C-45.80225357 157.82606796 -45.79396027 156.88113983 -45.78541565 155.90757751 C-45.76801224 153.85485893 -45.75284621 151.80212045 -45.73963928 149.74937057 C-45.7186366 146.5059257 -45.69161365 143.26258131 -45.66296387 140.01919556 C-45.59308157 131.96595231 -45.53363781 123.91263798 -45.47393799 115.85931396 C-45.42310108 109.0527378 -45.36831427 102.24621639 -45.30812073 95.43971634 C-45.28145029 92.2350042 -45.26069631 89.03028721 -45.2401123 85.82553101 C-45.22351796 83.87375645 -45.20664689 81.92198421 -45.18945312 79.97021484 C-45.18526871 79.07150162 -45.18108429 78.17278839 -45.17677307 77.24684143 C-45.11384779 71.11384779 -45.11384779 71.11384779 -44 70 C-41.64686445 69.92728259 -39.29166332 69.91629132 -36.9375 69.9375 C-35.00197266 69.95103516 -35.00197266 69.95103516 -33.02734375 69.96484375 C-32.02832031 69.97644531 -31.02929688 69.98804688 -30 70 C-29.93038712 83.01329358 -29.87713131 96.02654261 -29.84456348 109.0399847 C-29.82892994 115.08312002 -29.80773368 121.12612763 -29.77368164 127.16918945 C-29.74100608 133.00471306 -29.7231296 138.84011407 -29.71536827 144.67572212 C-29.7098395 146.89838146 -29.6990432 149.12103435 -29.68280983 151.34364128 C-29.6609269 154.46483563 -29.65803765 157.58552799 -29.65942383 160.70678711 C-29.648638 161.61885422 -29.63785217 162.53092133 -29.6267395 163.47062683 C-29.66684886 171.85627502 -31.36261496 179.35066637 -37.296875 185.55859375 C-43.20947524 190.56260634 -50.49115577 190.76400602 -57.94140625 190.6015625 C-64.62369398 189.89680882 -70.22534554 186.50274913 -75.93994141 183.18066406 C-78.05308221 181.96957744 -80.19503892 180.83522807 -82.35546875 179.7109375 C-98.21895785 171.34312645 -98.21895785 171.34312645 -101 163 C-101.0944528 161.57948983 -101.13484302 160.15500491 -101.14044189 158.73136902 C-101.14615204 157.86084396 -101.15186218 156.99031891 -101.15774536 156.09341431 C-101.15886322 155.1411496 -101.15998108 154.18888489 -101.16113281 153.20776367 C-101.16609772 152.20259201 -101.17106262 151.19742035 -101.17617798 150.16178894 C-101.19080444 146.83050862 -101.19760248 143.49927593 -101.203125 140.16796875 C-101.20887611 137.8549245 -101.21463384 135.54188027 -101.22039795 133.22883606 C-101.23090935 128.37578102 -101.2367511 123.52274256 -101.24023438 118.66967773 C-101.24571899 112.45205604 -101.26974593 106.23465334 -101.29820633 100.01710033 C-101.31683296 95.23785259 -101.32203833 90.45865758 -101.32357025 85.6793766 C-101.3265973 83.38725907 -101.33462757 81.09514247 -101.34775543 78.80306053 C-101.36481585 75.59534434 -101.36293545 72.38816311 -101.35644531 69.18041992 C-101.3656601 68.23422791 -101.37487488 67.28803589 -101.3843689 66.31317139 C-101.34613872 60.27926713 -100.61605809 55.77242018 -96.30078125 51.19921875 C-91.12514752 47.26411019 -85.67491192 44.01554716 -79.98486328 40.89477539 C-73.45179456 37.30225438 -67.06897846 33.47927015 -60.6875 29.625 C-51.66706052 24.18473345 -42.60259206 18.83601345 -33.47265625 13.58203125 C-28.04226779 10.45551653 -22.64573162 7.27191354 -17.25195312 4.08276367 C-11.01311524 0.39914603 -7.27901027 -0.87512853 0 0 Z " fill="#030303" transform="translate(377,150)"/>
<path d="M0 0 C5.39145995 5.33009373 8.54623202 11.2726891 8.75 18.9375 C8.4375 21.875 8.4375 21.875 7.4375 22.875 C5.25110547 22.94758946 3.06249611 22.95873783 0.875 22.9375 C-0.92130859 22.92396484 -0.92130859 22.92396484 -2.75390625 22.91015625 C-3.68074219 22.89855469 -4.60757813 22.88695312 -5.5625 22.875 C-6.40069158 21.25250059 -7.2329116 19.62691503 -8.0625 18 C-8.5265625 17.09507812 -8.990625 16.19015625 -9.46875 15.2578125 C-10.5625 12.875 -10.5625 12.875 -10.5625 10.875 C-20.64880898 6.46223982 -33.7121166 4.42878415 -44.375 8.1875 C-47.12924567 9.64563006 -48.61669333 10.55240418 -50.5625 12.875 C-51.47506309 16.34605052 -51.47506309 16.34605052 -51.5625 19.875 C-48.96639964 23.76915053 -47.43556874 23.72756209 -42.9375 24.8125 C-42.24889893 24.97943359 -41.56029785 25.14636719 -40.85083008 25.31835938 C-33.39344001 27.05033558 -25.82874291 28.21881548 -18.25341797 29.30444336 C-7.7954077 30.89519755 2.41429735 33.4084324 9.4375 41.875 C12.63610117 48.13586853 12.5273785 55.84539518 10.71484375 62.546875 C7.52088425 70.25375704 1.88761201 75.31509426 -5.5625 78.875 C-19.3601573 84.08283757 -38.18359209 84.2721172 -51.96875 79.06640625 C-59.82775503 75.45647171 -66.05742114 71.18587173 -69.375 62.828125 C-70.62733503 58.34059113 -70.5625 54.62932318 -70.5625 49.875 C-65.9425 49.875 -61.3225 49.875 -56.5625 49.875 C-54.75585938 54.02539062 -54.75585938 54.02539062 -52.94921875 58.17578125 C-50.64415987 62.66252966 -48.32728968 64.32367313 -43.5625 65.875 C-32.33491234 68.19153541 -17.66787786 68.97905652 -7.5625 62.875 C-5.28187172 59.45405758 -5.34324993 58.19312778 -5.4375 54.1875 C-5.45554687 53.19363281 -5.47359375 52.19976562 -5.4921875 51.17578125 C-5.51539063 50.41652344 -5.53859375 49.65726562 -5.5625 48.875 C-14.59135927 45.39173517 -23.71522978 44.56824901 -33.28320312 43.50195312 C-45.21350538 42.05969605 -56.297797 40.23752069 -64.5625 30.875 C-68.78788785 25.32917845 -68.1709332 18.54276114 -67.5625 11.875 C-66.39710525 6.81592201 -63.54507902 2.20110995 -59.5625 -1.125 C-42.93717186 -11.2468214 -15.72823424 -12.86027836 0 0 Z " fill="#030303" transform="translate(425.5625,225.125)"/>
<path d="M0 0 C4.29 0 8.58 0 13 0 C13 19.47 13 38.94 13 59 C5.74 59 -1.52 59 -9 59 C-13.63123991 49.94803109 -17.99120473 40.79590863 -22.25 31.5625 C-22.76916992 30.43730957 -23.28833984 29.31211914 -23.82324219 28.15283203 C-26.28692056 22.79301259 -28.67546625 17.42391209 -31 12 C-31.33 27.51 -31.66 43.02 -32 59 C-35.96 59 -39.92 59 -44 59 C-44 39.86 -44 20.72 -44 1 C-36.74 1 -29.48 1 -22 1 C-19.32950943 6.74691612 -16.65982525 12.49419271 -13.9921875 18.24243164 C-13.0847829 20.19707838 -12.17690949 22.15150755 -11.26855469 24.10571289 C-9.96165093 26.9175578 -8.65644502 29.73018539 -7.3515625 32.54296875 C-6.74364365 33.84949654 -6.74364365 33.84949654 -6.1234436 35.18241882 C-5.74320038 36.002892 -5.36295715 36.82336517 -4.97119141 37.66870117 C-4.63809967 38.38595871 -4.30500793 39.10321625 -3.96182251 39.84220886 C-2.91056306 42.2006464 -1.95897748 44.60255631 -1 47 C-0.67 31.49 -0.34 15.98 0 0 Z " fill="#070707" transform="translate(256,517)"/>
<path d="M0 0 C4.29 0 8.58 0 13 0 C13 19.14 13 38.28 13 58 C9.7 58 6.4 58 3 58 C2.505 54.535 2.505 54.535 2 51 C1.278125 51.94875 0.55625 52.8975 -0.1875 53.875 C-2.4292461 56.82129488 -4.45542197 57.92342329 -8 59 C-13.80070248 59.62435596 -19.15631359 59.85599726 -24.5 57.375 C-30.65679949 51.52604048 -34.18681806 46.7088959 -34.4309082 37.9206543 C-34.47047791 24.51531789 -34.47047791 24.51531789 -29 19 C-23.69822805 14.08616258 -19.66733265 12.60147663 -12.54296875 12.73828125 C-7.95209269 13.21076773 -4.30717798 14.69282202 -1 18 C-0.67 12.06 -0.34 6.12 0 0 Z " fill="#040404" transform="translate(364,518)"/>
<path d="M0 0 C5.36159292 3.39006548 9.42118711 7.75154237 11.30078125 13.875 C12.83169289 21.59729764 12.23775097 27.94906575 8.37109375 34.8671875 C4.98341367 39.51407721 0.5013101 43.14673415 -5.2578125 44.1015625 C-21.62694464 45.34164827 -21.62694464 45.34164827 -27.71484375 40.59765625 C-32.23039718 36.21928419 -35.95504163 32.15743589 -36.59375 25.7109375 C-36.67877492 17.31047571 -36.63949786 10.7220601 -30.609375 4.36328125 C-22.4657951 -3.0868497 -10.16964431 -4.67018001 0 0 Z " fill="#050505" transform="translate(313.2578125,532.8984375)"/>
<path d="M0 0 C5.33157143 2.33514563 8.58871416 6.45061327 11.515625 11.3828125 C12.515625 14.3828125 12.515625 14.3828125 12.515625 26.3828125 C2.285625 26.3828125 -7.944375 26.3828125 -18.484375 26.3828125 C-17.824375 28.6928125 -17.164375 31.0028125 -16.484375 33.3828125 C-11.81364442 34.93972269 -5.06689209 35.39912002 -0.484375 33.3828125 C-0.154375 32.3928125 0.175625 31.4028125 0.515625 30.3828125 C4.145625 30.3828125 7.775625 30.3828125 11.515625 30.3828125 C11.06027062 35.27787206 10.05555901 37.93364603 6.515625 41.3828125 C0.70591444 45.97967111 -5.72544289 46.03610862 -12.91015625 45.8359375 C-19.18240383 45.04076732 -22.50460809 42.41608662 -26.796875 38.0078125 C-31.38814858 30.86583138 -32.62949975 24.87402055 -31.484375 16.3828125 C-29.06284315 8.91124841 -25.31585402 4.40382599 -18.72265625 0.28125 C-13.13184392 -1.9628806 -5.76783029 -1.43288866 0 0 Z " fill="#090909" transform="translate(415.484375,531.6171875)"/>
<path d="M0 0 C11.88 0 23.76 0 36 0 C36.11511947 6.40575912 36.21456015 12.80789579 36.2746582 19.21386719 C36.29972256 21.39042354 36.33378331 23.56689639 36.37719727 25.74316406 C36.43820412 28.88106954 36.46629122 32.01785737 36.48828125 35.15625 C36.51408768 36.12115356 36.5398941 37.08605713 36.56648254 38.0802002 C36.56915505 44.59314101 35.29352075 49.00717896 31 54 C25.51161412 58.28094099 21.56259678 59.16839648 14.6875 59.25 C13.39199219 59.27578125 12.09648437 59.3015625 10.76171875 59.328125 C5.27355038 58.84940626 1.32438853 56.95285245 -2.25 52.75 C-6.62608456 47.29707787 -7.28033249 41.8681459 -7 35 C-2.71 35 1.58 35 6 35 C6.12375 36.60875 6.12375 36.60875 6.25 38.25 C6.75066512 41.93658586 6.75066512 41.93658586 8.5625 44.4375 C12.2027062 46.77096551 14.70699327 46.34071482 19 46 C20.485 45.505 20.485 45.505 22 45 C22.33 33.78 22.66 22.56 23 11 C15.41 11 7.82 11 0 11 C0 7.37 0 3.74 0 0 Z " fill="#040404" transform="translate(454,518)"/>
<path d="M0 0 C3.51650579 2.12801424 5.52727192 4.67954385 7.375 8.375 C7.375 9.695 7.375 11.015 7.375 12.375 C3.745 12.375 0.115 12.375 -3.625 12.375 C-3.955 11.385 -4.285 10.395 -4.625 9.375 C-6.24914378 9.18022261 -7.87436423 8.99440542 -9.5 8.8125 C-10.40492188 8.70808594 -11.30984375 8.60367188 -12.2421875 8.49609375 C-14.64153057 8.17825148 -14.64153057 8.17825148 -16.625 9.375 C-16.625 11.025 -16.625 12.675 -16.625 14.375 C-15.53960938 14.54515625 -14.45421875 14.7153125 -13.3359375 14.890625 C-11.89049711 15.13466039 -10.44519144 15.37949462 -9 15.625 C-7.93072266 15.78935547 -7.93072266 15.78935547 -6.83984375 15.95703125 C-1.02572027 16.97050232 3.07238916 18.9606591 7.2265625 23.31640625 C9.35498331 27.13163675 8.85672702 31.14268403 8.375 35.375 C7.04747624 39.1916308 5.51294846 40.27291814 2.25 42.6875 C-4.88244189 45.92228777 -15.04063075 45.95047338 -22.3984375 43.421875 C-26.23103559 41.17075791 -28.91153889 38.55156146 -30.625 34.375 C-30.625 33.055 -30.625 31.735 -30.625 30.375 C-28.83406809 30.29413853 -27.04210372 30.23587298 -25.25 30.1875 C-23.75339844 30.13529297 -23.75339844 30.13529297 -22.2265625 30.08203125 C-21.36804688 30.17871094 -20.50953125 30.27539062 -19.625 30.375 C-18.965 31.365 -18.305 32.355 -17.625 33.375 C-14.98059361 34.2564688 -13.34439248 34.53674818 -10.625 34.5625 C-9.6040625 34.58376953 -9.6040625 34.58376953 -8.5625 34.60546875 C-6.29885868 34.48440411 -6.29885868 34.48440411 -3.625 32.375 C-3.955 31.055 -4.285 29.735 -4.625 28.375 C-9.01580922 27.23664205 -13.33889793 26.25118955 -17.8125 25.5 C-22.01823964 24.66660459 -24.65538751 23.62301367 -27.625 20.375 C-29.95633375 16.37842786 -30.61043556 11.89943456 -29.625 7.375 C-23.64486587 -2.86522968 -10.48950296 -4.74101829 0 0 Z " fill="#050505" transform="translate(527.625,532.625)"/>
<path d="M0 0 C2.98168006 1.81239376 4.56155286 3.83654007 6 7 C7.03747294 12.14683839 6.60181782 15.83786904 4.1875 20.5 C1.22270448 23.88833773 -0.29249737 24.91881117 -4.8125 25.4375 C-9.64484674 25.33942654 -11.69263085 23.38803669 -15 20 C-17.08540153 15.82919693 -16.45427114 10.54271136 -16 6 C-12.19186366 -0.47383177 -7.11703824 -1.28411393 0 0 Z " fill="#F9F9F9" transform="translate(306,542)"/>
<path d="M0 0 C4.49630456 2.12982848 4.49630456 2.12982848 6 5 C6.8083935 10.75343121 7.27016225 16.95031482 4 22 C1.13639535 24.29088372 -0.79240629 24.96980455 -4.4375 25.5 C-9.6780754 24.76448065 -12.15914452 22.42658222 -15.375 18.1875 C-16.86338389 12.9781564 -16.70363809 9.31022264 -14.1875 4.625 C-9.96734064 -0.43919123 -6.2430659 -0.95557131 0 0 Z " fill="#F7F7F7" transform="translate(358,542)"/>
<path d="M0 0 C3.22240098 1.05208987 4.49852114 2.77056714 6.09375 5.68359375 C6.09375 6.67359375 6.09375 7.66359375 6.09375 8.68359375 C-0.17625 8.68359375 -6.44625 8.68359375 -12.90625 8.68359375 C-11.90625 3.68359375 -11.90625 3.68359375 -9.90625 1.30859375 C-6.22786671 -0.68386386 -4.0606814 -0.65647683 0 0 Z " fill="#F9F9F9" transform="translate(409.90625,541.31640625)"/>
</svg>
