<?xml version="1.0" encoding="UTF-8"?>
<svg version="1.1" xmlns="http://www.w3.org/2000/svg" width="744" height="744">
<path d="M0 0 C245.52 0 491.04 0 744 0 C744 245.52 744 491.04 744 744 C498.48 744 252.96 744 0 744 C0 498.48 0 252.96 0 0 Z " fill="#FEFEFE" transform="translate(0,0)"/>
<path d="M0 0 C0.85164346 -0.00297112 1.70328693 -0.00594224 2.58073777 -0.0090034 C5.45114841 -0.01771548 8.32151747 -0.01920076 11.19194031 -0.02069092 C13.24321075 -0.02531732 15.29448033 -0.03034174 17.3457489 -0.03573608 C22.9304985 -0.0488793 28.51523606 -0.05530879 34.09999871 -0.05974674 C37.58659735 -0.0626744 41.07319268 -0.06677861 44.55978966 -0.07125092 C55.46116379 -0.08493095 66.36253038 -0.09459511 77.2639125 -0.09845281 C89.86161271 -0.10293485 102.45920448 -0.12048745 115.05687171 -0.1494534 C124.78514973 -0.17104772 134.51339719 -0.18115589 144.24169892 -0.18249393 C150.05624853 -0.18354358 155.87069628 -0.18948533 161.68522072 -0.20731354 C167.15414648 -0.22375529 172.6228934 -0.22596867 178.09183502 -0.21717453 C180.10060034 -0.21640206 182.10937511 -0.22077436 184.11811638 -0.23063278 C186.85776758 -0.24329112 189.5967795 -0.23750882 192.33642578 -0.22705078 C193.13370553 -0.23510719 193.93098528 -0.24316359 194.75242501 -0.25146413 C200.46016685 -0.20041146 203.52172606 0.96686578 207.64737892 4.8040781 C209.45168968 8.28421803 209.27174013 11.69372982 209.23963928 15.52226257 C209.24431925 16.37561489 209.24899923 17.2289672 209.25382102 18.10817868 C209.26580336 20.97252462 209.25630109 23.83639499 209.24687195 26.70074463 C209.25093624 28.75231201 209.25627731 30.8038772 209.26280212 32.85543823 C209.27649931 38.43185993 209.27116689 44.00811545 209.26166487 49.58454013 C209.25407971 55.41584652 209.26111079 61.2471385 209.26582336 67.07844543 C209.27128468 76.87298136 209.26407987 86.66744947 209.24980164 96.4619751 C209.23347899 107.78981287 209.23875937 119.11748862 209.25528085 130.44532245 C209.26889041 140.16516013 209.27081782 149.884949 209.26296484 159.60479313 C209.25828484 165.4125907 209.25767242 171.22031209 209.26757431 177.02810478 C209.27623378 182.48887217 209.27024057 187.94943054 209.25289154 193.41017532 C209.24892107 195.41570882 209.25007029 197.42125988 209.25667953 199.42678642 C209.264863 202.16197516 209.25461205 204.89649179 209.23963928 207.63163757 C209.24633145 208.42755308 209.25302361 209.22346859 209.25991857 210.04350275 C209.21158201 214.58796343 208.79335498 217.60363112 205.85868835 221.14044189 C201.68886781 224.5973721 197.55879275 224.56968957 192.36334229 224.53485107 C191.50984111 224.54094218 190.65633994 224.54703328 189.7769751 224.55330896 C186.91809112 224.56995311 184.05965185 224.56516114 181.20072937 224.56036377 C179.15063514 224.56770324 177.10054505 224.57628911 175.05046082 224.58602905 C169.48231327 224.60826567 163.91431361 224.61117468 158.34612775 224.60928154 C153.69886519 224.60916195 149.05163408 224.61772143 144.40438026 224.62605906 C133.44178132 224.64530057 122.47925854 224.64817408 111.51664734 224.64141846 C100.20407026 224.63477554 88.89181907 224.65765059 77.57930809 224.69473219 C67.86877134 224.7254087 58.15833953 224.73679148 48.44775528 224.73289537 C42.64713379 224.73082591 36.84676591 224.73633791 31.04619026 224.76078796 C25.59187376 224.78301875 20.13808796 224.78120755 14.68376923 224.76086044 C12.68187233 224.75744401 10.67993995 224.76256662 8.67809105 224.77684402 C5.94511198 224.79499122 3.21394199 224.78232164 0.48101807 224.76190186 C-0.31130248 224.7744197 -1.10362303 224.78693755 -1.91995329 224.79983473 C-5.9256339 224.73566198 -8.42703135 224.31241092 -11.61770725 221.78910065 C-15.70624742 217.4979575 -15.29172094 213.49877247 -15.29521179 207.88560486 C-15.29959405 207.03381254 -15.3039763 206.18202021 -15.30849135 205.304416 C-15.32188612 202.43945302 -15.3280597 199.5745208 -15.33418274 196.70953369 C-15.34208306 194.65973776 -15.35035197 192.60994322 -15.35896301 190.56015015 C-15.38518737 183.8200005 -15.40048932 177.07984462 -15.41474915 170.33966064 C-15.42010832 168.02090768 -15.42548583 165.70215475 -15.4308815 163.38340187 C-15.45250925 153.74036415 -15.47124727 144.09732811 -15.48250389 134.45427227 C-15.49875221 120.62530568 -15.53195282 106.79661965 -15.58890474 92.96775883 C-15.62756942 83.24878897 -15.64713237 73.52989426 -15.65242445 63.81084949 C-15.65608215 58.00346366 -15.6681484 52.19637705 -15.70052719 46.38907433 C-15.73054711 40.92661393 -15.73694121 35.46463476 -15.72514343 30.00210953 C-15.7249222 27.99697516 -15.73326801 25.99181885 -15.75079727 23.98676109 C-15.77342729 21.24933536 -15.76522291 18.51366382 -15.74931335 15.77622986 C-15.76319544 14.98254507 -15.77707753 14.18886029 -15.79138029 13.37112445 C-15.70939392 7.6468914 -14.2453649 5.14258923 -10.14131165 1.14044189 C-6.95293265 -0.4537476 -3.50187835 -0.00377416 0 0 Z " fill="#000000" transform="translate(275.1413116455078,147.85955810546875)"/>
<path d="M0 0 C245.52 0 491.04 0 744 0 C744 245.52 744 491.04 744 744 C498.48 744 252.96 744 0 744 C0 498.48 0 252.96 0 0 Z M9.80056715 9.8018924 C7.03422603 14.71537567 7.3163767 19.24814495 7.37638092 24.79892731 C7.36971291 26.01376248 7.3630449 27.22859765 7.35617483 28.48024601 C7.34269313 31.86457682 7.35171521 35.2475154 7.37006495 38.63173568 C7.38451881 42.30866433 7.37003061 45.98549551 7.35917997 49.66242075 C7.3441767 56.11065686 7.34782999 62.55867528 7.36359787 69.00690651 C7.38698045 78.59544912 7.38182814 88.18382714 7.37088897 97.77238439 C7.3522807 114.89535587 7.3620329 132.0182235 7.38336661 149.14118652 C7.40190447 164.12552966 7.41034689 179.10983788 7.40879822 194.0941925 C7.40870654 195.08713382 7.40861487 196.08007514 7.40852041 197.10310559 C7.40812727 201.13351405 7.40767765 205.16392249 7.40714902 209.19433093 C7.40227504 247.02278317 7.42495935 284.85117344 7.46110525 322.67960642 C7.49309987 356.30708768 7.50514905 389.93451599 7.49902344 423.56201172 C7.49863659 425.72113818 7.49825014 427.88026464 7.49786407 430.0393911 C7.49767272 431.10680882 7.49748138 432.17422655 7.49728423 433.27399026 C7.49632993 438.6469368 7.49541556 444.01988334 7.49454498 449.3928299 C7.49437119 450.45276959 7.4941974 451.51270929 7.49401833 452.60476837 C7.48966566 480.68194229 7.49967212 508.75911048 7.51438284 536.83628035 C7.51490298 537.83474409 7.51542312 538.83320783 7.51595903 539.86192806 C7.51647837 540.85859533 7.51699771 541.8552626 7.5175328 542.8821319 C7.51805054 543.87700353 7.51856828 544.87187516 7.51910171 545.89689441 C7.5201498 547.90052128 7.52121001 549.90414814 7.52228243 551.907775 C7.52967085 565.89145662 7.53174981 579.87513015 7.53028842 593.85881348 C7.52844479 611.87716422 7.53647301 629.89546502 7.56192988 647.91379941 C7.57511985 657.44869893 7.58009129 666.98351871 7.57329134 676.51842542 C7.56959099 682.88034094 7.57674167 689.24218342 7.59288373 695.60407941 C7.60179303 699.23356274 7.6059069 702.86288152 7.59695655 706.49236852 C7.58745448 710.39536815 7.60095618 714.29808935 7.61688995 718.20107269 C7.61043815 719.33682407 7.60398635 720.47257544 7.59733903 721.64274353 C7.60536204 722.680459 7.61338505 723.71817448 7.62165117 724.78733587 C7.62230193 725.68014213 7.62295269 726.57294839 7.62362316 727.49280939 C8.08697771 730.57939193 9.19314279 732.47625141 11 735 C13.46720783 736.23360391 15.0797692 736.12605837 17.84006864 736.1276505 C18.87104223 736.13066647 19.90201583 736.13368244 20.96423104 736.1367898 C22.67967967 736.13413559 22.67967967 736.13413559 24.42978382 736.13142776 C25.64115746 736.1334804 26.8525311 736.13553303 28.10061303 736.13764787 C31.4887388 736.14235582 34.87681191 736.14253775 38.2649371 736.14087028 C41.94125807 736.14014185 45.61757179 736.14515581 49.2938897 736.1494453 C56.5969285 736.15704219 63.89995999 736.15921921 71.20300233 736.15977435 C79.94571879 736.16068632 88.68842845 736.16734887 97.431142 736.17412117 C118.56450522 736.19020037 139.69786774 736.19608649 160.83123598 736.20086992 C170.82315111 736.2032038 180.81506566 736.20680621 190.80698033 736.2105653 C224.99157819 736.22340208 259.17617573 736.2341215 293.36077595 736.2375679 C295.50769435 736.23778954 297.65461275 736.23801132 299.80153115 736.23823325 C301.95371722 736.2384539 304.10590329 736.23867438 306.25808936 736.2388947 C310.57594955 736.23933726 314.89380974 736.23978437 319.21166992 736.24023438 C320.28225257 736.24034377 321.35283521 736.24045316 322.45585975 736.24056586 C357.18335173 736.24419792 391.91082286 736.26012295 426.63830686 736.28342474 C463.3302955 736.30799981 500.02227222 736.32173965 536.71426934 736.32293582 C540.73917687 736.32310728 544.7640844 736.32332271 548.78899193 736.32357025 C550.2756251 736.3236539 550.2756251 736.3236539 551.79229126 736.32373925 C567.76759625 736.32489168 583.7428799 736.33592997 599.71817767 736.35045731 C615.76387933 736.36479679 631.80955351 736.36807375 647.85525981 736.36001733 C657.39681847 736.35554909 666.9382887 736.35946918 676.4798358 736.37525584 C682.84628049 736.38496723 689.21266287 736.38386456 695.57910691 736.37381961 C699.2112434 736.36839967 702.84320945 736.36780636 706.47533218 736.38032833 C710.38120136 736.3936823 714.28681478 736.38402046 718.19269276 736.3719368 C719.32930167 736.37953199 720.46591059 736.38712718 721.63696221 736.39495254 C722.67544635 736.38795443 723.7139305 736.38095633 724.78388387 736.37374616 C725.67736135 736.37399036 726.57083883 736.37423456 727.49139138 736.37448616 C730.57992042 735.91342923 732.47526606 734.80806178 735 733 C736.23412317 730.53175367 736.12697974 728.91508309 736.12995183 726.15351933 C736.13348025 725.12111232 736.13700867 724.08870531 736.14064401 723.02501324 C736.13944624 721.87977648 736.13824846 720.73453971 736.13701439 719.55459881 C736.14099213 717.73500579 736.14099213 717.73500579 736.14505023 715.87865332 C736.15142764 712.48579414 736.15327949 709.09298542 736.153273 705.7001237 C736.1543394 702.01866802 736.16112621 698.33722227 736.1671797 694.65577203 C736.17827259 687.34253271 736.18390822 680.0292982 736.18788858 672.71605195 C736.19289087 663.96112262 736.20361725 655.20620264 736.21437032 646.45127882 C736.24002016 625.28840081 736.25503895 604.12551915 736.26788078 582.96263005 C736.27213339 575.95562972 736.27669906 568.94862965 736.2814641 561.94162965 C736.3067205 524.71044634 736.32877566 487.47926261 736.34119225 450.24807262 C736.34411373 441.61907639 736.34708122 432.99008018 736.35009766 424.36108398 C736.35046857 423.2890065 736.35083947 422.21692901 736.35122162 421.11236433 C736.36338292 386.33635539 736.39433586 351.56039699 736.43601918 316.78441179 C736.47876953 281.05323134 736.50542846 245.32207758 736.51066696 209.59087085 C736.51140746 204.54831056 736.51231815 199.50575032 736.51332474 194.46319008 C736.51351535 193.47071815 736.51370597 192.47824622 736.51390236 191.45569938 C736.51742132 175.45805913 736.53774392 159.46048202 736.56412137 143.46286498 C736.59021642 127.39474843 736.59801448 111.32670511 736.58702008 95.2585704 C736.58102662 85.70361934 736.589042 76.14891602 736.61685092 66.59400228 C736.63403845 60.21863721 736.63320879 53.84344203 736.61748323 47.46807354 C736.60903129 43.83075076 736.60862911 40.19390241 736.63009469 36.55662265 C736.65299391 32.64516604 736.63753112 28.73441259 736.61803246 24.82292461 C736.63088168 23.68471135 736.6437309 22.54649809 736.65696949 21.37379351 C736.60645902 16.80334799 736.46405708 13.82478926 734.19978201 9.80039257 C729.28180096 7.0332364 724.74073244 7.31361858 719.18545532 7.3707943 C717.36067001 7.35989349 717.36067001 7.35989349 715.49902034 7.34877247 C712.10996408 7.33362638 708.72228667 7.34097776 705.33332512 7.35766223 C701.65125488 7.37031588 697.96929562 7.35405815 694.28724098 7.34144557 C687.8300003 7.32335845 681.37296848 7.32395231 674.91571808 7.33668137 C665.31376481 7.35555827 655.71198843 7.34594371 646.11003643 7.33063983 C628.96314613 7.30427897 611.81634883 7.30660583 594.66944963 7.32103439 C579.66416493 7.33359927 564.65891437 7.33690172 549.65362549 7.33092117 C548.65929782 7.33053925 547.66497016 7.33015732 546.64051135 7.32976382 C542.60447594 7.3282072 538.56844055 7.3266152 534.53240518 7.324965 C496.65111984 7.30966102 458.76989384 7.32355153 420.88861766 7.35044949 C387.21412478 7.37417852 353.53972643 7.37205542 319.86523438 7.34814453 C282.05439236 7.3213865 244.24360278 7.31074626 206.43275261 7.32620585 C202.40395992 7.3278095 198.37516722 7.3293737 194.34637451 7.33092117 C193.35434208 7.33131656 192.36230966 7.33171195 191.34021564 7.33211931 C176.34229493 7.33781294 161.34441206 7.33114367 146.34649658 7.31852341 C129.29763424 7.30424909 112.24887967 7.30775415 95.2000308 7.33492713 C85.65174505 7.34964237 76.10369251 7.35051859 66.55541266 7.33169625 C60.18457023 7.32051979 53.81391555 7.32739738 47.44310104 7.3492201 C43.80843657 7.36116149 40.17423682 7.36508423 36.53958631 7.34719019 C32.63098861 7.32814287 28.72313199 7.34744538 24.81454468 7.3707943 C23.67718896 7.35908847 22.53983324 7.34738263 21.36801219 7.33532208 C16.79955038 7.39035379 13.82227851 7.53689998 9.80056715 9.8018924 Z " fill="#000000" transform="translate(0,0)"/>
<path d="M0 0 C1.36777588 0.00302124 1.36777588 0.00302124 2.76318359 0.00610352 C11.47620237 0.13425872 19.52519791 1.55006597 27.8125 4.3125 C27.8125 11.9025 27.8125 19.4925 27.8125 27.3125 C24.52473958 26.04296875 21.23697917 24.7734375 17.94921875 23.50390625 C12.49912629 21.43382132 8.26505112 21.09730786 2.5 21.0625 C1.65759766 21.041875 0.81519531 21.02125 -0.05273438 21 C-5.20570398 20.96776876 -8.71964324 21.4586132 -13.1875 24.3125 C-15.55790308 26.68290308 -15.53215793 27.37552753 -15.625 30.625 C-15.66496094 31.38425781 -15.70492188 32.14351563 -15.74609375 32.92578125 C-14.90386999 36.52437367 -12.98135792 37.96277439 -10.1875 40.3125 C-7.12224097 42.14615511 -7.12224097 42.14615511 -3.75 43.6875 C-3.14381836 43.98221191 -2.53763672 44.27692383 -1.91308594 44.58056641 C1.2028256 46.09352706 4.34018845 47.55547176 7.48828125 49 C18.28903162 54.09937066 27.34322175 59.84782971 31.8125 71.3125 C34.31627063 79.42403089 33.61960803 88.45889145 30.06640625 96.09765625 C24.82496533 105.35590236 17.03119979 109.47798589 7.1484375 112.734375 C-9.11284562 116.75890661 -26.95607765 114.84025243 -42.1875 108.3125 C-42.1875 100.3925 -42.1875 92.4725 -42.1875 84.3125 C-40.8675 84.9725 -39.5475 85.6325 -38.1875 86.3125 C-36.08968581 87.34632477 -33.98484066 88.36594577 -31.875 89.375 C-30.78574219 89.90222656 -29.69648438 90.42945313 -28.57421875 90.97265625 C-20.31775744 94.23905328 -9.05744282 94.9517227 -0.5625 92.0625 C3.49934724 89.99816585 3.49934724 89.99816585 5.8125 86.3125 C6.51790945 82.25639566 6.13019834 80.76704373 3.75390625 77.3671875 C0.74836514 73.92025085 -2.63921975 72.19108237 -6.75 70.3125 C-7.45527832 69.97275146 -8.16055664 69.63300293 -8.88720703 69.28295898 C-12.0903437 67.74233368 -15.31445088 66.25484867 -18.55078125 64.78515625 C-28.2130621 60.26105328 -36.70002587 54.26298612 -41.1875 44.3125 C-43.67254646 36.75453111 -43.53991415 26.07066112 -40.25 18.8125 C-35.01974676 10.06103401 -26.97716405 4.46691994 -17.26049805 1.77954102 C-11.47043157 0.34588919 -5.9513777 -0.03579859 0 0 Z " fill="#FBFBFB" transform="translate(432.1875,238.6875)"/>
<path d="M0 0 C29.7 0 59.4 0 90 0 C90 6.6 90 13.2 90 20 C79.44 20 68.88 20 58 20 C58 49.7 58 79.4 58 110 C49.42 110 40.84 110 32 110 C32 80.3 32 50.6 32 20 C21.44 20 10.88 20 0 20 C0 13.4 0 6.8 0 0 Z " fill="#FAFAFA" transform="translate(291,241)"/>
<path d="M0 0 C5.53393129 4.0246773 10.52909694 9.08154935 11.75 16 C12.55275207 23.92558394 11.53803595 30.92204904 7.75 38 C5.86554565 40.17966914 4.19596344 41.38670497 1.75 43 C0.76 43.66 -0.23 44.32 -1.25 45 C-14.14421744 46.37751888 -14.14421744 46.37751888 -19.0625 43.0625 C-21.25 41 -21.25 41 -22.25 40 C-22.58 46.6 -22.91 53.2 -23.25 60 C-27.54 60 -31.83 60 -36.25 60 C-36.25 40.2 -36.25 20.4 -36.25 0 C-32.95 0 -29.65 0 -26.25 0 C-25.92 2.97 -25.59 5.94 -25.25 9 C-24.734375 8.0925 -24.21875 7.185 -23.6875 6.25 C-18.04772898 -2.01383115 -9.04109612 -2.78187573 0 0 Z " fill="#060606" transform="translate(288.25,532)"/>
<path d="M0 0 C5.47672452 3.1142159 9.80913327 7.45570445 11.74609375 13.578125 C13.23107096 21.0950008 13.07580736 28.9971843 9.53125 35.87109375 C6.60226182 40.10280051 3.07242628 43.18419124 -1.8125 44.8125 C-14.19672825 45.82109536 -14.19672825 45.82109536 -18.5625 42.875 C-20.8125 40.8125 -20.8125 40.8125 -21.8125 39.8125 C-22.1425 46.4125 -22.4725 53.0125 -22.8125 59.8125 C-26.7725 59.8125 -30.7325 59.8125 -34.8125 59.8125 C-34.8125 40.0125 -34.8125 20.2125 -34.8125 -0.1875 C-31.5125 -0.1875 -28.2125 -0.1875 -24.8125 -0.1875 C-24.4825 2.1225 -24.1525 4.4325 -23.8125 6.8125 C-23.25820313 6.31878906 -22.70390625 5.82507813 -22.1328125 5.31640625 C-21.40835938 4.67574219 -20.68390625 4.03507813 -19.9375 3.375 C-19.21820312 2.73691406 -18.49890625 2.09882812 -17.7578125 1.44140625 C-12.68133286 -2.80938091 -6.00216637 -1.86952723 0 0 Z " fill="#030303" transform="translate(537.8125,532.1875)"/>
<path d="M0 0 C5.32324607 2.35092774 8.5802028 6.45334185 11.5078125 11.38671875 C12.5078125 14.38671875 12.5078125 14.38671875 12.5078125 26.38671875 C2.2778125 26.38671875 -7.9521875 26.38671875 -18.4921875 26.38671875 C-17.8321875 28.69671875 -17.1721875 31.00671875 -16.4921875 33.38671875 C-13.69469909 34.31921489 -11.94897869 34.52148027 -9.0546875 34.51171875 C-8.29285156 34.51429688 -7.53101563 34.516875 -6.74609375 34.51953125 C-4.48167504 34.3860993 -2.61449325 34.19832578 -0.4921875 33.38671875 C-0.1621875 32.39671875 0.1678125 31.40671875 0.5078125 30.38671875 C4.1378125 30.38671875 7.7678125 30.38671875 11.5078125 30.38671875 C11.05245812 35.28177831 10.04774651 37.93755228 6.5078125 41.38671875 C0.69810194 45.98357736 -5.73325539 46.04001487 -12.91796875 45.83984375 C-19.19021633 45.04467357 -22.51242059 42.41999287 -26.8046875 38.01171875 C-31.40291398 30.85892201 -32.61848189 24.88807543 -31.4921875 16.38671875 C-29.21710906 8.87685335 -25.15183078 4.37074376 -18.4921875 0.38671875 C-13.37900646 -2.16987177 -5.425899 -1.33521339 0 0 Z " fill="#090909" transform="translate(335.4921875,531.61328125)"/>
<path d="M0 0 C4.29 0 8.58 0 13 0 C14.28903935 4.05453158 15.57055373 8.11134192 16.84521484 12.17041016 C17.27968727 13.55028939 17.71619223 14.92953039 18.15478516 16.30810547 C18.78566197 18.29229173 19.4091403 20.2786751 20.03125 22.265625 C20.40830078 23.45961914 20.78535156 24.65361328 21.17382812 25.88378906 C22 29 22 29 22 33 C22.99 32.505 22.99 32.505 24 32 C24.81681999 29.48866242 24.81681999 29.48866242 25.4375 26.42578125 C25.69273437 25.28302734 25.94796875 24.14027344 26.2109375 22.96289062 C26.47132813 21.75826172 26.73171875 20.55363281 27 19.3125 C27.51816162 16.95383856 28.03891314 14.5957443 28.5625 12.23828125 C28.79066406 11.18680908 29.01882812 10.13533691 29.25390625 9.05200195 C30.00850567 5.96520636 30.9541181 2.99933568 32 0 C35.96 0 39.92 0 44 0 C41.85619522 10.40272482 39.39968448 20.68561216 36.72094727 30.96191406 C36.27861186 32.66696372 35.84151157 34.37337933 35.40942383 36.08105469 C34.77498123 38.58830697 34.12558005 41.09125525 33.47265625 43.59375 C33.28397476 44.35006714 33.09529327 45.10638428 32.90089417 45.88562012 C31.37030536 51.63992417 29.35738837 56.38900537 24.2734375 59.86328125 C20.23270878 61.266446 16.85906817 61.33680258 12.625 61.1875 C11.88894531 61.17396484 11.15289062 61.16042969 10.39453125 61.14648438 C8.59603257 61.11144869 6.79791578 61.05765288 5 61 C5 57.37 5 53.74 5 50 C9.95 49.67 14.9 49.34 20 49 C20.33 47.02 20.66 45.04 21 43 C18.36 43 15.72 43 13 43 C10.32045617 36.01608257 8.08494755 28.9908671 6.08203125 21.78515625 C4.67863142 16.87579004 3.14040108 12.01323603 1.57446289 7.15356445 C0 2.21117387 0 2.21117387 0 0 Z " fill="#060606" transform="translate(203,532)"/>
<path d="M0 0 C5.6047918 2.55151474 9.09980251 6.46551823 11.80078125 11.99609375 C12.48828125 14.30859375 12.48828125 14.30859375 12.48828125 17.30859375 C8.19828125 17.30859375 3.90828125 17.30859375 -0.51171875 17.30859375 C-1.17171875 15.32859375 -1.83171875 13.34859375 -2.51171875 11.30859375 C-6.23905663 10.96156574 -9.79348818 10.81104635 -13.51171875 11.30859375 C-16.37883601 13.90900243 -17.28428144 15.63465518 -17.8046875 19.46484375 C-17.98262858 24.41330043 -17.09963128 28.6441007 -15.51171875 33.30859375 C-11.55171875 33.30859375 -7.59171875 33.30859375 -3.51171875 33.30859375 C-2.52171875 31.32859375 -1.53171875 29.34859375 -0.51171875 27.30859375 C3.77828125 27.30859375 8.06828125 27.30859375 12.48828125 27.30859375 C11.14067918 34.83270528 9.70023882 38.60762943 3.73828125 43.62109375 C-2.47161421 46.92853807 -12.29213211 46.52198054 -18.9296875 44.61328125 C-24.98604198 41.4313555 -28.89386715 35.79532198 -31.0078125 29.44140625 C-32.65953868 22.45037915 -31.6436208 15.73661744 -28.51171875 9.30859375 C-21.87872516 -0.78764428 -11.53287546 -3.17467956 0 0 Z " fill="#080808" transform="translate(426.51171875,531.69140625)"/>
<path d="M0 0 C3.51650579 2.12801424 5.52727192 4.67954385 7.375 8.375 C7.375 9.695 7.375 11.015 7.375 12.375 C3.745 12.375 0.115 12.375 -3.625 12.375 C-3.955 11.385 -4.285 10.395 -4.625 9.375 C-6.24914378 9.18022261 -7.87436423 8.99440542 -9.5 8.8125 C-10.40492188 8.70808594 -11.30984375 8.60367188 -12.2421875 8.49609375 C-14.64153057 8.17825148 -14.64153057 8.17825148 -16.625 9.375 C-17.28055119 11.90233235 -17.28055119 11.90233235 -17.625 14.375 C-16.46742188 14.54515625 -15.30984375 14.7153125 -14.1171875 14.890625 C-12.57800202 15.13464221 -11.03894606 15.37947736 -9.5 15.625 C-8.35917969 15.78935547 -8.35917969 15.78935547 -7.1953125 15.95703125 C-1.20336663 16.93847066 2.94397741 18.8260164 7.2265625 23.31640625 C9.35498331 27.13163675 8.85672702 31.14268403 8.375 35.375 C7.04747624 39.1916308 5.51294846 40.27291814 2.25 42.6875 C-4.88244189 45.92228777 -15.04063075 45.95047338 -22.3984375 43.421875 C-26.23103559 41.17075791 -28.91153889 38.55156146 -30.625 34.375 C-30.625 33.055 -30.625 31.735 -30.625 30.375 C-28.83406809 30.29413853 -27.04210372 30.23587298 -25.25 30.1875 C-23.75339844 30.13529297 -23.75339844 30.13529297 -22.2265625 30.08203125 C-21.36804688 30.17871094 -20.50953125 30.27539062 -19.625 30.375 C-18.965 31.365 -18.305 32.355 -17.625 33.375 C-14.98059361 34.2564688 -13.34439248 34.53674818 -10.625 34.5625 C-9.6040625 34.58376953 -9.6040625 34.58376953 -8.5625 34.60546875 C-6.29885868 34.48440411 -6.29885868 34.48440411 -3.625 32.375 C-3.955 31.055 -4.285 29.735 -4.625 28.375 C-9.01580922 27.23664205 -13.33889793 26.25118955 -17.8125 25.5 C-22.01823964 24.66660459 -24.65538751 23.62301367 -27.625 20.375 C-29.95633375 16.37842786 -30.61043556 11.89943456 -29.625 7.375 C-23.64486587 -2.86522968 -10.48950296 -4.74101829 0 0 Z " fill="#050505" transform="translate(382.625,532.625)"/>
<path d="M0 0 C14.85 0 29.7 0 45 0 C45 3.63 45 7.26 45 11 C39.72 11 34.44 11 29 11 C29 26.51 29 42.02 29 58 C24.71 58 20.42 58 16 58 C16 42.49 16 26.98 16 11 C10.72 11 5.44 11 0 11 C0 7.37 0 3.74 0 0 Z " fill="#000000" transform="translate(160,518)"/>
<path d="M0 0 C3.63 0 7.26 0 11 0 C11 3.63 11 7.26 11 11 C15.29 11 19.58 11 24 11 C24 13.97 24 16.94 24 20 C20.04 20 16.08 20 12 20 C12.33 27.92 12.66 35.84 13 44 C16.63 44.33 20.26 44.66 24 45 C24 48.3 24 51.6 24 55 C21.60347472 55.08139142 19.20974564 55.14067009 16.8125 55.1875 C15.80219727 55.22520508 15.80219727 55.22520508 14.77148438 55.26367188 C10.26690018 55.32959262 7.49547239 54.87968969 4 52 C-0.671541 47.21723184 -0.42421479 42.73284844 -0.3515625 36.23046875 C-0.31804688 35.04066406 -0.28453125 33.85085938 -0.25 32.625 C-0.23195313 31.41199219 -0.21390625 30.19898438 -0.1953125 28.94921875 C-0.14832216 25.9653321 -0.08263372 22.98307721 0 20 C-2.31 20 -4.62 20 -7 20 C-7 17.03 -7 14.06 -7 11 C-4.69 11 -2.38 11 0 11 C0 7.37 0 3.74 0 0 Z " fill="#040404" transform="translate(559,521)"/>
<path d="M0 0 C3.63 0 7.26 0 11 0 C11.33 2.64 11.66 5.28 12 8 C12.86625 6.576875 12.86625 6.576875 13.75 5.125 C16.8 0.88888889 16.8 0.88888889 20 0 C22.69087876 -0.14489347 25.30035311 -0.08998823 28 0 C28 3.63 28 7.26 28 11 C25.81901042 11.09765625 23.63802083 11.1953125 21.45703125 11.29296875 C18.78737027 12.06118598 16.89605481 12.98503658 14.99731445 15.04956055 C12.58315835 19.77090525 13.21160905 25.63441153 13.1875 30.8125 C13.16236328 32.07771484 13.13722656 33.34292969 13.11132812 34.64648438 C13.05250729 37.76398889 13.02337947 40.88202828 13 44 C8.71 44 4.42 44 0 44 C0 29.48 0 14.96 0 0 Z " fill="#0D0D0D" transform="translate(445,532)"/>
<path d="M0 0 C5.94 0 11.88 0 18 0 C18 14.52 18 29.04 18 44 C14.04 44 10.08 44 6 44 C6 32.45 6 20.9 6 9 C4.02 9 2.04 9 0 9 C0 6.03 0 3.06 0 0 Z " fill="#000000" transform="translate(474,532)"/>
<path d="M0 0 C3.55410006 0.86483101 5.21403929 2.68489799 7.34375 5.5703125 C9.19881839 9.28044928 8.79709699 13.52124073 8.34375 17.5703125 C6.70844994 20.84091262 5.4021808 22.79412991 2.46875 24.9453125 C-2.02268685 26.26632334 -4.75769696 26.05414875 -8.90625 23.8203125 C-12.14137227 21.17339428 -13.3477757 19.34107361 -14.0625 15.23828125 C-14.23649212 10.63473976 -14.03151594 7.25994689 -11.28125 3.4453125 C-7.87614553 0.0321199 -4.69573735 -0.32530711 0 0 Z " fill="#F8F8F8" transform="translate(528.65625,541.4296875)"/>
<path d="M0 0 C3.3403486 2.04511139 4.60306392 3.52209962 5.62109375 7.3125 C6.47295565 13.07354546 6.04644007 17.02414789 3 22 C0.29013532 24.27042717 -1.45183064 24.91835776 -4.9375 25.4375 C-8.83530088 24.8806713 -10.93989651 23.43417323 -14 21 C-17.10577027 16.3413446 -16.61853384 11.45635205 -16 6 C-12.10583224 -0.62008519 -7.202717 -0.95130225 0 0 Z " fill="#F9F9F9" transform="translate(281,542)"/>
<path d="M0 0 C4.21409915 0.10857582 4.21409915 0.10857582 6.6875 2 C7.87166765 5.21416934 7.53387263 7.11396333 6.5625 10.375 C5.4375 12.25 5.4375 12.25 3.5625 13.375 C0.17931143 13.73748449 -2.30534865 13.95933618 -5.375 12.375 C-7.15703537 9.02058048 -6.73608742 6.13720155 -6.4375 2.375 C-4.03403621 -0.02846379 -3.29849805 0.05416253 0 0 Z " fill="#0A0A0A" transform="translate(484.4375,514.625)"/>
<path d="M0 0 C3.22240098 1.05208987 4.49852114 2.77056714 6.09375 5.68359375 C6.09375 6.67359375 6.09375 7.66359375 6.09375 8.68359375 C-0.17625 8.68359375 -6.44625 8.68359375 -12.90625 8.68359375 C-11.90625 3.68359375 -11.90625 3.68359375 -9.90625 1.30859375 C-6.22786671 -0.68386386 -4.0606814 -0.65647683 0 0 Z " fill="#F9F9F9" transform="translate(329.90625,541.31640625)"/>
</svg>
