<?xml version="1.0" standalone="no"?>
<!DOCTYPE svg PUBLIC "-//W3C//DTD SVG 20010904//EN"
 "http://www.w3.org/TR/2001/REC-SVG-20010904/DTD/svg10.dtd">
<svg version="1.0" xmlns="http://www.w3.org/2000/svg"
 width="744.000000pt" height="744.000000pt" viewBox="0 0 744.000000 744.000000"
 preserveAspectRatio="xMidYMid meet">

<g transform="translate(0.000000,744.000000) scale(0.100000,-0.100000)"
fill="#000000" stroke="none">
<path d="M95 7426 c-41 -18 -83 -69 -90 -109 -3 -18 -4 -1648 -3 -3624 l3
-3592 21 -27 c11 -15 33 -37 48 -48 l27 -21 3619 0 3619 0 27 21 c15 11 37 33
48 48 l21 27 0 3619 0 3619 -21 27 c-11 15 -33 37 -48 48 l-27 21 -3607 2
c-2984 2 -3612 0 -3637 -11z m7240 -91 l25 -24 0 -3591 0 -3591 -25 -24 -24
-25 -3591 0 -3591 0 -24 25 -25 24 0 3591 0 3591 25 24 24 25 3591 0 3591 0
24 -25z"/>
<path d="M3048 5474 c-155 -37 -295 -151 -369 -299 -33 -68 -79 -268 -79 -348
0 -28 7 -90 15 -137 46 -259 153 -398 365 -471 94 -33 277 -33 370 0 163 57
264 161 316 325 26 84 24 96 -22 96 -29 0 -49 -25 -73 -91 -71 -189 -215 -276
-442 -267 -87 3 -103 7 -172 41 -150 74 -234 215 -253 426 l-7 71 502 0 501 0
0 74 c0 179 -58 336 -164 440 -134 132 -313 183 -488 140z m230 -88 c70 -19
137 -60 194 -118 71 -73 112 -169 133 -315 l7 -43 -451 0 -451 0 0 36 c0 107
63 245 151 329 112 107 271 149 417 111z"/>
<path d="M3796 5452 c-3 -5 94 -137 215 -295 l220 -287 -44 -63 c-25 -34 -133
-179 -240 -322 l-195 -260 45 -3 c29 -2 53 3 69 13 14 9 76 85 138 168 62 84
152 206 200 271 l89 120 22 -26 c13 -15 103 -138 201 -273 112 -156 188 -252
206 -261 17 -9 48 -14 73 -12 l44 3 -235 313 c-129 172 -234 321 -234 331 0
11 47 79 103 153 227 295 318 419 312 428 -8 13 -45 13 -84 -1 -26 -9 -71 -62
-218 -258 -101 -135 -187 -245 -189 -244 -3 1 -83 107 -178 235 -95 128 -187
243 -206 256 -33 22 -103 31 -114 14z"/>
<path d="M2220 1970 l0 -290 185 0 185 0 0 55 0 55 -120 0 -120 0 0 65 0 65
110 0 110 0 0 55 0 55 -110 0 -110 0 0 65 0 65 115 0 115 0 0 50 0 50 -180 0
-180 0 0 -290z"/>
<path d="M3335 2116 c-31 -14 -64 -46 -83 -81 -10 -17 -11 -11 -12 33 l0 52
-50 0 -50 0 0 -300 0 -300 60 0 60 0 0 107 0 106 23 -21 c32 -30 70 -42 133
-42 65 0 99 16 142 64 86 98 65 294 -38 362 -50 33 -137 43 -185 20z m103
-106 c1 0 11 -15 22 -32 42 -69 16 -171 -50 -198 -28 -11 -39 -11 -74 1 -54
18 -79 64 -73 132 7 78 71 125 142 105 16 -4 31 -8 33 -8z"/>
<path d="M4085 2101 c-72 -41 -105 -104 -105 -200 0 -91 31 -158 92 -198 58
-39 175 -45 236 -14 43 22 88 73 94 106 3 18 -3 20 -48 23 -44 3 -56 -1 -79
-23 -41 -37 -106 -35 -146 4 -16 16 -29 39 -29 50 0 20 5 21 160 21 l160 0 0
28 c0 47 -29 129 -57 162 -64 76 -186 94 -278 41z m174 -97 c17 -14 31 -34 31
-45 0 -17 -8 -19 -95 -19 -102 0 -110 5 -79 48 33 47 98 54 143 16z"/>
<path d="M4543 2111 c-72 -33 -99 -102 -67 -172 22 -49 66 -74 149 -84 69 -8
105 -27 105 -55 0 -46 -100 -56 -148 -15 -24 20 -41 25 -82 25 -52 0 -52 0
-45 -27 19 -77 83 -113 198 -113 81 0 146 24 170 62 58 90 -3 197 -121 213
-26 4 -64 11 -85 16 -34 9 -38 13 -35 37 4 37 55 52 104 29 18 -9 34 -21 34
-27 0 -5 24 -10 55 -10 51 0 55 2 55 24 0 90 -173 148 -287 97z"/>
<path d="M4973 2111 c-73 -34 -99 -102 -69 -176 18 -43 71 -71 151 -80 69 -8
105 -27 105 -55 0 -46 -100 -56 -148 -15 -23 20 -41 25 -81 25 -59 0 -65 -13
-31 -68 29 -48 88 -72 179 -72 126 0 194 49 194 142 0 69 -57 122 -143 133
-91 12 -120 24 -120 51 0 17 8 27 26 34 40 15 60 12 92 -15 23 -20 41 -25 81
-25 42 0 51 3 51 18 0 29 -37 80 -72 98 -51 27 -164 29 -215 5z"/>
<path d="M2639 2102 c5 -9 32 -57 61 -106 28 -49 48 -96 45 -104 -3 -8 -30
-57 -60 -108 -30 -51 -55 -95 -55 -98 0 -3 28 -6 63 -6 l62 0 44 80 c25 44 47
80 50 80 4 0 28 -36 54 -80 l48 -80 69 0 69 0 -69 110 c-39 61 -70 113 -70
115 0 3 25 49 55 104 30 55 55 102 55 105 0 3 -28 6 -63 6 l-63 0 -37 -75
c-20 -41 -40 -75 -44 -75 -5 0 -26 34 -47 75 l-40 75 -68 0 c-62 0 -68 -2 -59
-18z"/>
<path d="M3680 1900 l0 -220 65 0 65 0 0 125 c0 168 19 205 104 205 l36 0 0
55 c0 55 0 55 -30 55 -46 0 -87 -26 -109 -68 l-20 -37 -1 53 0 52 -55 0 -55 0
0 -220z"/>
</g>
</svg>
