<?xml version="1.0" encoding="UTF-8"?>
<svg version="1.1" xmlns="http://www.w3.org/2000/svg" width="744" height="744">
<path d="M0 0 C245.52 0 491.04 0 744 0 C744 245.52 744 491.04 744 744 C498.48 744 252.96 744 0 744 C0 498.48 0 252.96 0 0 Z " fill="#FEFEFE" transform="translate(0,0)"/>
<path d="M0 0 C1.64597168 0.00737183 1.64597168 0.00737183 3.32519531 0.01489258 C25.76410654 0.33634333 46.67262525 7.62074211 63.875 22.3125 C64.66261719 22.94414062 65.45023438 23.57578125 66.26171875 24.2265625 C82.96850855 38.23194045 95.61655827 60.48921503 97.875 82.3125 C99.93791201 111.96862227 94.17100711 137.3680418 74.375 160.1953125 C72.23575847 162.59527409 70.07326564 164.96666561 67.875 167.3125 C64.51658892 166.75224233 63.1813159 165.92471879 61.16796875 163.19921875 C60.67151855 162.53833252 60.17506836 161.87744629 59.66357422 161.1965332 C59.13521973 160.47167725 58.60686523 159.74682129 58.0625 159 C57.50062988 158.2474292 56.93875977 157.4948584 56.35986328 156.71948242 C55.15174124 155.09974945 53.94811875 153.47665265 52.74853516 151.85058594 C49.60488943 147.59187589 46.42538631 143.36006411 43.25 139.125 C42.29722168 137.85136597 42.29722168 137.85136597 41.32519531 136.55200195 C36.41759899 130.00199504 31.39568459 123.55320699 26.31445312 117.13769531 C23.54559563 113.62684412 20.8055703 110.0935096 18.0625 106.5625 C17.47621826 105.80799561 16.88993652 105.05349121 16.28588867 104.27612305 C15.08748944 102.73378275 13.88916652 101.19138315 12.69091797 99.64892578 C10.86942692 97.30532947 9.04631223 94.96300573 7.22265625 92.62109375 C-3.28741949 79.12233053 -3.28741949 79.12233053 -7.09448242 74.14477539 C-8.29434614 72.58608292 -9.51424223 71.04287757 -10.734375 69.5 C-12.88757069 66.62907241 -14.75446798 63.74193373 -16.55957031 60.6484375 C-18.75312063 57.6039778 -21.51237176 55.00593118 -24.125 52.3125 C-30.395 51.9825 -36.665 51.6525 -43.125 51.3125 C-43.125 81.0125 -43.125 110.7125 -43.125 141.3125 C-38.175 141.3125 -33.225 141.3125 -28.125 141.3125 C-28.125 118.2125 -28.125 95.1125 -28.125 71.3125 C-22.49236334 76.94513666 -22.49236334 76.94513666 -20.43359375 79.51953125 C-19.97017578 80.09767578 -19.50675781 80.67582031 -19.02929688 81.27148438 C-18.54525391 81.88314453 -18.06121094 82.49480469 -17.5625 83.125 C-17.04365234 83.77662109 -16.52480469 84.42824219 -15.99023438 85.09960938 C-11.76645794 90.43410145 -7.68402463 95.86780349 -3.62670898 101.3293457 C0.25822092 106.54062138 4.29049903 111.61642201 8.37719727 116.67016602 C11.96151916 121.12157797 15.40915586 125.65917014 18.8125 130.25 C24.40945134 137.78738654 30.29354366 145.06250444 36.24609375 152.3203125 C38.97431024 155.65698014 41.67741777 159.01354649 44.375 162.375 C44.85517578 162.96998291 45.33535156 163.56496582 45.83007812 164.17797852 C48.99457988 168.12526051 51.96479868 172.17389848 54.875 176.3125 C36.69657091 192.09532215 11.76666316 193.8727298 -11.125 192.3125 C-28.6301349 190.57064765 -45.71657773 182.55690475 -59.125 171.3125 C-60.0221875 170.58804688 -60.919375 169.86359375 -61.84375 169.1171875 C-79.14162675 154.39455645 -90.77072396 132.76340859 -94.125 110.3125 C-96.18041222 82.45742871 -91.28810908 57.23608715 -73.125 35.3125 C-72.57457031 34.61253906 -72.02414062 33.91257813 -71.45703125 33.19140625 C-54.25901103 12.23514883 -26.84882611 -0.14272488 0 0 Z " fill="#060606" transform="translate(370.125,163.6875)"/>
<path d="M0 0 C245.52 0 491.04 0 744 0 C744 245.52 744 491.04 744 744 C498.48 744 252.96 744 0 744 C0 498.48 0 252.96 0 0 Z M9.80056715 9.8018924 C7.03422603 14.71537567 7.3163767 19.24814495 7.37638092 24.79892731 C7.36971291 26.01376248 7.3630449 27.22859765 7.35617483 28.48024601 C7.34269313 31.86457682 7.35171521 35.2475154 7.37006495 38.63173568 C7.38451881 42.30866433 7.37003061 45.98549551 7.35917997 49.66242075 C7.3441767 56.11065686 7.34782999 62.55867528 7.36359787 69.00690651 C7.38698045 78.59544912 7.38182814 88.18382714 7.37088897 97.77238439 C7.3522807 114.89535587 7.3620329 132.0182235 7.38336661 149.14118652 C7.40190447 164.12552966 7.41034689 179.10983788 7.40879822 194.0941925 C7.40870654 195.08713382 7.40861487 196.08007514 7.40852041 197.10310559 C7.40812727 201.13351405 7.40767765 205.16392249 7.40714902 209.19433093 C7.40227504 247.02278317 7.42495935 284.85117344 7.46110525 322.67960642 C7.49309987 356.30708768 7.50514905 389.93451599 7.49902344 423.56201172 C7.49863659 425.72113818 7.49825014 427.88026464 7.49786407 430.0393911 C7.49767272 431.10680882 7.49748138 432.17422655 7.49728423 433.27399026 C7.49632993 438.6469368 7.49541556 444.01988334 7.49454498 449.3928299 C7.49437119 450.45276959 7.4941974 451.51270929 7.49401833 452.60476837 C7.48966566 480.68194229 7.49967212 508.75911048 7.51438284 536.83628035 C7.51490298 537.83474409 7.51542312 538.83320783 7.51595903 539.86192806 C7.51647837 540.85859533 7.51699771 541.8552626 7.5175328 542.8821319 C7.51805054 543.87700353 7.51856828 544.87187516 7.51910171 545.89689441 C7.5201498 547.90052128 7.52121001 549.90414814 7.52228243 551.907775 C7.52967085 565.89145662 7.53174981 579.87513015 7.53028842 593.85881348 C7.52844479 611.87716422 7.53647301 629.89546502 7.56192988 647.91379941 C7.57511985 657.44869893 7.58009129 666.98351871 7.57329134 676.51842542 C7.56959099 682.88034094 7.57674167 689.24218342 7.59288373 695.60407941 C7.60179303 699.23356274 7.6059069 702.86288152 7.59695655 706.49236852 C7.58745448 710.39536815 7.60095618 714.29808935 7.61688995 718.20107269 C7.61043815 719.33682407 7.60398635 720.47257544 7.59733903 721.64274353 C7.60536204 722.680459 7.61338505 723.71817448 7.62165117 724.78733587 C7.62230193 725.68014213 7.62295269 726.57294839 7.62362316 727.49280939 C8.08697771 730.57939193 9.19314279 732.47625141 11 735 C13.46720783 736.23360391 15.0797692 736.12605837 17.84006864 736.1276505 C18.87104223 736.13066647 19.90201583 736.13368244 20.96423104 736.1367898 C22.67967967 736.13413559 22.67967967 736.13413559 24.42978382 736.13142776 C25.64115746 736.1334804 26.8525311 736.13553303 28.10061303 736.13764787 C31.4887388 736.14235582 34.87681191 736.14253775 38.2649371 736.14087028 C41.94125807 736.14014185 45.61757179 736.14515581 49.2938897 736.1494453 C56.5969285 736.15704219 63.89995999 736.15921921 71.20300233 736.15977435 C79.94571879 736.16068632 88.68842845 736.16734887 97.431142 736.17412117 C118.56450522 736.19020037 139.69786774 736.19608649 160.83123598 736.20086992 C170.82315111 736.2032038 180.81506566 736.20680621 190.80698033 736.2105653 C224.99157819 736.22340208 259.17617573 736.2341215 293.36077595 736.2375679 C295.50769435 736.23778954 297.65461275 736.23801132 299.80153115 736.23823325 C301.95371722 736.2384539 304.10590329 736.23867438 306.25808936 736.2388947 C310.57594955 736.23933726 314.89380974 736.23978437 319.21166992 736.24023438 C320.28225257 736.24034377 321.35283521 736.24045316 322.45585975 736.24056586 C357.18335173 736.24419792 391.91082286 736.26012295 426.63830686 736.28342474 C463.3302955 736.30799981 500.02227222 736.32173965 536.71426934 736.32293582 C540.73917687 736.32310728 544.7640844 736.32332271 548.78899193 736.32357025 C550.2756251 736.3236539 550.2756251 736.3236539 551.79229126 736.32373925 C567.76759625 736.32489168 583.7428799 736.33592997 599.71817767 736.35045731 C615.76387933 736.36479679 631.80955351 736.36807375 647.85525981 736.36001733 C657.39681847 736.35554909 666.9382887 736.35946918 676.4798358 736.37525584 C682.84628049 736.38496723 689.21266287 736.38386456 695.57910691 736.37381961 C699.2112434 736.36839967 702.84320945 736.36780636 706.47533218 736.38032833 C710.38120136 736.3936823 714.28681478 736.38402046 718.19269276 736.3719368 C719.32930167 736.37953199 720.46591059 736.38712718 721.63696221 736.39495254 C722.67544635 736.38795443 723.7139305 736.38095633 724.78388387 736.37374616 C725.67736135 736.37399036 726.57083883 736.37423456 727.49139138 736.37448616 C730.57992042 735.91342923 732.47526606 734.80806178 735 733 C736.23412317 730.53175367 736.12697974 728.91508309 736.12995183 726.15351933 C736.13348025 725.12111232 736.13700867 724.08870531 736.14064401 723.02501324 C736.13944624 721.87977648 736.13824846 720.73453971 736.13701439 719.55459881 C736.14099213 717.73500579 736.14099213 717.73500579 736.14505023 715.87865332 C736.15142764 712.48579414 736.15327949 709.09298542 736.153273 705.7001237 C736.1543394 702.01866802 736.16112621 698.33722227 736.1671797 694.65577203 C736.17827259 687.34253271 736.18390822 680.0292982 736.18788858 672.71605195 C736.19289087 663.96112262 736.20361725 655.20620264 736.21437032 646.45127882 C736.24002016 625.28840081 736.25503895 604.12551915 736.26788078 582.96263005 C736.27213339 575.95562972 736.27669906 568.94862965 736.2814641 561.94162965 C736.3067205 524.71044634 736.32877566 487.47926261 736.34119225 450.24807262 C736.34411373 441.61907639 736.34708122 432.99008018 736.35009766 424.36108398 C736.35046857 423.2890065 736.35083947 422.21692901 736.35122162 421.11236433 C736.36338292 386.33635539 736.39433586 351.56039699 736.43601918 316.78441179 C736.47876953 281.05323134 736.50542846 245.32207758 736.51066696 209.59087085 C736.51140746 204.54831056 736.51231815 199.50575032 736.51332474 194.46319008 C736.51351535 193.47071815 736.51370597 192.47824622 736.51390236 191.45569938 C736.51742132 175.45805913 736.53774392 159.46048202 736.56412137 143.46286498 C736.59021642 127.39474843 736.59801448 111.32670511 736.58702008 95.2585704 C736.58102662 85.70361934 736.589042 76.14891602 736.61685092 66.59400228 C736.63403845 60.21863721 736.63320879 53.84344203 736.61748323 47.46807354 C736.60903129 43.83075076 736.60862911 40.19390241 736.63009469 36.55662265 C736.65299391 32.64516604 736.63753112 28.73441259 736.61803246 24.82292461 C736.63088168 23.68471135 736.6437309 22.54649809 736.65696949 21.37379351 C736.60645902 16.80334799 736.46405708 13.82478926 734.19978201 9.80039257 C729.28180096 7.0332364 724.74073244 7.31361858 719.18545532 7.3707943 C717.36067001 7.35989349 717.36067001 7.35989349 715.49902034 7.34877247 C712.10996408 7.33362638 708.72228667 7.34097776 705.33332512 7.35766223 C701.65125488 7.37031588 697.96929562 7.35405815 694.28724098 7.34144557 C687.8300003 7.32335845 681.37296848 7.32395231 674.91571808 7.33668137 C665.31376481 7.35555827 655.71198843 7.34594371 646.11003643 7.33063983 C628.96314613 7.30427897 611.81634883 7.30660583 594.66944963 7.32103439 C579.66416493 7.33359927 564.65891437 7.33690172 549.65362549 7.33092117 C548.65929782 7.33053925 547.66497016 7.33015732 546.64051135 7.32976382 C542.60447594 7.3282072 538.56844055 7.3266152 534.53240518 7.324965 C496.65111984 7.30966102 458.76989384 7.32355153 420.88861766 7.35044949 C387.21412478 7.37417852 353.53972643 7.37205542 319.86523438 7.34814453 C282.05439236 7.3213865 244.24360278 7.31074626 206.43275261 7.32620585 C202.40395992 7.3278095 198.37516722 7.3293737 194.34637451 7.33092117 C193.35434208 7.33131656 192.36230966 7.33171195 191.34021564 7.33211931 C176.34229493 7.33781294 161.34441206 7.33114367 146.34649658 7.31852341 C129.29763424 7.30424909 112.24887967 7.30775415 95.2000308 7.33492713 C85.65174505 7.34964237 76.10369251 7.35051859 66.55541266 7.33169625 C60.18457023 7.32051979 53.81391555 7.32739738 47.44310104 7.3492201 C43.80843657 7.36116149 40.17423682 7.36508423 36.53958631 7.34719019 C32.63098861 7.32814287 28.72313199 7.34744538 24.81454468 7.3707943 C23.67718896 7.35908847 22.53983324 7.34738263 21.36801219 7.33532208 C16.79955038 7.39035379 13.82227851 7.53689998 9.80056715 9.8018924 Z " fill="#000000" transform="translate(0,0)"/>
<path d="M0 0 C19 0 19 0 24.375 4.9375 C25.69189453 6.67895508 25.69189453 6.67895508 26.6328125 8.26953125 C28.76109816 11.68666286 31.12453819 14.8371519 33.59985352 18.00976562 C35.27970824 20.1630814 36.93312563 22.33463492 38.58203125 24.51171875 C42.00144651 29.01239531 45.46339138 33.47896362 48.9375 37.9375 C49.51854492 38.68338379 50.09958984 39.42926758 50.69824219 40.19775391 C51.87659968 41.70994679 53.05514808 43.22199092 54.23388672 44.73388672 C57.73936138 49.23178772 61.23870868 53.73445805 64.73876953 58.23657227 C67.714636 62.06381852 70.69297643 65.8890955 73.67578125 69.7109375 C80.20336558 78.07927796 86.66614642 86.483695 93 95 C95.30564298 98.07676103 97.61370708 101.15169545 99.921875 104.2265625 C101.22734336 105.96882291 102.52987424 107.71329225 103.828125 109.4609375 C104.62476563 110.53214844 104.62476563 110.53214844 105.4375 111.625 C105.88996094 112.23601562 106.34242188 112.84703125 106.80859375 113.4765625 C108.06247941 115.14341115 108.06247941 115.14341115 110 117 C108.40320196 118.3421492 106.79729803 119.67347115 105.1875 121 C104.29417969 121.7425 103.40085937 122.485 102.48046875 123.25 C100 125 100 125 97 125 C95.62475586 123.62988281 95.62475586 123.62988281 94.21484375 121.703125 C93.68955078 120.99800781 93.16425781 120.29289062 92.62304688 119.56640625 C92.06681641 118.80199219 91.51058594 118.03757812 90.9375 117.25 C89.76121663 115.67030758 88.58281807 114.09218806 87.40234375 112.515625 C86.82210449 111.73896484 86.24186523 110.96230469 85.64404297 110.16210938 C83.51379474 107.36058304 81.28035065 104.68100339 79 102 C74.44246501 96.6077787 70.15438933 91.03748459 65.88452148 85.41577148 C62.48084377 80.93457012 59.04838148 76.48005317 55.5625 72.0625 C45.61397993 59.44821626 35.7826486 46.74318699 26 34 C22.7 29.71 19.4 25.42 16 21 C15.67 43.77 15.34 66.54 15 90 C10.05 90 5.1 90 0 90 C0 60.3 0 30.6 0 0 Z " fill="#E3E3E3" transform="translate(327,215)"/>
<path d="M0 0 C7.59 0 15.18 0 23 0 C24.01320312 2.23136719 25.02640625 4.46273437 26.0703125 6.76171875 C27.07314799 8.96952523 28.07611869 11.17727024 29.07910156 13.38500977 C29.76576569 14.89666462 30.45229355 16.40838138 31.13867188 17.92016602 C32.13634264 20.1175213 33.13453557 22.3146388 34.1328125 24.51171875 C34.42995148 25.16645676 34.72709045 25.82119476 35.03323364 26.49577332 C37.99434566 33.01036893 41.00102846 39.50222833 44 46 C44.33 30.82 44.66 15.64 45 0 C49.29 0 53.58 0 58 0 C58 19.14 58 38.28 58 58 C50.74 58 43.48 58 36 58 C28.26837577 42.84601651 21.16423502 27.43066004 14 12 C13.67 27.18 13.34 42.36 13 58 C8.71 58 4.42 58 0 58 C0 38.86 0 19.72 0 0 Z " fill="#0A0A0A" transform="translate(221,518)"/>
<path d="M0 0 C4.65908398 3.08799752 8.21780873 7.70432978 9.6796875 13.11328125 C9.6796875 14.43328125 9.6796875 15.75328125 9.6796875 17.11328125 C5.3896875 17.11328125 1.0996875 17.11328125 -3.3203125 17.11328125 C-3.7740625 16.14390625 -4.2278125 15.17453125 -4.6953125 14.17578125 C-5.97817471 11.04248543 -5.97817471 11.04248543 -8.3203125 10.11328125 C-10.42885286 9.87800805 -10.42885286 9.87800805 -12.7578125 9.86328125 C-13.93150391 9.82460938 -13.93150391 9.82460938 -15.12890625 9.78515625 C-17.3846704 9.9537376 -17.3846704 9.9537376 -19.125 11.3984375 C-20.70242881 13.27213196 -20.70242881 13.27213196 -20.0078125 16.80078125 C-19.6675 18.44046875 -19.6675 18.44046875 -19.3203125 20.11328125 C-15.88994966 21.17506023 -12.56055573 22.07035021 -9.01953125 22.703125 C-1.54356597 24.0602014 4.38399292 25.4145023 9.6796875 31.11328125 C12.65806128 35.48776774 13.31268769 38.8684225 12.6796875 44.11328125 C10.69438697 49.99066813 7.77721096 53.6469653 2.6796875 57.11328125 C-2.33058106 59.21818698 -6.84865107 59.47935527 -12.1953125 59.48828125 C-12.95972656 59.51277344 -13.72414063 59.53726563 -14.51171875 59.5625 C-20.79178156 59.59448674 -26.19761327 58.06758987 -30.85058594 53.66552734 C-34.92391074 48.96360304 -36.3203125 46.33686694 -36.3203125 40.11328125 C-32.0303125 40.11328125 -27.7403125 40.11328125 -23.3203125 40.11328125 C-22.8665625 41.08265625 -22.4128125 42.05203125 -21.9453125 43.05078125 C-20.66245029 46.18407707 -20.66245029 46.18407707 -18.3203125 47.11328125 C-16.36481994 47.23585586 -14.40460632 47.28880513 -12.4453125 47.30078125 C-11.39601563 47.31496094 -10.34671875 47.32914063 -9.265625 47.34375 C-6.34691319 47.11536274 -4.69520777 46.80246732 -2.3203125 45.11328125 C-1.50446682 42.05419712 -1.50446682 42.05419712 -1.3203125 39.11328125 C-5.35857338 35.91052262 -8.28548631 35.06864115 -13.3828125 34.86328125 C-20.21745414 34.25676338 -26.14582608 32.33066613 -31.0546875 27.35546875 C-34.18515976 23.01149882 -35.09919944 18.89179536 -34.8046875 13.57421875 C-33.67798336 7.84983483 -30.71638251 4.20221586 -26.1953125 0.67578125 C-18.72105377 -3.38631589 -7.81119899 -3.53683044 0 0 Z " fill="#060606" transform="translate(514.3203125,517.88671875)"/>
<path d="M0 0 C6.36698116 3.83944611 10.12631379 8.99756174 12.44140625 16.05859375 C12.44140625 19.35859375 12.44140625 22.65859375 12.44140625 26.05859375 C1.88140625 26.05859375 -8.67859375 26.05859375 -19.55859375 26.05859375 C-17.22011233 31.97590393 -17.22011233 31.97590393 -13.55859375 34.05859375 C-7.21635265 34.55615624 -7.21635265 34.55615624 -1.55859375 32.05859375 C-1.22859375 31.39859375 -0.89859375 30.73859375 -0.55859375 30.05859375 C3.40140625 30.05859375 7.36140625 30.05859375 11.44140625 30.05859375 C9.80256531 36.31598644 7.01487931 40.38024176 1.56640625 43.93359375 C-5.15761273 46.36662693 -13.65595759 46.44849908 -20.35546875 44.0625 C-26.27957418 40.5537597 -29.75672545 35.66833179 -31.55859375 29.05859375 C-32.41271604 21.83668476 -32.87862711 14.12539582 -28.96875 7.70703125 C-21.71654387 -0.77061691 -10.70680198 -3.93944928 0 0 Z " fill="#080808" transform="translate(318.55859375,531.94140625)"/>
<path d="M0 0 C11.88 0 23.76 0 36 0 C36.09220228 5.95985293 36.17172785 11.91719742 36.21972656 17.87719727 C36.2397503 19.90137146 36.26697767 21.92548847 36.30175781 23.94946289 C36.35068462 26.87140065 36.3730615 29.7925688 36.390625 32.71484375 C36.41127014 33.60896469 36.43191528 34.50308563 36.45318604 35.42430115 C36.4558798 43.09403406 34.50091427 49.06142573 29.5 54.9375 C23.08932801 60.2263044 15.9251807 59.73165192 7.9609375 59.23388672 C2.70186575 58.60662194 -0.14396583 56.03061164 -3.578125 52.2734375 C-7.7340333 46.72461488 -7.42200551 41.75208817 -7 35 C-2.71 35 1.58 35 6 35 C6.45572917 37.57161458 6.91145833 40.14322917 7.3671875 42.71484375 C7.57601563 43.46894531 7.78484375 44.22304688 8 45 C11.17540944 46.58770472 14.54190559 46.41100302 18 46 C20.17476401 44.45661909 20.81832637 43.36334727 22 41 C22.15495763 38.75025839 22.25010928 36.49628464 22.31640625 34.2421875 C22.33718735 33.57913605 22.35796844 32.91608459 22.37937927 32.23294067 C22.44479231 30.11373306 22.50372105 27.994401 22.5625 25.875 C22.60569309 24.43878919 22.64930764 23.00259098 22.69335938 21.56640625 C22.80125909 18.04439656 22.90039243 14.52229312 23 11 C15.41 11 7.82 11 0 11 C0 7.37 0 3.74 0 0 Z " fill="#030303" transform="translate(436,518)"/>
<path d="M0 0 C4.62 0 9.24 0 14 0 C15.17176518 2.12232979 16.33754785 4.24757791 17.5 6.375 C17.83386719 6.97828125 18.16773438 7.5815625 18.51171875 8.203125 C21 12.7734375 21 12.7734375 21 15 C24.03656917 12.4011345 25.46163739 9.37928272 27.1875 5.8125 C28.115625 3.894375 29.04375 1.97625 30 0 C34.29 0 38.58 0 43 0 C41.73983819 3.15040453 40.66507202 5.7619249 39.01953125 8.62890625 C38.66052734 9.27150391 38.30152344 9.91410156 37.93164062 10.57617188 C37.18104159 11.90838691 36.42312092 13.23650135 35.65820312 14.56054688 C33.58278615 18.03586873 33.58278615 18.03586873 33.23095703 21.93652344 C34.13454487 24.36100738 35.31638786 26.33889175 36.72265625 28.51171875 C37.52993164 29.77145508 37.52993164 29.77145508 38.35351562 31.05664062 C39.19946289 32.35891602 39.19946289 32.35891602 40.0625 33.6875 C41.18027562 35.4193544 42.29626445 37.15236381 43.41015625 38.88671875 C43.90652588 39.65201904 44.40289551 40.41731934 44.91430664 41.20581055 C46 43 46 43 46 44 C41.08687695 44.8805882 36.87319161 45.20933041 32 44 C27.77090985 40.33042635 25.27609201 35.02185379 23 30 C23 29.34 23 28.68 23 28 C22.34 28 21.68 28 21 28 C20.73445313 28.70511719 20.46890625 29.41023437 20.1953125 30.13671875 C18.18061311 34.9627797 15.53358314 39.42853477 13 44 C8.71 44 4.42 44 0 44 C1.32195577 40.69511057 2.40489608 38.13346075 4.19921875 35.1875 C4.80540039 34.16269531 4.80540039 34.16269531 5.42382812 33.1171875 C6.26936994 31.70054557 7.12363124 30.28907329 7.98632812 28.8828125 C10.31461216 24.95807343 10.31461216 24.95807343 11.0859375 20.546875 C9.38886735 16.56669608 7.19589461 12.93425861 4.9375 9.25 C4.00737424 7.71459459 3.07889416 6.17819062 2.15234375 4.640625 C1.73976318 3.96547852 1.32718262 3.29033203 0.90209961 2.59472656 C0 1 0 1 0 0 Z " fill="#050505" transform="translate(333,532)"/>
<path d="M0 0 C3.96 0 7.92 0 12 0 C12 3.96 12 7.92 12 12 C16.29 12 20.58 12 25 12 C25 14.97 25 17.94 25 21 C20.71 21 16.42 21 12 21 C12.11348983 24.62570152 12.24024465 28.25008101 12.375 31.875 C12.4059375 32.90753906 12.436875 33.94007813 12.46875 35.00390625 C12.50742187 35.99003906 12.54609375 36.97617187 12.5859375 37.9921875 C12.63306885 39.35899658 12.63306885 39.35899658 12.68115234 40.75341797 C12.79882511 43.19931186 12.79882511 43.19931186 15 45 C17.20250992 45.46006346 17.20250992 45.46006346 19.625 45.625 C21.06875 45.74875 22.5125 45.8725 24 46 C24 49.3 24 52.6 24 56 C21.62374823 56.10883596 19.25256024 56.18766696 16.875 56.25 C16.20984375 56.28351562 15.5446875 56.31703125 14.859375 56.3515625 C9.7043524 56.45264137 6.8251478 55.43708933 3 52 C-0.74885977 45.95624075 -0.35575101 40.01256079 -0.1875 33.0625 C-0.17396484 31.99708984 -0.16042969 30.93167969 -0.14648438 29.83398438 C-0.11134724 27.22212412 -0.06215184 24.61133366 0 22 C-2.31 22 -4.62 22 -7 22 C-7 18.7 -7 15.4 -7 12 C-4.69 12 -2.38 12 0 12 C0 8.04 0 4.08 0 0 Z " fill="#070707" transform="translate(385,520)"/>
<path d="M0 0 C3 2.25 3 2.25 5 5 C5 6.32 5 7.64 5 9 C-1.27 9 -7.54 9 -14 9 C-13 4 -13 4 -10.9375 1.6875 C-7.16502924 -0.47966405 -4.2546722 -1.00362227 0 0 Z " fill="#F7F7F7" transform="translate(313,541)"/>
</svg>
