<?xml version="1.0" encoding="UTF-8"?>
<svg version="1.1" xmlns="http://www.w3.org/2000/svg" width="744" height="744">
<path d="M0 0 C245.52 0 491.04 0 744 0 C744 245.52 744 491.04 744 744 C498.48 744 252.96 744 0 744 C0 498.48 0 252.96 0 0 Z " fill="#FEFEFE" transform="translate(0,0)"/>
<path d="M0 0 C245.52 0 491.04 0 744 0 C744 245.52 744 491.04 744 744 C498.48 744 252.96 744 0 744 C0 498.48 0 252.96 0 0 Z M9.80056715 9.8018924 C7.03422603 14.71537567 7.3163767 19.24814495 7.37638092 24.79892731 C7.36971291 26.01376248 7.3630449 27.22859765 7.35617483 28.48024601 C7.34269313 31.86457682 7.35171521 35.2475154 7.37006495 38.63173568 C7.38451881 42.30866433 7.37003061 45.98549551 7.35917997 49.66242075 C7.3441767 56.11065686 7.34782999 62.55867528 7.36359787 69.00690651 C7.38698045 78.59544912 7.38182814 88.18382714 7.37088897 97.77238439 C7.3522807 114.89535587 7.3620329 132.0182235 7.38336661 149.14118652 C7.40190447 164.12552966 7.41034689 179.10983788 7.40879822 194.0941925 C7.40870654 195.08713382 7.40861487 196.08007514 7.40852041 197.10310559 C7.40812727 201.13351405 7.40767765 205.16392249 7.40714902 209.19433093 C7.40227504 247.02278317 7.42495935 284.85117344 7.46110525 322.67960642 C7.49309987 356.30708768 7.50514905 389.93451599 7.49902344 423.56201172 C7.49863659 425.72113818 7.49825014 427.88026464 7.49786407 430.0393911 C7.49767272 431.10680882 7.49748138 432.17422655 7.49728423 433.27399026 C7.49632993 438.6469368 7.49541556 444.01988334 7.49454498 449.3928299 C7.49437119 450.45276959 7.4941974 451.51270929 7.49401833 452.60476837 C7.48966566 480.68194229 7.49967212 508.75911048 7.51438284 536.83628035 C7.51490298 537.83474409 7.51542312 538.83320783 7.51595903 539.86192806 C7.51647837 540.85859533 7.51699771 541.8552626 7.5175328 542.8821319 C7.51805054 543.87700353 7.51856828 544.87187516 7.51910171 545.89689441 C7.5201498 547.90052128 7.52121001 549.90414814 7.52228243 551.907775 C7.52967085 565.89145662 7.53174981 579.87513015 7.53028842 593.85881348 C7.52844479 611.87716422 7.53647301 629.89546502 7.56192988 647.91379941 C7.57511985 657.44869893 7.58009129 666.98351871 7.57329134 676.51842542 C7.56959099 682.88034094 7.57674167 689.24218342 7.59288373 695.60407941 C7.60179303 699.23356274 7.6059069 702.86288152 7.59695655 706.49236852 C7.58745448 710.39536815 7.60095618 714.29808935 7.61688995 718.20107269 C7.61043815 719.33682407 7.60398635 720.47257544 7.59733903 721.64274353 C7.60536204 722.680459 7.61338505 723.71817448 7.62165117 724.78733587 C7.62230193 725.68014213 7.62295269 726.57294839 7.62362316 727.49280939 C8.08697771 730.57939193 9.19314279 732.47625141 11 735 C13.46720783 736.23360391 15.0797692 736.12605837 17.84006864 736.1276505 C18.87104223 736.13066647 19.90201583 736.13368244 20.96423104 736.1367898 C22.67967967 736.13413559 22.67967967 736.13413559 24.42978382 736.13142776 C25.64115746 736.1334804 26.8525311 736.13553303 28.10061303 736.13764787 C31.4887388 736.14235582 34.87681191 736.14253775 38.2649371 736.14087028 C41.94125807 736.14014185 45.61757179 736.14515581 49.2938897 736.1494453 C56.5969285 736.15704219 63.89995999 736.15921921 71.20300233 736.15977435 C79.94571879 736.16068632 88.68842845 736.16734887 97.431142 736.17412117 C118.56450522 736.19020037 139.69786774 736.19608649 160.83123598 736.20086992 C170.82315111 736.2032038 180.81506566 736.20680621 190.80698033 736.2105653 C224.99157819 736.22340208 259.17617573 736.2341215 293.36077595 736.2375679 C295.50769435 736.23778954 297.65461275 736.23801132 299.80153115 736.23823325 C301.95371722 736.2384539 304.10590329 736.23867438 306.25808936 736.2388947 C310.57594955 736.23933726 314.89380974 736.23978437 319.21166992 736.24023438 C320.28225257 736.24034377 321.35283521 736.24045316 322.45585975 736.24056586 C357.18335173 736.24419792 391.91082286 736.26012295 426.63830686 736.28342474 C463.3302955 736.30799981 500.02227222 736.32173965 536.71426934 736.32293582 C540.73917687 736.32310728 544.7640844 736.32332271 548.78899193 736.32357025 C550.2756251 736.3236539 550.2756251 736.3236539 551.79229126 736.32373925 C567.76759625 736.32489168 583.7428799 736.33592997 599.71817767 736.35045731 C615.76387933 736.36479679 631.80955351 736.36807375 647.85525981 736.36001733 C657.39681847 736.35554909 666.9382887 736.35946918 676.4798358 736.37525584 C682.84628049 736.38496723 689.21266287 736.38386456 695.57910691 736.37381961 C699.2112434 736.36839967 702.84320945 736.36780636 706.47533218 736.38032833 C710.38120136 736.3936823 714.28681478 736.38402046 718.19269276 736.3719368 C719.32930167 736.37953199 720.46591059 736.38712718 721.63696221 736.39495254 C722.67544635 736.38795443 723.7139305 736.38095633 724.78388387 736.37374616 C725.67736135 736.37399036 726.57083883 736.37423456 727.49139138 736.37448616 C730.57992042 735.91342923 732.47526606 734.80806178 735 733 C736.23412317 730.53175367 736.12697974 728.91508309 736.12995183 726.15351933 C736.13348025 725.12111232 736.13700867 724.08870531 736.14064401 723.02501324 C736.13944624 721.87977648 736.13824846 720.73453971 736.13701439 719.55459881 C736.14099213 717.73500579 736.14099213 717.73500579 736.14505023 715.87865332 C736.15142764 712.48579414 736.15327949 709.09298542 736.153273 705.7001237 C736.1543394 702.01866802 736.16112621 698.33722227 736.1671797 694.65577203 C736.17827259 687.34253271 736.18390822 680.0292982 736.18788858 672.71605195 C736.19289087 663.96112262 736.20361725 655.20620264 736.21437032 646.45127882 C736.24002016 625.28840081 736.25503895 604.12551915 736.26788078 582.96263005 C736.27213339 575.95562972 736.27669906 568.94862965 736.2814641 561.94162965 C736.3067205 524.71044634 736.32877566 487.47926261 736.34119225 450.24807262 C736.34411373 441.61907639 736.34708122 432.99008018 736.35009766 424.36108398 C736.35046857 423.2890065 736.35083947 422.21692901 736.35122162 421.11236433 C736.36338292 386.33635539 736.39433586 351.56039699 736.43601918 316.78441179 C736.47876953 281.05323134 736.50542846 245.32207758 736.51066696 209.59087085 C736.51140746 204.54831056 736.51231815 199.50575032 736.51332474 194.46319008 C736.51351535 193.47071815 736.51370597 192.47824622 736.51390236 191.45569938 C736.51742132 175.45805913 736.53774392 159.46048202 736.56412137 143.46286498 C736.59021642 127.39474843 736.59801448 111.32670511 736.58702008 95.2585704 C736.58102662 85.70361934 736.589042 76.14891602 736.61685092 66.59400228 C736.63403845 60.21863721 736.63320879 53.84344203 736.61748323 47.46807354 C736.60903129 43.83075076 736.60862911 40.19390241 736.63009469 36.55662265 C736.65299391 32.64516604 736.63753112 28.73441259 736.61803246 24.82292461 C736.63088168 23.68471135 736.6437309 22.54649809 736.65696949 21.37379351 C736.60645902 16.80334799 736.46405708 13.82478926 734.19978201 9.80039257 C729.28180096 7.0332364 724.74073244 7.31361858 719.18545532 7.3707943 C717.36067001 7.35989349 717.36067001 7.35989349 715.49902034 7.34877247 C712.10996408 7.33362638 708.72228667 7.34097776 705.33332512 7.35766223 C701.65125488 7.37031588 697.96929562 7.35405815 694.28724098 7.34144557 C687.8300003 7.32335845 681.37296848 7.32395231 674.91571808 7.33668137 C665.31376481 7.35555827 655.71198843 7.34594371 646.11003643 7.33063983 C628.96314613 7.30427897 611.81634883 7.30660583 594.66944963 7.32103439 C579.66416493 7.33359927 564.65891437 7.33690172 549.65362549 7.33092117 C548.65929782 7.33053925 547.66497016 7.33015732 546.64051135 7.32976382 C542.60447594 7.3282072 538.56844055 7.3266152 534.53240518 7.324965 C496.65111984 7.30966102 458.76989384 7.32355153 420.88861766 7.35044949 C387.21412478 7.37417852 353.53972643 7.37205542 319.86523438 7.34814453 C282.05439236 7.3213865 244.24360278 7.31074626 206.43275261 7.32620585 C202.40395992 7.3278095 198.37516722 7.3293737 194.34637451 7.33092117 C193.35434208 7.33131656 192.36230966 7.33171195 191.34021564 7.33211931 C176.34229493 7.33781294 161.34441206 7.33114367 146.34649658 7.31852341 C129.29763424 7.30424909 112.24887967 7.30775415 95.2000308 7.33492713 C85.65174505 7.34964237 76.10369251 7.35051859 66.55541266 7.33169625 C60.18457023 7.32051979 53.81391555 7.32739738 47.44310104 7.3492201 C43.80843657 7.36116149 40.17423682 7.36508423 36.53958631 7.34719019 C32.63098861 7.32814287 28.72313199 7.34744538 24.81454468 7.3707943 C23.67718896 7.35908847 22.53983324 7.34738263 21.36801219 7.33532208 C16.79955038 7.39035379 13.82227851 7.53689998 9.80056715 9.8018924 Z " fill="#000000" transform="translate(0,0)"/>
<path d="M0 0 C1.61068359 0.38285156 1.61068359 0.38285156 3.25390625 0.7734375 C17.46203619 4.57389434 30.19526968 12.13411959 41 22 C41.99844431 22.8909093 42.99715334 23.78152199 43.99609375 24.671875 C48.80433764 29.00539596 53.48106648 33.43855272 57.99609375 38.078125 C68.46143564 48.85337776 68.46143564 48.85337776 81 57 C81.63035156 57.33 82.26070312 57.66 82.91015625 58 C95.39826282 63.9169161 110.16493403 63.48371638 123 59 C135.53883929 54.18744288 144.70770415 45.36536982 153 35 C155.24912793 41.74738379 149.93755944 51.17930894 146.94140625 57.41796875 C142.79918715 65.66041884 138.26903195 73.17318184 132 80 C131.30261719 80.77730469 130.60523438 81.55460937 129.88671875 82.35546875 C114.45430026 98.71986278 91.87713454 106.39440916 69.81640625 107.328125 C38.50286853 108.09948624 12.10258617 99.92559852 -11 78 C-15.45820406 73.58636016 -19.87364266 69.13009204 -24.2265625 64.61254883 C-36.60611931 51.93458997 -50.55355631 42.16786937 -68.6875 41.6875 C-87.69955827 42.01284003 -101.52737413 49.99112912 -114.52734375 63.390625 C-116.46566293 65.50889424 -118.26653438 67.71182538 -120 70 C-116.71640774 47.01485418 -103.00602887 26.35225289 -85.02734375 12.10546875 C-77.19626671 6.65908097 -68.26167522 2.33007335 -59 0 C-57.9584375 -0.27714844 -56.916875 -0.55429687 -55.84375 -0.83984375 C-37.81638227 -4.94902316 -17.87924938 -4.71045516 0 0 Z " fill="#010101" transform="translate(309,261)"/>
<path d="M0 0 C7.3500441 5.9630653 13.89960002 12.67579153 20.54296875 19.40625 C33.75603338 32.7839234 47.61695947 45.7600156 67.47436523 46.16162109 C76.00807487 46.14130494 83.09957138 45.38814564 90.98046875 41.78125 C91.88925781 41.38035156 92.79804687 40.97945312 93.734375 40.56640625 C101.06078864 36.97094009 111.19881394 30.34455961 114.98046875 22.78125 C115.64046875 22.78125 116.30046875 22.78125 116.98046875 22.78125 C117.64046875 21.13125 118.30046875 19.48125 118.98046875 17.78125 C120.33469442 21.84392701 119.00176092 24.54232404 117.60546875 28.40625 C117.20098511 29.52990967 117.20098511 29.52990967 116.78833008 30.67626953 C108.1212675 53.86749924 94.16307134 71.43141022 71.98046875 82.78125 C71.18382812 83.19246094 70.3871875 83.60367188 69.56640625 84.02734375 C44.9165512 95.21994578 13.95345757 93.39847085 -10.95703125 84.40625 C-31.53901467 75.89490347 -46.99690624 61.16750904 -62.2800293 45.37963867 C-73.87013775 33.45653149 -86.82944685 25.95967304 -103.76953125 25.59375 C-121.23205363 25.78777803 -134.27094101 32.89856931 -146.51953125 45.09375 C-148.02521989 46.65076894 -149.52604032 48.21252725 -151.01953125 49.78125 C-152.0162472 50.7845233 -153.01471206 51.78609253 -154.01953125 52.78125 C-152.21961029 36.41452688 -142.80655308 19.88623502 -132.01953125 7.78125 C-131.354375 7.02199219 -130.68921875 6.26273438 -130.00390625 5.48046875 C-97.76389538 -29.08798735 -36.32311348 -26.69020499 0 0 Z " fill="#010101" transform="translate(435.01953125,167.21875)"/>
<path d="M0 0 C4.29 0 8.58 0 13 0 C13 19.14 13 38.28 13 58 C9.37 58 5.74 58 2 58 C1.505 55.03 1.505 55.03 1 52 C0.2575 52.78375 -0.485 53.5675 -1.25 54.375 C-6.46278816 59.35084325 -10.66066362 59.49792654 -17.73046875 59.37890625 C-22.47143877 58.82947484 -25.54955594 57.25449292 -29 54 C-35.05149452 46.35600692 -35.71432735 39.50516237 -35 30 C-33.80639743 23.39178212 -30.14192144 19.15264796 -25 15 C-20.50152858 12.2036529 -15.14319095 12.45600865 -10 13 C-5.94892337 14.54677471 -4.08886105 15.91113895 -1 19 C-0.67 12.73 -0.34 6.46 0 0 Z " fill="#080808" transform="translate(435,518)"/>
<path d="M0 0 C3.96 0 7.92 0 12 0 C14.20425091 6.38004589 16.06342616 12.7622324 17.6875 19.3125 C17.91244141 20.19228516 18.13738281 21.07207031 18.36914062 21.97851562 C18.58119141 22.82736328 18.79324219 23.67621094 19.01171875 24.55078125 C19.20209717 25.31044189 19.39247559 26.07010254 19.58862305 26.8527832 C20 29 20 29 20 33 C20.66 33 21.32 33 22 33 C22.16604736 31.91114502 22.16604736 31.91114502 22.33544922 30.80029297 C22.84322888 27.49100676 23.35903675 24.18301973 23.875 20.875 C24.13603516 19.16183594 24.13603516 19.16183594 24.40234375 17.4140625 C24.66337891 15.75117187 24.66337891 15.75117187 24.9296875 14.0546875 C25.08679199 13.03874512 25.24389648 12.02280273 25.40576172 10.97607422 C26 8 26 8 28 2 C32.62 2 37.24 2 42 2 C43.73590265 7.8728669 45.20409464 13.79376299 46.625 19.75 C46.85445313 20.69488281 47.08390625 21.63976562 47.3203125 22.61328125 C47.536875 23.51949219 47.7534375 24.42570313 47.9765625 25.359375 C48.17330566 26.17889648 48.37004883 26.99841797 48.57275391 27.84277344 C49 30 49 30 49 33 C49.66 33 50.32 33 51 33 C51.08636719 32.37738281 51.17273438 31.75476563 51.26171875 31.11328125 C52.86058118 20.59599351 55.46730335 10.32412223 58 0 C61.96 0 65.92 0 70 0 C67.84111732 10.76901478 65.46298025 21.46549464 62.8125 32.125 C62.55065918 33.18589844 62.28881836 34.24679687 62.01904297 35.33984375 C61.64803467 36.81517578 61.64803467 36.81517578 61.26953125 38.3203125 C61.04885986 39.19961426 60.82818848 40.07891602 60.60083008 40.98486328 C60 43 60 43 59 44 C57.65732587 44.08631874 56.31025678 44.10706473 54.96484375 44.09765625 C54.15595703 44.09443359 53.34707031 44.09121094 52.51367188 44.08789062 C51.66353516 44.07951172 50.81339844 44.07113281 49.9375 44.0625 C49.08349609 44.05798828 48.22949219 44.05347656 47.34960938 44.04882812 C45.23304337 44.03700373 43.11651315 44.01906769 41 44 C40.15731913 40.60641656 39.32752099 37.20980915 38.5 33.8125 C38.26152344 32.85279297 38.02304687 31.89308594 37.77734375 30.90429688 C37.55175781 29.97294922 37.32617188 29.04160156 37.09375 28.08203125 C36.77954102 26.80162964 36.77954102 26.80162964 36.45898438 25.49536133 C35.98906266 22.94053693 35.91882373 20.59155241 36 18 C35.34 18 34.68 18 34 18 C33.97421875 18.53625 33.9484375 19.0725 33.921875 19.625 C33.312511 28.0453025 31.14022644 35.85333162 29 44 C23.06 44 17.12 44 11 44 C7.99220968 34.09198484 5.2117648 24.1676113 2.6875 14.125 C2.42114746 13.073125 2.15479492 12.02125 1.88037109 10.9375 C1.63496582 9.95007813 1.38956055 8.96265625 1.13671875 7.9453125 C0.80740356 6.62297607 0.80740356 6.62297607 0.47143555 5.27392578 C0 3 0 3 0 0 Z " fill="#060606" transform="translate(251,532)"/>
<path d="M0 0 C6.09176133 4.61307738 9.50169109 9.47724068 11 17 C11 17.66 11 18.32 11 19 C6.38 19 1.76 19 -3 19 C-3.66 17.35 -4.32 15.7 -5 14 C-9.98798991 9.51080908 -12.96513951 8.70017807 -19.52734375 8.78515625 C-24.15969713 9.18765141 -26.2705401 11.16922622 -29.25 14.5625 C-33.27183538 20.16434214 -32.527888 26.30608683 -32 33 C-30.80807347 37.30777794 -29.33307435 40.01279202 -25.7265625 42.68359375 C-20.03683441 45.43064012 -13.36099651 44.70415686 -7.4375 42.9375 C-4.12185069 40.30198388 -3.35263743 37.98276578 -2 34 C2.62 34 7.24 34 12 34 C10.59065816 41.17483121 8.64744551 47.352012 2.51953125 51.80078125 C-6.97970838 57.54418876 -14.97019468 58.07486858 -26 57 C-33.96822929 54.87704285 -39.1406289 49.90965971 -43.21484375 42.9140625 C-48.08043797 33.59844082 -48.06884229 22.90476113 -45.0625 12.87109375 C-41.46123204 5.11178286 -35.83711961 0.30900606 -28 -3 C-18.93843185 -5.85308798 -8.09135629 -4.97821747 0 0 Z " fill="#050505" transform="translate(517,520)"/>
<path d="M0 0 C3.66874931 2.13811851 6.42941261 3.97094151 8.4375 7.8125 C9.02583893 10.84628251 9.25243118 13.71259731 9.4375 16.8125 C5.1475 16.8125 0.8575 16.8125 -3.5625 16.8125 C-4.2225 15.1625 -4.8825 13.5125 -5.5625 11.8125 C-8.55988941 9.81424039 -9.19597508 9.53699602 -12.5625 9.5625 C-13.243125 9.55734375 -13.92375 9.5521875 -14.625 9.546875 C-16.88666007 9.71332397 -16.88666007 9.71332397 -19.5625 11.8125 C-19.92612818 14.01975073 -19.92612818 14.01975073 -19.75 16.4375 C-19.72292969 17.25476563 -19.69585938 18.07203125 -19.66796875 18.9140625 C-19.63316406 19.54054688 -19.59835937 20.16703125 -19.5625 20.8125 C-17.644375 21.05033203 -17.644375 21.05033203 -15.6875 21.29296875 C-13.97902941 21.52764878 -12.27070329 21.76338221 -10.5625 22 C-9.72332031 22.10119141 -8.88414062 22.20238281 -8.01953125 22.30664062 C-0.17327969 23.43187825 6.28719913 26.63213896 11.4375 32.8125 C13.10786969 37.82360908 13.42324306 43.03318542 11.63671875 48.0703125 C9.20872559 52.45905615 6.06227932 55.72808159 1.55859375 57.9609375 C-7.09637724 60.32236888 -18.92718676 60.86362746 -27.0625 56.6875 C-31.0688641 53.80388713 -33.97558902 50.6104463 -35.015625 45.65234375 C-35.27536555 43.71454256 -35.42798287 41.76299833 -35.5625 39.8125 C-31.2725 39.8125 -26.9825 39.8125 -22.5625 39.8125 C-21.9025 41.4625 -21.2425 43.1125 -20.5625 44.8125 C-17.09579764 47.1236349 -15.70595123 47.05548883 -11.625 47 C-10.58472656 46.99355469 -9.54445313 46.98710938 -8.47265625 46.98046875 C-6.00183308 46.83785748 -3.92072959 46.52281012 -1.5625 45.8125 C-1.4696875 43.894375 -1.4696875 43.894375 -1.375 41.9375 C-1.32279297 40.85855469 -1.32279297 40.85855469 -1.26953125 39.7578125 C-1.36621094 39.11585938 -1.46289062 38.47390625 -1.5625 37.8125 C-5.76024224 35.01400517 -10.24158998 34.75899162 -15.13867188 34.04492188 C-23.05979674 32.78616542 -27.83272249 30.29905201 -32.5625 23.8125 C-34.50045159 17.99864524 -34.58305692 11.89141224 -31.875 6.375 C-23.5608426 -2.83798523 -11.43121482 -5.38537231 0 0 Z " fill="#050505" transform="translate(567.5625,518.1875)"/>
<path d="M0 0 C4.61100954 2.11669188 7.94933757 5.70803264 10.5625 10 C11.36604492 12.81719021 11.50960931 15.03812135 11.5625 18 C7.2725 18 2.9825 18 -1.4375 18 C-2.0975 16.35 -2.7575 14.7 -3.4375 13 C-7.1187441 10.54583727 -10.16011963 10.40615846 -14.4375 11 C-16.8970774 12.33830958 -16.8970774 12.33830958 -18.4375 14 C-18.1075 16.31 -17.7775 18.62 -17.4375 21 C-13.64641773 22.70211857 -10.24204965 23.39180136 -6.125 23.875 C1.08229077 24.93369808 6.64883915 26.49050723 11.5 32.125 C15.0519397 37.07618868 15.32715963 40.98819322 14.5625 47 C12.20560695 53.21458794 8.49062433 56.30539803 2.5625 59 C-1.6777653 60.25952131 -5.79396261 60.25865763 -10.1875 60.3125 C-10.9609375 60.34150391 -11.734375 60.37050781 -12.53125 60.40039062 C-19.88007605 60.48053722 -24.96980129 58.2576818 -30.375 53.3125 C-33.05538912 49.00763262 -33.20885547 46.03017956 -33.4375 41 C-29.4775 41 -25.5175 41 -21.4375 41 C-21.19 41.969375 -20.9425 42.93875 -20.6875 43.9375 C-20.275 44.948125 -19.8625 45.95875 -19.4375 47 C-16.22669901 48.27401049 -12.85798387 48.19869274 -9.4375 48.25 C-8.40625 48.27578125 -7.375 48.3015625 -6.3125 48.328125 C-3.0646529 47.9574468 -1.70626384 47.32818385 0.5625 45 C0.89647787 41.87413125 0.89647787 41.87413125 0.5625 39 C-3.72421298 36.80901336 -7.05198429 35.83119168 -11.875 35.5625 C-17.86858307 35.13497418 -22.6284176 33.73903047 -27.00390625 29.47265625 C-31.59025624 24.12844785 -31.95996511 20.2597438 -31.9140625 13.34375 C-31.27848733 8.88430455 -29.65188846 6.73819981 -26.5546875 3.5859375 C-18.82273417 -2.2058947 -9.19150637 -2.77004302 0 0 Z " fill="#050505" transform="translate(617.4375,517)"/>
<path d="M0 0 C3.70877584 -0.08114826 7.41576511 -0.14057594 11.125 -0.1875 C12.17171875 -0.21263672 13.2184375 -0.23777344 14.296875 -0.26367188 C20.80001001 -0.3254105 25.66097758 -0.11694967 30.64453125 4.53515625 C34.47437446 9.54341276 35.1425225 12.22899848 35.09765625 18.4140625 C35.0962413 19.14370209 35.09482635 19.87334167 35.09336853 20.62509155 C35.08776531 22.95843585 35.07521235 25.29168464 35.0625 27.625 C35.05748541 29.20572778 35.05292243 30.78645707 35.04882812 32.3671875 C35.03779484 36.24482854 35.02052811 40.12239807 35 44 C31.7 44 28.4 44 25 44 C24.505 41.525 24.505 41.525 24 39 C23.2575 39.804375 22.515 40.60875 21.75 41.4375 C17.44817815 45.44601581 13.24790909 45.34861102 7.5390625 45.28125 C2.58461958 44.73245017 -0.62355771 42.55404775 -3.9375 38.8125 C-5.45597309 34.7930124 -5.6731919 31.24110897 -5 27 C-2.51460201 22.02920402 0.39379498 19.23015405 5.671875 17.4296875 C9.02557617 16.81071581 12.35390064 16.89577099 15.75 16.9375 C16.44738281 16.94201172 17.14476562 16.94652344 17.86328125 16.95117188 C19.57555803 16.9628998 21.28779033 16.98083347 23 17 C21.88145414 13.27385847 21.88145414 13.27385847 19 11 C17.55151418 10.91657841 16.09929131 10.89267139 14.6484375 10.90234375 C13.37226563 10.90717773 13.37226563 10.90717773 12.0703125 10.91210938 C11.18085938 10.92048828 10.29140625 10.92886719 9.375 10.9375 C8.02921875 10.94426758 8.02921875 10.94426758 6.65625 10.95117188 C4.43747169 10.96297389 2.21872757 10.98090961 0 11 C0 7.37 0 3.74 0 0 Z " fill="#030303" transform="translate(162,532)"/>
<path d="M0 0 C3.29599603 2.27580678 5.85463251 4.64731234 7.22436523 8.49707031 C7.79631154 11.80257842 7.74726194 15.07905409 7.72265625 18.421875 C7.7212413 19.14868469 7.71982635 19.87549438 7.71836853 20.62432861 C7.71278792 22.93709494 7.70023904 25.24976312 7.6875 27.5625 C7.68248249 29.13411318 7.67792002 30.70572789 7.67382812 32.27734375 C7.66282485 36.12243343 7.64557361 39.9674501 7.625 43.8125 C3.665 43.8125 -0.295 43.8125 -4.375 43.8125 C-4.39481934 42.94971436 -4.41463867 42.08692871 -4.43505859 41.19799805 C-4.51319644 37.99413044 -4.59989082 34.79064106 -4.69238281 31.5871582 C-4.7306435 30.20118093 -4.76550156 28.81510535 -4.796875 27.42895508 C-4.84258699 25.4354836 -4.90158925 23.44233086 -4.9609375 21.44921875 C-5.00806885 19.65037231 -5.00806885 19.65037231 -5.05615234 17.81518555 C-5.15929494 14.63367294 -5.15929494 14.63367294 -7.375 11.8125 C-11.3843115 10.74801399 -11.3843115 10.74801399 -15.375 10.8125 C-18.30314008 13.04774492 -19.27768589 14.25699135 -19.92089844 17.92871094 C-19.9418457 19.12270508 -19.96279297 20.31669922 -19.984375 21.546875 C-20.01660156 22.84238281 -20.04882812 24.13789062 -20.08203125 25.47265625 C-20.09677469 26.83593302 -20.11109222 28.19921445 -20.125 29.5625 C-20.15316814 30.94144376 -20.18309678 32.32035275 -20.21484375 33.69921875 C-20.2855593 37.0699935 -20.33254094 40.44125093 -20.375 43.8125 C-24.665 43.8125 -28.955 43.8125 -33.375 43.8125 C-33.375 29.2925 -33.375 14.7725 -33.375 -0.1875 C-30.075 -0.1875 -26.775 -0.1875 -23.375 -0.1875 C-23.045 2.4525 -22.715 5.0925 -22.375 7.8125 C-21.941875 7.049375 -21.50875 6.28625 -21.0625 5.5 C-16.19227243 -2.25628835 -8.34204642 -2.93516448 0 0 Z " fill="#030303" transform="translate(385.375,532.1875)"/>
<path d="M0 0 C14.85 0 29.7 0 45 0 C45 3.63 45 7.26 45 11 C39.72 11 34.44 11 29 11 C29 26.51 29 42.02 29 58 C24.71 58 20.42 58 16 58 C16 42.49 16 26.98 16 11 C10.72 11 5.44 11 0 11 C0 7.37 0 3.74 0 0 Z " fill="#010101" transform="translate(112,518)"/>
<path d="M0 0 C5.94 0 11.88 0 18 0 C18 19.14 18 38.28 18 58 C13.71 58 9.42 58 5 58 C5 41.83 5 25.66 5 9 C3.35 9 1.7 9 0 9 C0 6.03 0 3.06 0 0 Z " fill="#040404" transform="translate(227,518)"/>
<path d="M0 0 C6.27 0 12.54 0 19 0 C19 14.52 19 29.04 19 44 C14.71 44 10.42 44 6 44 C6 32.78 6 21.56 6 10 C4.02 10 2.04 10 0 10 C0 6.7 0 3.4 0 0 Z " fill="#060606" transform="translate(323,532)"/>
<path d="M0 0 C6.27 0 12.54 0 19 0 C19 14.52 19 29.04 19 44 C14.71 44 10.42 44 6 44 C6 32.78 6 21.56 6 10 C4.02 10 2.04 10 0 10 C0 6.7 0 3.4 0 0 Z " fill="#090909" transform="translate(202,532)"/>
<path d="M0 0 C3.52321907 0.86318867 5.20098615 2.74024075 7.34375 5.57421875 C7.67375 5.90421875 8.00375 6.23421875 8.34375 6.57421875 C8.90022308 11.92913179 8.99789509 16.28848529 6.53125 21.13671875 C3.75886924 24.22594303 2.19778642 25.47753538 -1.96875 25.94921875 C-6.32756604 25.50594932 -8.31973383 24.36758112 -11.65625 21.57421875 C-14.40246726 17.1293104 -14.51004938 12.64268236 -13.65625 7.57421875 C-10.82948719 1.28634084 -6.69790204 -0.45392408 0 0 Z " fill="#F8F8F8" transform="translate(426.65625,541.42578125)"/>
<path d="M0 0 C0.98484375 0.02707031 1.9696875 0.05414062 2.984375 0.08203125 C3.73203125 0.11683594 4.4796875 0.15164063 5.25 0.1875 C4.90763924 8.35280404 4.90763924 8.35280404 2.625 11.25 C-0.68390337 12.55614607 -3.22799704 12.5717185 -6.75 12.1875 C-8.6875 11.0625 -8.6875 11.0625 -9.75 9.1875 C-10.1875 6.1875 -10.1875 6.1875 -9.75 3.1875 C-6.64700657 0.06997264 -4.29682067 -0.15345788 0 0 Z " fill="#F2F2F2" transform="translate(179.75,555.8125)"/>
<path d="M0 0 C2 1.0625 2 1.0625 3 3 C3.4375 6.5 3.4375 6.5 3 10 C0.79803976 12.62541413 -0.61973579 12.9445448 -4 13.4375 C-7 13 -7 13 -9.375 11.375 C-11.46379841 8.32214079 -11.54068562 6.63031776 -11 3 C-8.76734719 -1.18622402 -4.17412169 -0.61742217 0 0 Z " fill="#0A0A0A" transform="translate(217,515)"/>
<path d="M0 0 C2 1.125 2 1.125 3 3 C3.54068562 6.63031776 3.46379841 8.32214079 1.375 11.375 C-1.71186432 13.48706506 -3.3282913 13.61195145 -7 13 C-9.375 11.375 -9.375 11.375 -11 9 C-11.44912849 5.85610056 -11.504106 3.94519875 -10 1.125 C-6.78179676 -0.68523932 -3.59783102 -0.53967465 0 0 Z " fill="#090909" transform="translate(338,515)"/>
</svg>
