<?xml version="1.0" encoding="UTF-8"?>
<svg version="1.1" xmlns="http://www.w3.org/2000/svg" width="744" height="744">
<path d="M0 0 C245.52 0 491.04 0 744 0 C744 245.52 744 491.04 744 744 C498.48 744 252.96 744 0 744 C0 498.48 0 252.96 0 0 Z " fill="#FEFEFE" transform="translate(0,0)"/>
<path d="M0 0 C245.52 0 491.04 0 744 0 C744 245.52 744 491.04 744 744 C498.48 744 252.96 744 0 744 C0 498.48 0 252.96 0 0 Z M9.80056715 9.8018924 C7.03422603 14.71537567 7.3163767 19.24814495 7.37638092 24.79892731 C7.36971291 26.01376248 7.3630449 27.22859765 7.35617483 28.48024601 C7.34269313 31.86457682 7.35171521 35.2475154 7.37006495 38.63173568 C7.38451881 42.30866433 7.37003061 45.98549551 7.35917997 49.66242075 C7.3441767 56.11065686 7.34782999 62.55867528 7.36359787 69.00690651 C7.38698045 78.59544912 7.38182814 88.18382714 7.37088897 97.77238439 C7.3522807 114.89535587 7.3620329 132.0182235 7.38336661 149.14118652 C7.40190447 164.12552966 7.41034689 179.10983788 7.40879822 194.0941925 C7.40870654 195.08713382 7.40861487 196.08007514 7.40852041 197.10310559 C7.40812727 201.13351405 7.40767765 205.16392249 7.40714902 209.19433093 C7.40227504 247.02278317 7.42495935 284.85117344 7.46110525 322.67960642 C7.49309987 356.30708768 7.50514905 389.93451599 7.49902344 423.56201172 C7.49863659 425.72113818 7.49825014 427.88026464 7.49786407 430.0393911 C7.49767272 431.10680882 7.49748138 432.17422655 7.49728423 433.27399026 C7.49632993 438.6469368 7.49541556 444.01988334 7.49454498 449.3928299 C7.49437119 450.45276959 7.4941974 451.51270929 7.49401833 452.60476837 C7.48966566 480.68194229 7.49967212 508.75911048 7.51438284 536.83628035 C7.51490298 537.83474409 7.51542312 538.83320783 7.51595903 539.86192806 C7.51647837 540.85859533 7.51699771 541.8552626 7.5175328 542.8821319 C7.51805054 543.87700353 7.51856828 544.87187516 7.51910171 545.89689441 C7.5201498 547.90052128 7.52121001 549.90414814 7.52228243 551.907775 C7.52967085 565.89145662 7.53174981 579.87513015 7.53028842 593.85881348 C7.52844479 611.87716422 7.53647301 629.89546502 7.56192988 647.91379941 C7.57511985 657.44869893 7.58009129 666.98351871 7.57329134 676.51842542 C7.56959099 682.88034094 7.57674167 689.24218342 7.59288373 695.60407941 C7.60179303 699.23356274 7.6059069 702.86288152 7.59695655 706.49236852 C7.58745448 710.39536815 7.60095618 714.29808935 7.61688995 718.20107269 C7.61043815 719.33682407 7.60398635 720.47257544 7.59733903 721.64274353 C7.60536204 722.680459 7.61338505 723.71817448 7.62165117 724.78733587 C7.62230193 725.68014213 7.62295269 726.57294839 7.62362316 727.49280939 C8.08697771 730.57939193 9.19314279 732.47625141 11 735 C13.46720783 736.23360391 15.0797692 736.12605837 17.84006864 736.1276505 C18.87104223 736.13066647 19.90201583 736.13368244 20.96423104 736.1367898 C22.67967967 736.13413559 22.67967967 736.13413559 24.42978382 736.13142776 C25.64115746 736.1334804 26.8525311 736.13553303 28.10061303 736.13764787 C31.4887388 736.14235582 34.87681191 736.14253775 38.2649371 736.14087028 C41.94125807 736.14014185 45.61757179 736.14515581 49.2938897 736.1494453 C56.5969285 736.15704219 63.89995999 736.15921921 71.20300233 736.15977435 C79.94571879 736.16068632 88.68842845 736.16734887 97.431142 736.17412117 C118.56450522 736.19020037 139.69786774 736.19608649 160.83123598 736.20086992 C170.82315111 736.2032038 180.81506566 736.20680621 190.80698033 736.2105653 C224.99157819 736.22340208 259.17617573 736.2341215 293.36077595 736.2375679 C295.50769435 736.23778954 297.65461275 736.23801132 299.80153115 736.23823325 C301.95371722 736.2384539 304.10590329 736.23867438 306.25808936 736.2388947 C310.57594955 736.23933726 314.89380974 736.23978437 319.21166992 736.24023438 C320.28225257 736.24034377 321.35283521 736.24045316 322.45585975 736.24056586 C357.18335173 736.24419792 391.91082286 736.26012295 426.63830686 736.28342474 C463.3302955 736.30799981 500.02227222 736.32173965 536.71426934 736.32293582 C540.73917687 736.32310728 544.7640844 736.32332271 548.78899193 736.32357025 C550.2756251 736.3236539 550.2756251 736.3236539 551.79229126 736.32373925 C567.76759625 736.32489168 583.7428799 736.33592997 599.71817767 736.35045731 C615.76387933 736.36479679 631.80955351 736.36807375 647.85525981 736.36001733 C657.39681847 736.35554909 666.9382887 736.35946918 676.4798358 736.37525584 C682.84628049 736.38496723 689.21266287 736.38386456 695.57910691 736.37381961 C699.2112434 736.36839967 702.84320945 736.36780636 706.47533218 736.38032833 C710.38120136 736.3936823 714.28681478 736.38402046 718.19269276 736.3719368 C719.32930167 736.37953199 720.46591059 736.38712718 721.63696221 736.39495254 C722.67544635 736.38795443 723.7139305 736.38095633 724.78388387 736.37374616 C725.67736135 736.37399036 726.57083883 736.37423456 727.49139138 736.37448616 C730.57992042 735.91342923 732.47526606 734.80806178 735 733 C736.23412317 730.53175367 736.12697974 728.91508309 736.12995183 726.15351933 C736.13348025 725.12111232 736.13700867 724.08870531 736.14064401 723.02501324 C736.13944624 721.87977648 736.13824846 720.73453971 736.13701439 719.55459881 C736.14099213 717.73500579 736.14099213 717.73500579 736.14505023 715.87865332 C736.15142764 712.48579414 736.15327949 709.09298542 736.153273 705.7001237 C736.1543394 702.01866802 736.16112621 698.33722227 736.1671797 694.65577203 C736.17827259 687.34253271 736.18390822 680.0292982 736.18788858 672.71605195 C736.19289087 663.96112262 736.20361725 655.20620264 736.21437032 646.45127882 C736.24002016 625.28840081 736.25503895 604.12551915 736.26788078 582.96263005 C736.27213339 575.95562972 736.27669906 568.94862965 736.2814641 561.94162965 C736.3067205 524.71044634 736.32877566 487.47926261 736.34119225 450.24807262 C736.34411373 441.61907639 736.34708122 432.99008018 736.35009766 424.36108398 C736.35046857 423.2890065 736.35083947 422.21692901 736.35122162 421.11236433 C736.36338292 386.33635539 736.39433586 351.56039699 736.43601918 316.78441179 C736.47876953 281.05323134 736.50542846 245.32207758 736.51066696 209.59087085 C736.51140746 204.54831056 736.51231815 199.50575032 736.51332474 194.46319008 C736.51351535 193.47071815 736.51370597 192.47824622 736.51390236 191.45569938 C736.51742132 175.45805913 736.53774392 159.46048202 736.56412137 143.46286498 C736.59021642 127.39474843 736.59801448 111.32670511 736.58702008 95.2585704 C736.58102662 85.70361934 736.589042 76.14891602 736.61685092 66.59400228 C736.63403845 60.21863721 736.63320879 53.84344203 736.61748323 47.46807354 C736.60903129 43.83075076 736.60862911 40.19390241 736.63009469 36.55662265 C736.65299391 32.64516604 736.63753112 28.73441259 736.61803246 24.82292461 C736.63088168 23.68471135 736.6437309 22.54649809 736.65696949 21.37379351 C736.60645902 16.80334799 736.46405708 13.82478926 734.19978201 9.80039257 C729.28180096 7.0332364 724.74073244 7.31361858 719.18545532 7.3707943 C717.36067001 7.35989349 717.36067001 7.35989349 715.49902034 7.34877247 C712.10996408 7.33362638 708.72228667 7.34097776 705.33332512 7.35766223 C701.65125488 7.37031588 697.96929562 7.35405815 694.28724098 7.34144557 C687.8300003 7.32335845 681.37296848 7.32395231 674.91571808 7.33668137 C665.31376481 7.35555827 655.71198843 7.34594371 646.11003643 7.33063983 C628.96314613 7.30427897 611.81634883 7.30660583 594.66944963 7.32103439 C579.66416493 7.33359927 564.65891437 7.33690172 549.65362549 7.33092117 C548.65929782 7.33053925 547.66497016 7.33015732 546.64051135 7.32976382 C542.60447594 7.3282072 538.56844055 7.3266152 534.53240518 7.324965 C496.65111984 7.30966102 458.76989384 7.32355153 420.88861766 7.35044949 C387.21412478 7.37417852 353.53972643 7.37205542 319.86523438 7.34814453 C282.05439236 7.3213865 244.24360278 7.31074626 206.43275261 7.32620585 C202.40395992 7.3278095 198.37516722 7.3293737 194.34637451 7.33092117 C193.35434208 7.33131656 192.36230966 7.33171195 191.34021564 7.33211931 C176.34229493 7.33781294 161.34441206 7.33114367 146.34649658 7.31852341 C129.29763424 7.30424909 112.24887967 7.30775415 95.2000308 7.33492713 C85.65174505 7.34964237 76.10369251 7.35051859 66.55541266 7.33169625 C60.18457023 7.32051979 53.81391555 7.32739738 47.44310104 7.3492201 C43.80843657 7.36116149 40.17423682 7.36508423 36.53958631 7.34719019 C32.63098861 7.32814287 28.72313199 7.34744538 24.81454468 7.3707943 C23.67718896 7.35908847 22.53983324 7.34738263 21.36801219 7.33532208 C16.79955038 7.39035379 13.82227851 7.53689998 9.80056715 9.8018924 Z " fill="#000000" transform="translate(0,0)"/>
<path d="M0 0 C5.36664381 3.07564165 9.46908906 7.18536219 13.80957031 11.55078125 C14.94723343 12.68318741 14.94723343 12.68318741 16.10787964 13.83847046 C18.60300216 16.32482012 21.09077276 18.81837872 23.578125 21.3125 C25.31324517 23.04627253 27.0486621 24.7797481 28.78436279 26.51293945 C32.41549331 30.14112497 36.04299043 33.77289459 39.66796875 37.40722656 C44.31736898 42.06803786 48.97571249 46.71979078 53.63679886 51.36891174 C57.21941672 54.94430877 60.79726501 58.52444799 64.37368011 62.10604858 C66.08984262 63.82354608 67.80749434 65.53955686 69.52664948 67.25405884 C71.92530476 69.64764353 74.31746949 72.0475311 76.70800781 74.44921875 C77.4207486 75.15791107 78.13348938 75.86660339 78.86782837 76.59677124 C79.51821075 77.25279327 80.16859314 77.90881531 80.83868408 78.5847168 C81.40424641 79.15103317 81.96980873 79.71734955 82.55250931 80.30082703 C84.88809935 83.04251753 85.90938099 85.30525429 86.375 88.875 C85.5182625 96.01447915 79.31391365 100.97266537 74.44921875 105.80957031 C73.31681259 106.94723343 73.31681259 106.94723343 72.16152954 108.10787964 C69.67517988 110.60300216 67.18162128 113.09077276 64.6875 115.578125 C62.95372747 117.31324517 61.2202519 119.0486621 59.48706055 120.78436279 C55.85887503 124.41549331 52.22710541 128.04299043 48.59277344 131.66796875 C43.93196214 136.31736898 39.28020922 140.97571249 34.63108826 145.63679886 C31.05569123 149.21941672 27.47555201 152.79726501 23.89395142 156.37368011 C22.17645392 158.08984262 20.46044314 159.80749434 18.74594116 161.52664948 C16.35235647 163.92530476 13.9524689 166.31746949 11.55078125 168.70800781 C10.84208893 169.4207486 10.13339661 170.13348938 9.40322876 170.86782837 C8.74720673 171.51821075 8.09118469 172.16859314 7.4152832 172.83868408 C6.84896683 173.40424641 6.28265045 173.96980873 5.69917297 174.55250931 C2.95748247 176.88809935 0.69474571 177.90938099 -2.875 178.375 C-10.01447915 177.5182625 -14.97266537 171.31391365 -19.80957031 166.44921875 C-20.94723343 165.31681259 -20.94723343 165.31681259 -22.10787964 164.16152954 C-24.60300216 161.67517988 -27.09077276 159.18162128 -29.578125 156.6875 C-31.31324517 154.95372747 -33.0486621 153.2202519 -34.78436279 151.48706055 C-38.41549331 147.85887503 -42.04299043 144.22710541 -45.66796875 140.59277344 C-50.31736898 135.93196214 -54.97571249 131.28020922 -59.63679886 126.63108826 C-63.21941672 123.05569123 -66.79726501 119.47555201 -70.37368011 115.89395142 C-72.08984262 114.17645392 -73.80749434 112.46044314 -75.52664948 110.74594116 C-77.92530476 108.35235647 -80.31746949 105.9524689 -82.70800781 103.55078125 C-83.4207486 102.84208893 -84.13348938 102.13339661 -84.86782837 101.40322876 C-85.51821075 100.74720673 -86.16859314 100.09118469 -86.83868408 99.4152832 C-87.40424641 98.84896683 -87.96980873 98.28265045 -88.55250931 97.69917297 C-90.88809935 94.95748247 -91.90938099 92.69474571 -92.375 89.125 C-91.62682215 82.8901846 -87.25256593 79.0985162 -82.93336487 74.93347168 C-81.13319056 73.13319792 -79.4800769 71.28058615 -77.83178711 69.34179688 C-73.75882537 64.65435968 -69.40753821 60.28129546 -65.00390625 55.90625 C-64.17036118 55.07411987 -63.3368161 54.24198975 -62.47801208 53.38464355 C-59.84186738 50.75405065 -57.20224895 48.12697559 -54.5625 45.5 C-52.76344021 43.70596145 -50.9646098 41.91169285 -49.16601562 40.1171875 C-44.77999188 35.74212875 -40.39111858 31.36994488 -36 27 C-31.11168892 29.35317127 -27.6542586 32.70913998 -23.75 36.4375 C-23.00492187 37.09943359 -22.25984375 37.76136719 -21.4921875 38.44335938 C-16.21754515 43.51996113 -16.21754515 43.51996113 -15.57910156 47.86352539 C-15.625 50.8125 -15.625 50.8125 -15.8984375 53.546875 C-16.20778414 56.29367043 -16.20778414 56.29367043 -14.25 59.5625 C-12.14012697 61.84819578 -10.75590241 62.74363272 -8 64 C-7.82225249 71.01051858 -7.69981841 78.02045472 -7.61547852 85.03271484 C-7.58031467 87.41705031 -7.53257384 89.80123526 -7.47192383 92.18505859 C-7.38683116 95.61593769 -7.34726956 99.04481937 -7.31640625 102.4765625 C-7.28027725 103.53928375 -7.24414825 104.602005 -7.20692444 105.69692993 C-7.20305788 113.0143072 -7.20305788 113.0143072 -9.5697937 115.94158936 C-11.48022461 117.53271484 -11.48022461 117.53271484 -13.39512634 118.7996521 C-15.31642831 119.99879331 -15.31642831 119.99879331 -16 123 C-16.38773716 127.73039335 -16.48117872 130.05546399 -14.3125 134.3125 C-10.94954371 138.22080055 -8.73527651 139.81069711 -3.5625 140.375 C1.79067956 139.81150741 4.75836145 138.37233735 8.375 134.375 C10.45116134 130.06297261 10.71281401 126.70283391 10 122 C8.97122608 119.08919881 8.97122608 119.08919881 7 117 C6.14768799 116.68828857 5.29537598 116.37657715 4.41723633 116.05541992 C2 114 2 114 1.56015015 111.83804321 C1.41876737 108.87636607 1.43930113 105.95254301 1.51171875 102.98828125 C1.51879349 101.90491989 1.52586823 100.82155853 1.53315735 99.70536804 C1.56117746 96.24038038 1.62393339 92.77700037 1.6875 89.3125 C1.71257286 86.9655181 1.73538779 84.61851092 1.75585938 82.27148438 C1.81102901 76.5137731 1.89473179 70.75700138 2 65 C9.45949927 68.60268002 16.17613738 75.30216757 21 82 C21.86287063 85.27890841 21.79554821 87.30952048 21.27734375 90.62109375 C20.79747049 94.73718975 22.54263019 96.7917672 25 100 C29.39632674 102.79340164 33.95995985 102.52364054 39 102 C42.16961356 100.71866686 43.57820229 99.4799767 45.8125 96.9375 C47.56766891 92.59576638 47.81046726 88.61229552 47 84 C45.30904867 80.88113422 43.21962291 78.60981146 40 77 C38.16082089 77.14444479 36.32237208 77.29825217 34.484375 77.45703125 C28.02632753 77.50045805 25.06880017 75.59653644 20.546875 71.13867188 C19.78890625 70.32978516 19.0309375 69.52089844 18.25 68.6875 C17.445625 67.92115234 16.64125 67.15480469 15.8125 66.36523438 C12.63242094 63.106735 10.25518659 60.65582239 9.54736328 56.06298828 C9.5859375 53.11328125 9.5859375 53.11328125 9.86865234 50.4074707 C10.20425668 47.72228968 10.20425668 47.72228968 8.375 44.5 C5.60804136 41.58741196 3.82547135 40.27515712 0 39 C-1.5382958 39.14583127 -3.07474273 39.311842 -4.609375 39.4921875 C-9.38519442 39.54708198 -11.44683453 38.29974803 -14.9140625 35.0625 C-16.51070002 33.39988572 -18.08069183 31.71132985 -19.625 30 C-20.84509766 28.71222656 -20.84509766 28.71222656 -22.08984375 27.3984375 C-24.08447604 25.28647389 -26.05203346 23.15492604 -28 21 C-24.12876492 16.38018831 -20.13410909 11.95205552 -15.875 7.6875 C-15.36324219 7.16349609 -14.85148437 6.63949219 -14.32421875 6.09960938 C-9.74056095 1.4982768 -6.61784307 -0.79414117 0 0 Z " fill="#010101" transform="translate(375,171)"/>
<path d="M0 0 C4.6051855 3.48340955 8.01833645 7.52128314 10 13 C10 14.98 10 16.96 10 19 C5.71 19 1.42 19 -3 19 C-3.66 17.35 -4.32 15.7 -5 14 C-9.67485401 9.79263139 -12.46804391 8.69020167 -18.6171875 8.7890625 C-22.27297664 9.11268974 -24.84709953 10.14535267 -28 12 C-33.06641327 18.39967992 -33.77042813 24.05699452 -33 32 C-31.64814415 36.6658339 -29.77146597 39.3731839 -26 42.4375 C-20.73325489 45.18059641 -15.66383777 46.14087475 -9.8046875 44.31640625 C-6.68502092 43.00273502 -6.68502092 43.00273502 -4 41 C-3.67 39.02 -3.34 37.04 -3 35 C-7.95 35 -12.9 35 -18 35 C-18 32.03 -18 29.06 -18 26 C-7.44 26 3.12 26 14 26 C14 28.97 14 31.94 14 35 C12.68 35 11.36 35 10 35 C10.10441406 35.96099609 10.10441406 35.96099609 10.2109375 36.94140625 C10.50119674 41.57864313 10.58265952 45.05726937 7.625 48.8125 C-0.22725967 56.41262289 -8.05402764 57.7306161 -18.66333008 57.58959961 C-27.78234391 57.19289723 -33.67056443 54.78075809 -39.9375 48.0625 C-46.89969905 39.31470166 -47.97816937 29.94152313 -47 19 C-45.11547492 11.10997028 -40.80401829 4.09791834 -33.91015625 -0.34765625 C-23.24272318 -5.88995388 -10.60248501 -5.77547506 0 0 Z " fill="#050505" transform="translate(360,520)"/>
<path d="M0 0 C3.96 0 7.92 0 12 0 C12 3.96 12 7.92 12 12 C16.29 12 20.58 12 25 12 C25 15.3 25 18.6 25 22 C20.71 22 16.42 22 12 22 C12.11350996 25.45906666 12.24026306 28.91675193 12.375 32.375 C12.4059375 33.35984375 12.436875 34.3446875 12.46875 35.359375 C12.50742187 36.30039062 12.54609375 37.24140625 12.5859375 38.2109375 C12.63306885 39.51490479 12.63306885 39.51490479 12.68115234 40.84521484 C12.81229433 43.20961794 12.81229433 43.20961794 15 45 C17.43252661 45.46162427 17.43252661 45.46162427 20.125 45.625 C22.538125 45.810625 22.538125 45.810625 25 46 C25 49.63 25 53.26 25 57 C17.36130882 57.29007688 9.84657315 57.48347445 3.375 52.83203125 C-1.01551293 46.98217169 -0.24231458 39.49759656 -0.125 32.5625 C-0.11597656 31.54478516 -0.10695313 30.52707031 -0.09765625 29.47851562 C-0.07424698 26.98542844 -0.041457 24.49284141 0 22 C-2.31 22 -4.62 22 -7 22 C-7 18.7 -7 15.4 -7 12 C-4.69 12 -2.38 12 0 12 C0 8.04 0 4.08 0 0 Z " fill="#0A0A0A" transform="translate(407,520)"/>
<path d="M0 0 C5.94 0 11.88 0 18 0 C18 14.52 18 29.04 18 44 C14.04 44 10.08 44 6 44 C6 32.78 6 21.56 6 10 C4.02 10 2.04 10 0 10 C0 6.7 0 3.4 0 0 Z " fill="#010101" transform="translate(377,532)"/>
<path d="M0 0 C1.19109375 0.00773438 1.19109375 0.00773438 2.40625 0.015625 C3.2003125 0.01046875 3.994375 0.0053125 4.8125 0 C6.90625 0.265625 6.90625 0.265625 8.90625 2.265625 C9.45864643 9.22581996 9.45864643 9.22581996 7.84375 12.265625 C4.77409865 13.84996118 2.28943857 13.62810949 -1.09375 13.265625 C-3.03125 12.265625 -3.03125 12.265625 -4.09375 10.265625 C-4.44903819 7.46343264 -4.32092012 5.12796855 -4.09375 2.265625 C-2.09375 0.265625 -2.09375 0.265625 0 0 Z " fill="#070707" transform="translate(385.09375,514.734375)"/>
</svg>
