<?xml version="1.0" encoding="UTF-8"?>
<svg version="1.1" xmlns="http://www.w3.org/2000/svg" width="744" height="744">
<path d="M0 0 C245.52 0 491.04 0 744 0 C744 245.52 744 491.04 744 744 C498.48 744 252.96 744 0 744 C0 498.48 0 252.96 0 0 Z " fill="#FEFEFE" transform="translate(0,0)"/>
<path d="M0 0 C73.92 0 147.84 0 224 0 C224 73.92 224 147.84 224 224 C150.08 224 76.16 224 0 224 C0 150.08 0 76.16 0 0 Z " fill="#000000" transform="translate(260,148)"/>
<path d="M0 0 C245.52 0 491.04 0 744 0 C744 245.52 744 491.04 744 744 C498.48 744 252.96 744 0 744 C0 498.48 0 252.96 0 0 Z M9.80056715 9.8018924 C7.03422603 14.71537567 7.3163767 19.24814495 7.37638092 24.79892731 C7.36971291 26.01376248 7.3630449 27.22859765 7.35617483 28.48024601 C7.34269313 31.86457682 7.35171521 35.2475154 7.37006495 38.63173568 C7.38451881 42.30866433 7.37003061 45.98549551 7.35917997 49.66242075 C7.3441767 56.11065686 7.34782999 62.55867528 7.36359787 69.00690651 C7.38698045 78.59544912 7.38182814 88.18382714 7.37088897 97.77238439 C7.3522807 114.89535587 7.3620329 132.0182235 7.38336661 149.14118652 C7.40190447 164.12552966 7.41034689 179.10983788 7.40879822 194.0941925 C7.40870654 195.08713382 7.40861487 196.08007514 7.40852041 197.10310559 C7.40812727 201.13351405 7.40767765 205.16392249 7.40714902 209.19433093 C7.40227504 247.02278317 7.42495935 284.85117344 7.46110525 322.67960642 C7.49309987 356.30708768 7.50514905 389.93451599 7.49902344 423.56201172 C7.49863659 425.72113818 7.49825014 427.88026464 7.49786407 430.0393911 C7.49767272 431.10680882 7.49748138 432.17422655 7.49728423 433.27399026 C7.49632993 438.6469368 7.49541556 444.01988334 7.49454498 449.3928299 C7.49437119 450.45276959 7.4941974 451.51270929 7.49401833 452.60476837 C7.48966566 480.68194229 7.49967212 508.75911048 7.51438284 536.83628035 C7.51490298 537.83474409 7.51542312 538.83320783 7.51595903 539.86192806 C7.51647837 540.85859533 7.51699771 541.8552626 7.5175328 542.8821319 C7.51805054 543.87700353 7.51856828 544.87187516 7.51910171 545.89689441 C7.5201498 547.90052128 7.52121001 549.90414814 7.52228243 551.907775 C7.52967085 565.89145662 7.53174981 579.87513015 7.53028842 593.85881348 C7.52844479 611.87716422 7.53647301 629.89546502 7.56192988 647.91379941 C7.57511985 657.44869893 7.58009129 666.98351871 7.57329134 676.51842542 C7.56959099 682.88034094 7.57674167 689.24218342 7.59288373 695.60407941 C7.60179303 699.23356274 7.6059069 702.86288152 7.59695655 706.49236852 C7.58745448 710.39536815 7.60095618 714.29808935 7.61688995 718.20107269 C7.61043815 719.33682407 7.60398635 720.47257544 7.59733903 721.64274353 C7.60536204 722.680459 7.61338505 723.71817448 7.62165117 724.78733587 C7.62230193 725.68014213 7.62295269 726.57294839 7.62362316 727.49280939 C8.08697771 730.57939193 9.19314279 732.47625141 11 735 C13.46720783 736.23360391 15.0797692 736.12605837 17.84006864 736.1276505 C18.87104223 736.13066647 19.90201583 736.13368244 20.96423104 736.1367898 C22.67967967 736.13413559 22.67967967 736.13413559 24.42978382 736.13142776 C25.64115746 736.1334804 26.8525311 736.13553303 28.10061303 736.13764787 C31.4887388 736.14235582 34.87681191 736.14253775 38.2649371 736.14087028 C41.94125807 736.14014185 45.61757179 736.14515581 49.2938897 736.1494453 C56.5969285 736.15704219 63.89995999 736.15921921 71.20300233 736.15977435 C79.94571879 736.16068632 88.68842845 736.16734887 97.431142 736.17412117 C118.56450522 736.19020037 139.69786774 736.19608649 160.83123598 736.20086992 C170.82315111 736.2032038 180.81506566 736.20680621 190.80698033 736.2105653 C224.99157819 736.22340208 259.17617573 736.2341215 293.36077595 736.2375679 C295.50769435 736.23778954 297.65461275 736.23801132 299.80153115 736.23823325 C301.95371722 736.2384539 304.10590329 736.23867438 306.25808936 736.2388947 C310.57594955 736.23933726 314.89380974 736.23978437 319.21166992 736.24023438 C320.28225257 736.24034377 321.35283521 736.24045316 322.45585975 736.24056586 C357.18335173 736.24419792 391.91082286 736.26012295 426.63830686 736.28342474 C463.3302955 736.30799981 500.02227222 736.32173965 536.71426934 736.32293582 C540.73917687 736.32310728 544.7640844 736.32332271 548.78899193 736.32357025 C550.2756251 736.3236539 550.2756251 736.3236539 551.79229126 736.32373925 C567.76759625 736.32489168 583.7428799 736.33592997 599.71817767 736.35045731 C615.76387933 736.36479679 631.80955351 736.36807375 647.85525981 736.36001733 C657.39681847 736.35554909 666.9382887 736.35946918 676.4798358 736.37525584 C682.84628049 736.38496723 689.21266287 736.38386456 695.57910691 736.37381961 C699.2112434 736.36839967 702.84320945 736.36780636 706.47533218 736.38032833 C710.38120136 736.3936823 714.28681478 736.38402046 718.19269276 736.3719368 C719.32930167 736.37953199 720.46591059 736.38712718 721.63696221 736.39495254 C722.67544635 736.38795443 723.7139305 736.38095633 724.78388387 736.37374616 C725.67736135 736.37399036 726.57083883 736.37423456 727.49139138 736.37448616 C730.57992042 735.91342923 732.47526606 734.80806178 735 733 C736.23412317 730.53175367 736.12697974 728.91508309 736.12995183 726.15351933 C736.13348025 725.12111232 736.13700867 724.08870531 736.14064401 723.02501324 C736.13944624 721.87977648 736.13824846 720.73453971 736.13701439 719.55459881 C736.14099213 717.73500579 736.14099213 717.73500579 736.14505023 715.87865332 C736.15142764 712.48579414 736.15327949 709.09298542 736.153273 705.7001237 C736.1543394 702.01866802 736.16112621 698.33722227 736.1671797 694.65577203 C736.17827259 687.34253271 736.18390822 680.0292982 736.18788858 672.71605195 C736.19289087 663.96112262 736.20361725 655.20620264 736.21437032 646.45127882 C736.24002016 625.28840081 736.25503895 604.12551915 736.26788078 582.96263005 C736.27213339 575.95562972 736.27669906 568.94862965 736.2814641 561.94162965 C736.3067205 524.71044634 736.32877566 487.47926261 736.34119225 450.24807262 C736.34411373 441.61907639 736.34708122 432.99008018 736.35009766 424.36108398 C736.35046857 423.2890065 736.35083947 422.21692901 736.35122162 421.11236433 C736.36338292 386.33635539 736.39433586 351.56039699 736.43601918 316.78441179 C736.47876953 281.05323134 736.50542846 245.32207758 736.51066696 209.59087085 C736.51140746 204.54831056 736.51231815 199.50575032 736.51332474 194.46319008 C736.51351535 193.47071815 736.51370597 192.47824622 736.51390236 191.45569938 C736.51742132 175.45805913 736.53774392 159.46048202 736.56412137 143.46286498 C736.59021642 127.39474843 736.59801448 111.32670511 736.58702008 95.2585704 C736.58102662 85.70361934 736.589042 76.14891602 736.61685092 66.59400228 C736.63403845 60.21863721 736.63320879 53.84344203 736.61748323 47.46807354 C736.60903129 43.83075076 736.60862911 40.19390241 736.63009469 36.55662265 C736.65299391 32.64516604 736.63753112 28.73441259 736.61803246 24.82292461 C736.63088168 23.68471135 736.6437309 22.54649809 736.65696949 21.37379351 C736.60645902 16.80334799 736.46405708 13.82478926 734.19978201 9.80039257 C729.28180096 7.0332364 724.74073244 7.31361858 719.18545532 7.3707943 C717.36067001 7.35989349 717.36067001 7.35989349 715.49902034 7.34877247 C712.10996408 7.33362638 708.72228667 7.34097776 705.33332512 7.35766223 C701.65125488 7.37031588 697.96929562 7.35405815 694.28724098 7.34144557 C687.8300003 7.32335845 681.37296848 7.32395231 674.91571808 7.33668137 C665.31376481 7.35555827 655.71198843 7.34594371 646.11003643 7.33063983 C628.96314613 7.30427897 611.81634883 7.30660583 594.66944963 7.32103439 C579.66416493 7.33359927 564.65891437 7.33690172 549.65362549 7.33092117 C548.65929782 7.33053925 547.66497016 7.33015732 546.64051135 7.32976382 C542.60447594 7.3282072 538.56844055 7.3266152 534.53240518 7.324965 C496.65111984 7.30966102 458.76989384 7.32355153 420.88861766 7.35044949 C387.21412478 7.37417852 353.53972643 7.37205542 319.86523438 7.34814453 C282.05439236 7.3213865 244.24360278 7.31074626 206.43275261 7.32620585 C202.40395992 7.3278095 198.37516722 7.3293737 194.34637451 7.33092117 C193.35434208 7.33131656 192.36230966 7.33171195 191.34021564 7.33211931 C176.34229493 7.33781294 161.34441206 7.33114367 146.34649658 7.31852341 C129.29763424 7.30424909 112.24887967 7.30775415 95.2000308 7.33492713 C85.65174505 7.34964237 76.10369251 7.35051859 66.55541266 7.33169625 C60.18457023 7.32051979 53.81391555 7.32739738 47.44310104 7.3492201 C43.80843657 7.36116149 40.17423682 7.36508423 36.53958631 7.34719019 C32.63098861 7.32814287 28.72313199 7.34744538 24.81454468 7.3707943 C23.67718896 7.35908847 22.53983324 7.34738263 21.36801219 7.33532208 C16.79955038 7.39035379 13.82227851 7.53689998 9.80056715 9.8018924 Z " fill="#000000" transform="translate(0,0)"/>
<path d="M0 0 C0.84344971 0.00829834 1.68689941 0.01659668 2.5559082 0.02514648 C12.18205567 0.28738085 17.79745465 3.29068779 24.99609375 9.55859375 C26.86660457 11.71618537 27.70772032 13.75019319 28.625 16.4375 C26.36192309 17.97113072 24.09083175 19.48934259 21.8125 21 C21.16990234 21.43763672 20.52730469 21.87527344 19.86523438 22.32617188 C18.1682482 23.44284154 16.39922942 24.44814506 14.625 25.4375 C10.92155972 24.20301991 9.32249018 22.20415659 6.625 19.4375 C3.39264385 17.82132193 0.1193052 17.86400716 -3.375 18.4375 C-6.6051177 20.2508497 -6.6051177 20.2508497 -8.375 23.4375 C-8.93914852 26.47899636 -8.58861346 28.60539359 -7.375 31.4375 C-1.44947373 36.59209342 6.84084392 39.438004 13.93554688 42.59960938 C21.05256702 45.8768449 27.43084585 49.63090638 31.5 56.5625 C32.08394531 57.52542969 32.08394531 57.52542969 32.6796875 58.5078125 C35.97672318 65.238125 35.82865056 74.26971933 33.7890625 81.33203125 C30.41311141 88.70701166 25.08531411 94.28127505 17.5 97.3125 C6.29665632 101.11105859 -6.99040653 101.19423333 -17.68359375 96.05859375 C-24.28578928 92.08194477 -29.53265153 87.11984517 -33.375 80.4375 C-31.8446315 76.22661027 -29.09220859 74.54818254 -25.4375 72.125 C-24.37660156 71.40699219 -23.31570313 70.68898438 -22.22265625 69.94921875 C-20.81306641 69.20091797 -20.81306641 69.20091797 -19.375 68.4375 C-15.90045903 69.59568032 -15.52389762 70.36229862 -13.5625 73.3125 C-10.83692782 77.02193727 -8.91106709 79.06812126 -4.375 80.4375 C0.65654927 80.95698149 5.04411789 81.10147048 9.75 79.125 C12.4496963 76.69527333 12.60229559 74.61264833 13.0625 71.0625 C12.98219455 67.32559036 12.98219455 67.32559036 10.31640625 65.0546875 C5.7379828 61.48639944 0.38451162 59.31126188 -4.875 56.9375 C-16.31894449 51.7725339 -23.19259527 47.20063372 -28.6875 35.6875 C-30.43634975 27.42021026 -30.22427164 20.13134735 -25.9921875 12.6953125 C-19.35995413 3.43581761 -11.10524632 -0.13995894 0 0 Z " fill="#FBFBFB" transform="translate(424.375,247.5625)"/>
<path d="M0 0 C0.83265381 0.00523682 1.66530762 0.01047363 2.52319336 0.01586914 C3.42231445 0.0190918 4.32143555 0.02231445 5.24780273 0.02563477 C6.66609375 0.03820312 6.66609375 0.03820312 8.11303711 0.05102539 C9.06243164 0.05553711 10.01182617 0.06004883 10.98999023 0.06469727 C13.34356776 0.07652429 15.69702188 0.09300514 18.05053711 0.11352539 C18.14357779 10.09340385 18.21447399 20.07317762 18.2577858 30.0534029 C18.27858258 34.68859079 18.30675404 39.32348003 18.35229492 43.95849609 C18.39603698 48.43891995 18.41973357 52.91905813 18.43004608 57.39967918 C18.43738691 59.1015694 18.45172073 60.80344555 18.47345734 62.50521278 C18.60274013 73.05480442 18.69230802 83.04083262 11.97241211 91.83227539 C2.07002189 99.95366017 -6.3354858 101.22244645 -18.94946289 100.11352539 C-28.38408174 98.00859051 -36.17366991 92.12720651 -41.51196289 84.17602539 C-42.34025211 82.83145833 -43.15895165 81.48064484 -43.94946289 80.11352539 C-41.17457685 77.16520898 -38.39827285 74.91973029 -34.94946289 72.80102539 C-34.10383789 72.26864258 -33.25821289 71.73625977 -32.38696289 71.18774414 C-29.94946289 70.11352539 -29.94946289 70.11352539 -27.79321289 70.29321289 C-24.92311142 71.57016481 -23.12437434 73.88424116 -20.94946289 76.11352539 C-17.31579371 78.74480307 -13.27034208 78.55714748 -8.94946289 78.11352539 C-6.1393677 77.10477327 -5.28248581 76.77957122 -3.94946289 74.11352539 C-3.83341602 71.8114654 -3.78240475 69.50604617 -3.76000977 67.20117188 C-3.75171646 66.49047546 -3.74342316 65.77977905 -3.73487854 65.04754639 C-3.71746839 63.50282973 -3.7023042 61.95808652 -3.68910217 60.41332817 C-3.66810662 57.97226367 -3.64108284 55.53133308 -3.61242676 53.09034729 C-3.54252826 47.02884548 -3.4831191 40.96724876 -3.42340088 34.90563965 C-3.37255305 29.78363934 -3.31775874 24.66171157 -3.25758362 19.53981209 C-3.23092061 17.12840527 -3.21016136 14.71699201 -3.1895752 12.30552673 C-3.17297964 10.83584263 -3.15610846 9.36616161 -3.13891602 7.89648438 C-3.1201239 5.96360817 -3.1201239 5.96360817 -3.10095215 3.99168396 C-2.8997415 0.1688641 -2.8997415 0.1688641 0 0 Z " fill="#F9F9F9" transform="translate(361.949462890625,246.886474609375)"/>
<path d="M0 0 C4.37398894 3.16602763 7.10493318 7.12647867 8.75390625 12.26953125 C9.56896622 21.72210981 9.71071331 30.45719834 3.44140625 38.08203125 C-2.65525504 43.04442998 -7.31162159 43.62784425 -15.02734375 43.765625 C-18.24609375 43.26953125 -18.24609375 43.26953125 -24.24609375 39.26953125 C-24.57609375 45.53953125 -24.90609375 51.80953125 -25.24609375 58.26953125 C-29.53609375 58.26953125 -33.82609375 58.26953125 -38.24609375 58.26953125 C-38.24609375 38.46953125 -38.24609375 18.66953125 -38.24609375 -1.73046875 C-34.94609375 -1.73046875 -31.64609375 -1.73046875 -28.24609375 -1.73046875 C-27.91609375 0.90953125 -27.58609375 3.54953125 -27.24609375 6.26953125 C-26.87097656 5.78742187 -26.49585938 5.3053125 -26.109375 4.80859375 C-19.22008942 -3.6945547 -9.80082777 -5.60330153 0 0 Z " fill="#040404" transform="translate(538.24609375,533.73046875)"/>
<path d="M0 0 C11.88 0 23.76 0 36 0 C36.09210223 6.26295179 36.17165986 12.52353031 36.21972656 18.78662109 C36.23977468 20.91463202 36.26702054 23.04258832 36.30175781 25.17041016 C36.35057548 28.23874433 36.37303726 31.30634673 36.390625 34.375 C36.41127014 35.31802979 36.43191528 36.26105957 36.45318604 37.23266602 C36.45523428 43.3364245 35.48009087 47.90825859 32 53 C26.62944883 58.23284473 21.39485081 59.36138375 14.0625 59.375 C13.37220703 59.39949219 12.68191406 59.42398438 11.97070312 59.44921875 C6.00984164 59.48311938 2.62795533 57.49400615 -1.609375 53.47265625 C-6.71862204 47.15608713 -7.23609465 42.90917092 -7 35 C-2.71 35 1.58 35 6 35 C6.42317708 37.27864583 6.84635417 39.55729167 7.26953125 41.8359375 C7.87544942 44.35820641 7.87544942 44.35820641 11 46 C12.9504073 46.35165817 12.9504073 46.35165817 15 46.3125 C15.680625 46.32925781 16.36125 46.34601562 17.0625 46.36328125 C19.71763506 45.86544343 20.40078528 45.19113725 22 43 C22.3307063 40.49271968 22.4882718 38.21862613 22.51171875 35.70703125 C22.52966995 35.00100266 22.54762115 34.29497406 22.56611633 33.56755066 C22.62023178 31.31592759 22.65411722 29.06451657 22.6875 26.8125 C22.72067219 25.28447569 22.75516177 23.75647937 22.79101562 22.22851562 C22.87843734 18.48564643 22.93848807 14.74374353 23 11 C15.41 11 7.82 11 0 11 C0 7.37 0 3.74 0 0 Z " fill="#030303" transform="translate(170,518)"/>
<path d="M0 0 C3.52130364 -0.08133037 7.04070754 -0.14066172 10.5625 -0.1875 C11.55314453 -0.21263672 12.54378906 -0.23777344 13.56445312 -0.26367188 C20.22066704 -0.33001288 25.49240799 -0.01998953 30.7421875 4.5 C34.56558812 9.56270978 35.14419633 13.12093665 35.09765625 19.29296875 C35.0962413 19.99899734 35.09482635 20.70502594 35.09336853 21.43244934 C35.08777764 23.68417626 35.07522688 25.93580321 35.0625 28.1875 C35.05748382 29.71549335 35.05292112 31.24348827 35.04882812 32.77148438 C35.0378112 36.51436135 35.02055287 40.25716373 35 44 C31.7 44 28.4 44 25 44 C24.67 42.02 24.34 40.04 24 38 C23.4225 38.78375 22.845 39.5675 22.25 40.375 C19.50169312 43.58135803 17.64053013 44.78394243 13.44921875 45.3359375 C7.04967642 45.42645436 3.08352233 45.02445518 -2 41 C-4.93658366 36.92667427 -5.60516068 33.10272686 -5.40625 28.1796875 C-4.68912905 24.33205778 -2.89065882 22.52932647 0 20 C7.05991162 16.14913912 14.11254581 16.7008971 22 17 C21.67 15.02 21.34 13.04 21 11 C14.07 11 7.14 11 0 11 C0 7.37 0 3.74 0 0 Z " fill="#050505" transform="translate(218,532)"/>
<path d="M0 0 C3.66747276 -0.1085765 7.33168806 -0.18759858 11 -0.25 C12.02996094 -0.28351562 13.05992187 -0.31703125 14.12109375 -0.3515625 C20.38686178 -0.4313812 26.03187351 -0.19750232 31 4 C34.80792195 8.5917065 35.55870373 12.22078577 35.390625 18.0234375 C35.38496521 18.76961334 35.37930542 19.51578918 35.37347412 20.28457642 C35.35122898 22.64872637 35.30105984 25.01131459 35.25 27.375 C35.22991944 28.98565507 35.2116714 30.59633409 35.1953125 32.20703125 C35.15140381 36.13861507 35.08246318 40.06904352 35 44 C31.7 44 28.4 44 25 44 C24.505 41.525 24.505 41.525 24 39 C23.21625 39.804375 22.4325 40.60875 21.625 41.4375 C17.26031643 45.69826253 13.90930618 45.33479358 7.98828125 45.28515625 C3.15235435 44.82368872 0.56319956 42.71423333 -2.6171875 39.2265625 C-5.3032068 34.90161617 -4.80313597 29.88411145 -4 25 C-1.88473269 21.19106505 0.76244579 19.51920378 4.71875 17.859375 C8.49514787 16.87031842 12.00683423 16.77754621 15.875 16.875 C16.90753906 16.88853516 16.90753906 16.88853516 17.9609375 16.90234375 C19.64077838 16.92567487 21.32043746 16.96153674 23 17 C21.88145414 13.27385847 21.88145414 13.27385847 19 11 C17.55151418 10.91657841 16.09929131 10.89267139 14.6484375 10.90234375 C13.37226563 10.90717773 13.37226563 10.90717773 12.0703125 10.91210938 C11.18085938 10.92048828 10.29140625 10.92886719 9.375 10.9375 C8.02921875 10.94426758 8.02921875 10.94426758 6.65625 10.95117188 C4.43747169 10.96297389 2.21872757 10.98090961 0 11 C0 7.37 0 3.74 0 0 Z " fill="#040404" transform="translate(308,532)"/>
<path d="M0 0 C4.61710906 2.9549498 9.07398408 6.69147653 10.78515625 12.078125 C11.0625 14 11.0625 14 11.125 17 C6.835 17 2.545 17 -1.875 17 C-2.535 15.35 -3.195 13.7 -3.875 12 C-7.00442465 10.43528767 -10.48582223 10.30298042 -13.875 11 C-16.88285087 13.18082357 -17.77131183 14.36072569 -18.37109375 18.05859375 C-18.35175781 19.17363281 -18.33242188 20.28867187 -18.3125 21.4375 C-18.31056641 23.10619141 -18.31056641 23.10619141 -18.30859375 24.80859375 C-17.82816798 28.34470052 -17.16182973 30.26182229 -14.875 33 C-11.4828317 34.01368635 -8.30380532 33.84145974 -4.875 33 C-4.25625 32.01 -3.6375 31.02 -3 30 C-2.29875 29.01 -1.5975 28.02 -0.875 27 C3.16455187 26.44469772 7.07142432 26.65582848 11.125 27 C10.68916015 32.44799814 9.61021211 35.76122851 6.125 40 C-1.42852801 45.70368442 -8.7466197 45.81860345 -17.875 45 C-24.51037641 42.85826463 -27.79425495 37.98960303 -30.875 32 C-33.55646771 26.63706458 -32.87549849 17.0149551 -31.00390625 11.375 C-24.36437947 0.22930259 -12.56512213 -4.47524898 0 0 Z " fill="#060606" transform="translate(424.875,532)"/>
<path d="M0 0 C3.1930565 1.94598293 5.46533311 4.05015239 7.375 7.3125 C7.46875 9.97265625 7.46875 9.97265625 7.375 12.3125 C5.58406809 12.39336147 3.79210372 12.45162702 2 12.5 C0.50339844 12.55220703 0.50339844 12.55220703 -1.0234375 12.60546875 C-1.88195312 12.50878906 -2.74046875 12.41210938 -3.625 12.3125 C-4.285 11.3225 -4.945 10.3325 -5.625 9.3125 C-7.74876704 8.69425283 -7.74876704 8.69425283 -10.125 8.5625 C-11.31609375 8.44648437 -11.31609375 8.44648437 -12.53125 8.328125 C-14.68554111 8.15365564 -14.68554111 8.15365564 -16.625 9.3125 C-16.28055119 11.78516765 -16.28055119 11.78516765 -15.625 14.3125 C-12.92160003 15.66419999 -10.37420401 15.75865887 -7.375 16.125 C-0.70058592 17.12579417 2.91765538 18.91982234 7.75 23.625 C9.88558179 27.15692374 9.87518438 29.23957003 9.375 33.3125 C7.84985098 38.07859067 5.42658844 40.93737764 1.1484375 43.39453125 C-6.21134936 45.83051704 -16.30039845 45.872986 -23.4375 42.6875 C-26.84008114 40.15224347 -28.72984492 38.10281015 -30.625 34.3125 C-30.625 32.9925 -30.625 31.6725 -30.625 30.3125 C-28.66733719 30.23167906 -26.70873272 30.17339222 -24.75 30.125 C-23.11417969 30.07279297 -23.11417969 30.07279297 -21.4453125 30.01953125 C-20.51460938 30.11621094 -19.58390625 30.21289062 -18.625 30.3125 C-17.965 31.3025 -17.305 32.2925 -16.625 33.3125 C-12.15245503 34.80334832 -8.09754497 34.80334832 -3.625 33.3125 C-3.295 31.6625 -2.965 30.0125 -2.625 28.3125 C-3.78257812 28.14234375 -4.94015625 27.9721875 -6.1328125 27.796875 C-7.67199798 27.55285779 -9.21105394 27.30802264 -10.75 27.0625 C-11.89082031 26.89814453 -11.89082031 26.89814453 -13.0546875 26.73046875 C-19.2995099 25.70760991 -23.35844083 23.45976658 -28 19.0625 C-30.1403155 15.44042762 -30.39740621 12.36564185 -29.625 8.3125 C-27.62080532 4.14377507 -25.11780923 1.154646 -20.94140625 -0.9921875 C-14.31601317 -2.98092269 -6.32790412 -2.90869889 0 0 Z " fill="#060606" transform="translate(379.625,532.6875)"/>
<path d="M0 0 C4.29 0 8.58 0 13 0 C14.13111302 3.6231909 15.25501129 7.24836988 16.375 10.875 C16.69210937 11.88820313 17.00921875 12.90140625 17.3359375 13.9453125 C19.27526684 20.24813285 20.85647829 26.5044365 22 33 C22.99 32.505 22.99 32.505 24 32 C24.65379578 29.8284707 25.19754301 27.62354449 25.69140625 25.41015625 C25.841577 24.7504332 25.99174774 24.09071014 26.14646912 23.41099548 C26.62639638 21.29652541 27.09491019 19.1797294 27.5625 17.0625 C28.03563763 14.94934394 28.51113074 12.8367523 28.98924255 10.72471619 C29.42261312 8.80586721 29.84927696 6.88550724 30.27563477 4.96508789 C31 2 31 2 32 0 C35.96 0 39.92 0 44 0 C42.70584993 8.71349211 40.80038593 17.12736586 38.48608398 25.61279297 C37.92915813 27.655598 37.38095514 29.70060292 36.83398438 31.74609375 C34.15766324 41.68467352 34.15766324 41.68467352 33 44 C26.4 44 19.8 44 13 44 C9.97273448 37.04850141 7.82840972 30.07345445 5.86767578 22.76953125 C4.36980815 17.21963534 2.64912905 11.79323555 0.69921875 6.3828125 C0 4 0 4 0 0 Z " fill="#060606" transform="translate(257,532)"/>
<path d="M0 0 C3.96 0 7.92 0 12 0 C12 3.96 12 7.92 12 12 C16.29 12 20.58 12 25 12 C25 15.3 25 18.6 25 22 C20.71 22 16.42 22 12 22 C12.11374215 25.27158353 12.24049394 28.54176102 12.375 31.8125 C12.4059375 32.74126953 12.436875 33.67003906 12.46875 34.62695312 C12.50742187 35.51962891 12.54609375 36.41230469 12.5859375 37.33203125 C12.63306885 38.56530151 12.63306885 38.56530151 12.68115234 39.82348633 C12.88373622 42.28952937 12.88373622 42.28952937 15 45 C17.42521494 45.58189266 17.42521494 45.58189266 20.125 45.6875 C21.73375 45.790625 23.3425 45.89375 25 46 C25 49.3 25 52.6 25 56 C22.45716766 56.10871967 19.91904912 56.18762401 17.375 56.25 C16.66214844 56.28351562 15.94929687 56.31703125 15.21484375 56.3515625 C10.02685569 56.44675494 6.98211065 55.62010059 3 52 C-0.74885977 45.95624075 -0.35575101 40.01256079 -0.1875 33.0625 C-0.17396484 31.99708984 -0.16042969 30.93167969 -0.14648438 29.83398438 C-0.11134724 27.22212412 -0.06215184 24.61133366 0 22 C-2.31 22 -4.62 22 -7 22 C-7 18.7 -7 15.4 -7 12 C-4.69 12 -2.38 12 0 12 C0 8.04 0 4.08 0 0 Z " fill="#080808" transform="translate(556,520)"/>
<path d="M0 0 C3.3 0 6.6 0 10 0 C10.33 2.64 10.66 5.28 11 8 C11.40992188 7.50628906 11.81984375 7.01257813 12.2421875 6.50390625 C12.78101563 5.86324219 13.31984375 5.22257813 13.875 4.5625 C14.40867187 3.92441406 14.94234375 3.28632812 15.4921875 2.62890625 C17.2815943 0.69579061 18.30364379 0.03495764 20.9453125 -0.09765625 C22.96354167 -0.06510417 24.98177083 -0.03255208 27 0 C27 3.63 27 7.26 27 11 C24.78645833 11.13020833 22.57291667 11.26041667 20.359375 11.390625 C17.17089786 12.21413896 16.04888669 13.43254178 14 16 C13.36004039 19.0849946 13.36004039 19.0849946 13.390625 22.515625 C13.35839844 23.76601563 13.32617188 25.01640625 13.29296875 26.3046875 C13.27169922 28.25761719 13.27169922 28.25761719 13.25 30.25 C13.22035156 31.56742188 13.19070313 32.88484375 13.16015625 34.2421875 C13.08945464 37.49446134 13.0424643 40.74723492 13 44 C8.71 44 4.42 44 0 44 C0 29.48 0 14.96 0 0 Z " fill="#060606" transform="translate(443,532)"/>
<path d="M0 0 C6.27 0 12.54 0 19 0 C19 14.52 19 29.04 19 44 C14.71 44 10.42 44 6 44 C6 32.78 6 21.56 6 10 C4.02 10 2.04 10 0 10 C0 6.7 0 3.4 0 0 Z " fill="#060606" transform="translate(471,532)"/>
<path d="M0 0 C2.87029869 1.79393668 4.49131638 2.98263276 6 6 C6.93585505 16.38645682 6.93585505 16.38645682 4.1875 21.125 C1.20972771 23.67737625 -0.40440414 24.94485224 -4.375 25.3125 C-8.21662869 24.98132511 -9.97920964 24.33032399 -13 22 C-15.34693138 18.47960293 -15.32723764 16.79942991 -15.375 12.625 C-15.40335938 11.50351562 -15.43171875 10.38203125 -15.4609375 9.2265625 C-14.90929072 5.36503504 -13.69853414 3.75872449 -11 1 C-7.54260443 -0.72869779 -3.78024432 -0.48966895 0 0 Z " fill="#FAFAFA" transform="translate(528,542)"/>
<path d="M0 0 C0.98484375 0.02707031 1.9696875 0.05414062 2.984375 0.08203125 C3.73203125 0.11683594 4.4796875 0.15164063 5.25 0.1875 C5.54554656 7.87171053 5.54554656 7.87171053 3.25 11.1875 C0.06295882 12.78102059 -3.28174309 12.5704977 -6.75 12.1875 C-8.75 11.0625 -8.75 11.0625 -9.75 9.1875 C-10.1875 6.1875 -10.1875 6.1875 -9.75 3.1875 C-6.64700657 0.06997264 -4.29682067 -0.15345788 0 0 Z " fill="#F2F2F2" transform="translate(325.75,555.8125)"/>
<path d="M0 0 C1.08667969 0.02707031 2.17335937 0.05414062 3.29296875 0.08203125 C4.54013672 0.13423828 4.54013672 0.13423828 5.8125 0.1875 C5.93963164 3.96966623 5.87773661 6.04071762 4.3125 9.5625 C1.64581546 12.36251877 1.35118086 12.59465187 -2.25 12.6875 C-6.1875 12.1875 -6.1875 12.1875 -9.1875 10.1875 C-9.84343302 4.17478063 -9.84343302 4.17478063 -8.05078125 1.4765625 C-5.34867428 -0.39281968 -3.24375049 -0.10463711 0 0 Z " fill="#F0F0F0" transform="translate(235.1875,555.8125)"/>
<path d="M0 0 C2 1.125 2 1.125 3 3 C3.54068562 6.63031776 3.46379841 8.32214079 1.375 11.375 C-1.71186432 13.48706506 -3.3282913 13.61195145 -7 13 C-9.375 11.375 -9.375 11.375 -11 9 C-11.44912849 5.85610056 -11.504106 3.94519875 -10 1.125 C-6.78179676 -0.68523932 -3.59783102 -0.53967465 0 0 Z " fill="#080808" transform="translate(486,515)"/>
</svg>
