<?xml version="1.0" encoding="UTF-8"?>
<svg version="1.1" xmlns="http://www.w3.org/2000/svg" width="744" height="744">
<path d="M0 0 C245.52 0 491.04 0 744 0 C744 245.52 744 491.04 744 744 C498.48 744 252.96 744 0 744 C0 498.48 0 252.96 0 0 Z " fill="#FEFEFE" transform="translate(0,0)"/>
<path d="M0 0 C245.52 0 491.04 0 744 0 C744 245.52 744 491.04 744 744 C498.48 744 252.96 744 0 744 C0 498.48 0 252.96 0 0 Z M9.80056715 9.8018924 C7.03422603 14.71537567 7.3163767 19.24814495 7.37638092 24.79892731 C7.36971291 26.01376248 7.3630449 27.22859765 7.35617483 28.48024601 C7.34269313 31.86457682 7.35171521 35.2475154 7.37006495 38.63173568 C7.38451881 42.30866433 7.37003061 45.98549551 7.35917997 49.66242075 C7.3441767 56.11065686 7.34782999 62.55867528 7.36359787 69.00690651 C7.38698045 78.59544912 7.38182814 88.18382714 7.37088897 97.77238439 C7.3522807 114.89535587 7.3620329 132.0182235 7.38336661 149.14118652 C7.40190447 164.12552966 7.41034689 179.10983788 7.40879822 194.0941925 C7.40870654 195.08713382 7.40861487 196.08007514 7.40852041 197.10310559 C7.40812727 201.13351405 7.40767765 205.16392249 7.40714902 209.19433093 C7.40227504 247.02278317 7.42495935 284.85117344 7.46110525 322.67960642 C7.49309987 356.30708768 7.50514905 389.93451599 7.49902344 423.56201172 C7.49863659 425.72113818 7.49825014 427.88026464 7.49786407 430.0393911 C7.49767272 431.10680882 7.49748138 432.17422655 7.49728423 433.27399026 C7.49632993 438.6469368 7.49541556 444.01988334 7.49454498 449.3928299 C7.49437119 450.45276959 7.4941974 451.51270929 7.49401833 452.60476837 C7.48966566 480.68194229 7.49967212 508.75911048 7.51438284 536.83628035 C7.51490298 537.83474409 7.51542312 538.83320783 7.51595903 539.86192806 C7.51647837 540.85859533 7.51699771 541.8552626 7.5175328 542.8821319 C7.51805054 543.87700353 7.51856828 544.87187516 7.51910171 545.89689441 C7.5201498 547.90052128 7.52121001 549.90414814 7.52228243 551.907775 C7.52967085 565.89145662 7.53174981 579.87513015 7.53028842 593.85881348 C7.52844479 611.87716422 7.53647301 629.89546502 7.56192988 647.91379941 C7.57511985 657.44869893 7.58009129 666.98351871 7.57329134 676.51842542 C7.56959099 682.88034094 7.57674167 689.24218342 7.59288373 695.60407941 C7.60179303 699.23356274 7.6059069 702.86288152 7.59695655 706.49236852 C7.58745448 710.39536815 7.60095618 714.29808935 7.61688995 718.20107269 C7.61043815 719.33682407 7.60398635 720.47257544 7.59733903 721.64274353 C7.60536204 722.680459 7.61338505 723.71817448 7.62165117 724.78733587 C7.62230193 725.68014213 7.62295269 726.57294839 7.62362316 727.49280939 C8.08697771 730.57939193 9.19314279 732.47625141 11 735 C13.46720783 736.23360391 15.0797692 736.12605837 17.84006864 736.1276505 C18.87104223 736.13066647 19.90201583 736.13368244 20.96423104 736.1367898 C22.67967967 736.13413559 22.67967967 736.13413559 24.42978382 736.13142776 C25.64115746 736.1334804 26.8525311 736.13553303 28.10061303 736.13764787 C31.4887388 736.14235582 34.87681191 736.14253775 38.2649371 736.14087028 C41.94125807 736.14014185 45.61757179 736.14515581 49.2938897 736.1494453 C56.5969285 736.15704219 63.89995999 736.15921921 71.20300233 736.15977435 C79.94571879 736.16068632 88.68842845 736.16734887 97.431142 736.17412117 C118.56450522 736.19020037 139.69786774 736.19608649 160.83123598 736.20086992 C170.82315111 736.2032038 180.81506566 736.20680621 190.80698033 736.2105653 C224.99157819 736.22340208 259.17617573 736.2341215 293.36077595 736.2375679 C295.50769435 736.23778954 297.65461275 736.23801132 299.80153115 736.23823325 C301.95371722 736.2384539 304.10590329 736.23867438 306.25808936 736.2388947 C310.57594955 736.23933726 314.89380974 736.23978437 319.21166992 736.24023438 C320.28225257 736.24034377 321.35283521 736.24045316 322.45585975 736.24056586 C357.18335173 736.24419792 391.91082286 736.26012295 426.63830686 736.28342474 C463.3302955 736.30799981 500.02227222 736.32173965 536.71426934 736.32293582 C540.73917687 736.32310728 544.7640844 736.32332271 548.78899193 736.32357025 C550.2756251 736.3236539 550.2756251 736.3236539 551.79229126 736.32373925 C567.76759625 736.32489168 583.7428799 736.33592997 599.71817767 736.35045731 C615.76387933 736.36479679 631.80955351 736.36807375 647.85525981 736.36001733 C657.39681847 736.35554909 666.9382887 736.35946918 676.4798358 736.37525584 C682.84628049 736.38496723 689.21266287 736.38386456 695.57910691 736.37381961 C699.2112434 736.36839967 702.84320945 736.36780636 706.47533218 736.38032833 C710.38120136 736.3936823 714.28681478 736.38402046 718.19269276 736.3719368 C719.32930167 736.37953199 720.46591059 736.38712718 721.63696221 736.39495254 C722.67544635 736.38795443 723.7139305 736.38095633 724.78388387 736.37374616 C725.67736135 736.37399036 726.57083883 736.37423456 727.49139138 736.37448616 C730.57992042 735.91342923 732.47526606 734.80806178 735 733 C736.23412317 730.53175367 736.12697974 728.91508309 736.12995183 726.15351933 C736.13348025 725.12111232 736.13700867 724.08870531 736.14064401 723.02501324 C736.13944624 721.87977648 736.13824846 720.73453971 736.13701439 719.55459881 C736.14099213 717.73500579 736.14099213 717.73500579 736.14505023 715.87865332 C736.15142764 712.48579414 736.15327949 709.09298542 736.153273 705.7001237 C736.1543394 702.01866802 736.16112621 698.33722227 736.1671797 694.65577203 C736.17827259 687.34253271 736.18390822 680.0292982 736.18788858 672.71605195 C736.19289087 663.96112262 736.20361725 655.20620264 736.21437032 646.45127882 C736.24002016 625.28840081 736.25503895 604.12551915 736.26788078 582.96263005 C736.27213339 575.95562972 736.27669906 568.94862965 736.2814641 561.94162965 C736.3067205 524.71044634 736.32877566 487.47926261 736.34119225 450.24807262 C736.34411373 441.61907639 736.34708122 432.99008018 736.35009766 424.36108398 C736.35046857 423.2890065 736.35083947 422.21692901 736.35122162 421.11236433 C736.36338292 386.33635539 736.39433586 351.56039699 736.43601918 316.78441179 C736.47876953 281.05323134 736.50542846 245.32207758 736.51066696 209.59087085 C736.51140746 204.54831056 736.51231815 199.50575032 736.51332474 194.46319008 C736.51351535 193.47071815 736.51370597 192.47824622 736.51390236 191.45569938 C736.51742132 175.45805913 736.53774392 159.46048202 736.56412137 143.46286498 C736.59021642 127.39474843 736.59801448 111.32670511 736.58702008 95.2585704 C736.58102662 85.70361934 736.589042 76.14891602 736.61685092 66.59400228 C736.63403845 60.21863721 736.63320879 53.84344203 736.61748323 47.46807354 C736.60903129 43.83075076 736.60862911 40.19390241 736.63009469 36.55662265 C736.65299391 32.64516604 736.63753112 28.73441259 736.61803246 24.82292461 C736.63088168 23.68471135 736.6437309 22.54649809 736.65696949 21.37379351 C736.60645902 16.80334799 736.46405708 13.82478926 734.19978201 9.80039257 C729.28180096 7.0332364 724.74073244 7.31361858 719.18545532 7.3707943 C717.36067001 7.35989349 717.36067001 7.35989349 715.49902034 7.34877247 C712.10996408 7.33362638 708.72228667 7.34097776 705.33332512 7.35766223 C701.65125488 7.37031588 697.96929562 7.35405815 694.28724098 7.34144557 C687.8300003 7.32335845 681.37296848 7.32395231 674.91571808 7.33668137 C665.31376481 7.35555827 655.71198843 7.34594371 646.11003643 7.33063983 C628.96314613 7.30427897 611.81634883 7.30660583 594.66944963 7.32103439 C579.66416493 7.33359927 564.65891437 7.33690172 549.65362549 7.33092117 C548.65929782 7.33053925 547.66497016 7.33015732 546.64051135 7.32976382 C542.60447594 7.3282072 538.56844055 7.3266152 534.53240518 7.324965 C496.65111984 7.30966102 458.76989384 7.32355153 420.88861766 7.35044949 C387.21412478 7.37417852 353.53972643 7.37205542 319.86523438 7.34814453 C282.05439236 7.3213865 244.24360278 7.31074626 206.43275261 7.32620585 C202.40395992 7.3278095 198.37516722 7.3293737 194.34637451 7.33092117 C193.35434208 7.33131656 192.36230966 7.33171195 191.34021564 7.33211931 C176.34229493 7.33781294 161.34441206 7.33114367 146.34649658 7.31852341 C129.29763424 7.30424909 112.24887967 7.30775415 95.2000308 7.33492713 C85.65174505 7.34964237 76.10369251 7.35051859 66.55541266 7.33169625 C60.18457023 7.32051979 53.81391555 7.32739738 47.44310104 7.3492201 C43.80843657 7.36116149 40.17423682 7.36508423 36.53958631 7.34719019 C32.63098861 7.32814287 28.72313199 7.34744538 24.81454468 7.3707943 C23.67718896 7.35908847 22.53983324 7.34738263 21.36801219 7.33532208 C16.79955038 7.39035379 13.82227851 7.53689998 9.80056715 9.8018924 Z " fill="#000000" transform="translate(0,0)"/>
<path d="M0 0 C1.14764832 -0.0076664 1.14764832 -0.0076664 2.31848145 -0.01548767 C4.83512306 -0.02932923 7.35148901 -0.02843049 9.86816406 -0.02612305 C11.62925314 -0.03001402 13.39034128 -0.03434952 15.15142822 -0.03910828 C18.83991539 -0.0465596 22.52830684 -0.04628788 26.21679688 -0.04101562 C30.92176277 -0.03523382 35.62633336 -0.052126 40.33123398 -0.0753603 C43.96887467 -0.09016368 47.60642173 -0.0909602 51.24408722 -0.08785057 C52.97746816 -0.08836084 54.71085476 -0.09354284 56.44420624 -0.10366249 C70.84331156 -0.17739181 82.62292221 0.97209928 93.36816406 11.4543457 C101.02765711 19.75678889 104.67453966 28.36872355 104.37988281 39.7043457 C103.41706444 49.76044867 98.78009635 59.14408655 91.44628906 66.0871582 C86.85438419 69.8498453 81.61305893 72.08899357 76.13378906 74.2746582 C76.95621094 74.53118164 77.77863281 74.78770508 78.62597656 75.05200195 C91.68027341 79.52905295 99.94389584 87.27330146 106.25878906 99.44262695 C109.02384155 108.3920156 108.64027807 120.50607096 104.69628906 128.9621582 C99.69653252 137.27940026 93.21020335 143.71419487 84.13378906 147.2746582 C83.02970703 147.80446289 83.02970703 147.80446289 81.90332031 148.3449707 C72.72302485 151.42664958 61.35464195 150.04458973 52.79394531 145.8996582 C46.45115445 142.02506055 41.87123795 137.67305475 38.13378906 131.2746582 C38.13014343 132.0269722 38.1264978 132.77928619 38.1227417 133.55439758 C38.08467423 140.68858339 38.02761236 147.82225774 37.94988632 154.95611286 C37.91059028 158.62261401 37.8783154 162.28888143 37.86279297 165.95556641 C37.84750694 169.50259633 37.81285528 173.04898288 37.76548004 176.59572411 C37.74370007 178.58888789 37.74132565 180.58223386 37.73944092 182.57551575 C37.55135415 194.40764289 34.88699607 204.07889681 26.69628906 212.8996582 C17.25319055 221.65179829 8.96431603 224.91412083 -3.90917969 224.60668945 C-14.84399421 223.68915813 -22.50971826 218.07869417 -29.86621094 210.2746582 C-35.57300405 203.51661373 -38.68580855 193.7497296 -38.24511719 184.9074707 C-36.5049848 172.81624156 -31.86978805 164.20398538 -22.49121094 156.4621582 C-18.24299691 153.31804111 -13.79297383 151.14985637 -8.86621094 149.2746582 C-9.47207031 149.09032227 -10.07792969 148.90598633 -10.70214844 148.71606445 C-22.54168271 144.61776413 -30.31939964 136.03674248 -35.99121094 125.10668945 C-38.75626343 116.15730081 -38.37269995 104.04324545 -34.42871094 95.5871582 C-28.26537841 85.36786212 -20.1248187 79.02752746 -8.86621094 75.2746582 C-9.62804687 74.9343457 -10.38988281 74.5940332 -11.17480469 74.2434082 C-23.66772871 68.37906434 -30.53620256 62.12378553 -35.86621094 49.2746582 C-38.63691901 40.96253399 -38.19788167 28.41016355 -34.31542969 20.5090332 C-26.29209358 8.13882228 -15.01642729 -0.05233984 0 0 Z " fill="#020202" transform="translate(334.8662109375,147.725341796875)"/>
<path d="M0 0 C6.6825 0.12375 13.365 0.2475 20.25 0.375 C20.25 22.155 20.25 43.935 20.25 66.375 C13.5675 66.49875 6.885 66.6225 0 66.75 C-3.1251709 66.83193604 -3.1251709 66.83193604 -6.31347656 66.91552734 C-18.13027092 67.09676993 -27.00002305 66.41452414 -36.19018555 58.19165039 C-42.89033245 51.46926761 -46.71400815 42.35942737 -47.125 32.875 C-46.9883655 23.5975175 -42.7097029 14.97158122 -36.15917969 8.49438477 C-25.17794703 -1.16593959 -13.83718925 -0.36278478 0 0 Z " fill="#FDFDFD" transform="translate(347.75,226.625)"/>
<path d="M0 0 C5.6925 -0.103125 11.385 -0.20625 17.25 -0.3125 C19.02020508 -0.35802002 20.79041016 -0.40354004 22.61425781 -0.45043945 C33.34188369 -0.60966828 42.45525394 0.67285645 51.375 7.25 C58.49872262 14.71294751 62.93347671 22.92127011 63.5 33.3125 C63.20412953 42.49734842 59.19245711 50.7375231 52.8828125 57.3203125 C45.28697446 64.09668253 36.69047162 67.51043703 26.5625 67.29296875 C25.88251953 67.28994751 25.20253906 67.28692627 24.50195312 67.28381348 C22.00114407 67.26830913 19.50055413 67.22642762 17 67.1875 C8.585 67.0946875 8.585 67.0946875 0 67 C0 44.89 0 22.78 0 0 Z " fill="#FCFCFC" transform="translate(372,152)"/>
<path d="M0 0 C3.58667747 1.85738655 6.30513544 4.00570605 9 7 C9.33 5.02 9.66 3.04 10 1 C13.63 1 17.26 1 21 1 C21.07456924 6.95903843 21.12879953 12.91780075 21.16479492 18.87719727 C21.17981245 20.90133399 21.20023261 22.92543855 21.22631836 24.94946289 C21.26301267 27.87133761 21.27979708 30.79277935 21.29296875 33.71484375 C21.30845261 34.60896469 21.32393646 35.50308563 21.33988953 36.42430115 C21.34176946 43.56108083 19.9614488 49.60518477 16.375 55.8125 C9.37076424 62.26376977 1.55997926 62.53593666 -7.5625 62.25 C-8.66658203 62.23195313 -9.77066406 62.21390625 -10.90820312 62.1953125 C-13.60584994 62.1486 -16.30304413 62.07687285 -19 62 C-19 58.37 -19 54.74 -19 51 C-17.78183594 51.03480469 -16.56367188 51.06960938 -15.30859375 51.10546875 C-13.68490972 51.13362512 -12.06121065 51.16092329 -10.4375 51.1875 C-9.63763672 51.21263672 -8.83777344 51.23777344 -8.01367188 51.26367188 C-2.56548277 51.33038439 1.18684101 50.61213491 6 48 C7.35439668 45.29120665 7.06501451 42.99066732 7 40 C6.236875 40.639375 5.47375 41.27875 4.6875 41.9375 C-0.42477455 45.86087349 -5.80061234 45.48029689 -12 45 C-18.35598741 42.88133753 -21.47984694 38.56853448 -24.8125 32.9375 C-27.20048192 26.6983796 -27.0463386 19.43664099 -25.12109375 13.11328125 C-22.48833239 7.3003527 -19.5095802 4.16290715 -14 1 C-9.37437788 -0.54187404 -4.83070206 -0.5114048 0 0 Z " fill="#080808" transform="translate(346,531)"/>
<path d="M0 0 C4.26597716 1.57999154 6.9751133 3.62608792 10 7 C10.5775 6.21625 11.155 5.4325 11.75 4.625 C14.52709024 1.38506139 16.37194616 0.18682585 20.62109375 -0.30078125 C30.44276169 -0.34164811 30.44276169 -0.34164811 34 3 C37.93248523 8.67727391 39.14887135 13.50094755 39.09765625 20.29296875 C39.0962413 20.99899734 39.09482635 21.70502594 39.09336853 22.43244934 C39.08777764 24.68417626 39.07522688 26.93580321 39.0625 29.1875 C39.05748382 30.71549335 39.05292112 32.24348827 39.04882812 33.77148438 C39.0378112 37.51436135 39.02055287 41.25716373 39 45 C34.71 45 30.42 45 26 45 C25.96261719 42.95296875 25.92523438 40.9059375 25.88671875 38.796875 C25.83803398 36.80775426 25.78924605 34.81863457 25.73754883 32.82958984 C25.70435807 31.45047333 25.67630783 30.07122289 25.65356445 28.69189453 C25.61991358 26.70577694 25.56605271 24.72003441 25.51171875 22.734375 C25.48553467 21.54038086 25.45935059 20.34638672 25.43237305 19.11621094 C24.96908201 15.77716703 24.39332698 14.33919852 22 12 C19.04308291 11.24984805 19.04308291 11.24984805 16 12 C12.21369258 15.73092945 11.48636298 18.37162681 11.390625 23.61328125 C11.35839844 24.86044922 11.32617188 26.10761719 11.29296875 27.39257812 C11.27878906 28.68615234 11.26460938 29.97972656 11.25 31.3125 C11.20552734 33.28186523 11.20552734 33.28186523 11.16015625 35.29101562 C11.08955265 38.5270139 11.0425015 41.76351064 11 45 C6.71 45 2.42 45 -2 45 C-2.05607422 41.80376953 -2.05607422 41.80376953 -2.11328125 38.54296875 C-2.15950257 36.4776792 -2.21073366 34.41257047 -2.26245117 32.34741211 C-2.29569001 30.91295372 -2.32372535 29.47836487 -2.34643555 28.04370117 C-2.38000271 25.98039193 -2.43231413 23.91827697 -2.48828125 21.85546875 C-2.51446533 20.61434326 -2.54064941 19.37321777 -2.56762695 18.09448242 C-2.76267933 15.04530407 -2.76267933 15.04530407 -4.30932617 13.05981445 C-6.17166899 11.6667251 -6.17166899 11.6667251 -9.5625 12.1875 C-13.04248777 12.69215918 -13.04248777 12.69215918 -15 15 C-15.37322427 18.10756015 -15.37322427 18.10756015 -15.4140625 21.7578125 C-15.43342865 22.42086395 -15.4527948 23.08391541 -15.4727478 23.76705933 C-15.53255954 25.88624177 -15.57893388 28.0054785 -15.625 30.125 C-15.66317845 31.56122169 -15.70223011 32.99742045 -15.7421875 34.43359375 C-15.83990819 37.95561029 -15.91945876 41.47738072 -16 45 C-20.29 45 -24.58 45 -29 45 C-29 30.48 -29 15.96 -29 1 C-25.7 1 -22.4 1 -19 1 C-18.67 3.64 -18.34 6.28 -18 9 C-17.608125 8.2575 -17.21625 7.515 -16.8125 6.75 C-12.30926379 -0.08249632 -7.81132067 -1.04067354 0 0 Z " fill="#050505" transform="translate(405,531)"/>
<path d="M0 0 C3.52130364 -0.08133037 7.04070754 -0.14066172 10.5625 -0.1875 C11.55314453 -0.21263672 12.54378906 -0.23777344 13.56445312 -0.26367188 C20.22066704 -0.33001288 25.49240799 -0.01998953 30.7421875 4.5 C34.56558812 9.56270978 35.14419633 13.12093665 35.09765625 19.29296875 C35.0962413 19.99899734 35.09482635 20.70502594 35.09336853 21.43244934 C35.08777764 23.68417626 35.07522688 25.93580321 35.0625 28.1875 C35.05748382 29.71549335 35.05292112 31.24348827 35.04882812 32.77148438 C35.0378112 36.51436135 35.02055287 40.25716373 35 44 C31.7 44 28.4 44 25 44 C24.67 42.02 24.34 40.04 24 38 C23.4225 38.78375 22.845 39.5675 22.25 40.375 C19.50169312 43.58135803 17.64053013 44.78394243 13.44921875 45.3359375 C7.04967642 45.42645436 3.08352233 45.02445518 -2 41 C-4.93743636 36.9254915 -5.60080167 33.10331275 -5.41015625 28.1796875 C-4.69477054 24.37792343 -2.8257111 22.52510353 0 20 C6.6168236 15.68468026 14.39434243 16.73571074 22 17 C21.67 15.02 21.34 13.04 21 11 C14.07 11 7.14 11 0 11 C0 7.37 0 3.74 0 0 Z " fill="#050505" transform="translate(455,532)"/>
<path d="M0 0 C11.55 0 23.1 0 35 0 C35 3.3 35 6.6 35 10 C27.74 10 20.48 10 13 10 C13 14.62 13 19.24 13 24 C19.93 24 26.86 24 34 24 C34 27.3 34 30.6 34 34 C27.07 34 20.14 34 13 34 C13 41.92 13 49.84 13 58 C8.71 58 4.42 58 0 58 C0 38.86 0 19.72 0 0 Z " fill="#010101" transform="translate(256,518)"/>
<path d="M0 0 C6.27 0 12.54 0 19 0 C19 14.52 19 29.04 19 44 C14.71 44 10.42 44 6 44 C6 32.78 6 21.56 6 10 C4.02 10 2.04 10 0 10 C0 6.7 0 3.4 0 0 Z " fill="#080808" transform="translate(294,532)"/>
<path d="M0 0 C4.46266363 2.19218564 4.46266363 2.19218564 6 5 C6.98815925 10.54594805 7.01103741 15.2812364 4.125 20.1875 C0.51716811 23.26476838 -2.12635762 23.33010179 -6.73828125 23.29296875 C-10.0542278 22.86344199 -11.74987627 21.39075646 -14 19 C-15.85269921 15.29460158 -15.46444489 11.04376687 -15 7 C-12.00246456 -0.11737089 -7.1129608 -0.97698959 0 0 Z " fill="#FBFBFB" transform="translate(348,542)"/>
<path d="M0 0 C8.25 0 16.5 0 25 0 C22.82287773 1.08856114 20.64287861 2.17172453 18.44921875 3.2265625 C11.79974468 6.59362292 7.56869045 10.17740266 3 16 C2.01 16.99 1.02 17.98 0 19 C0 12.73 0 6.46 0 0 Z " fill="#FBFBFB" transform="translate(372,223)"/>
<path d="M0 0 C1.08667969 0.02707031 2.17335938 0.05414062 3.29296875 0.08203125 C4.54013672 0.13423828 4.54013672 0.13423828 5.8125 0.1875 C5.93963164 3.96966623 5.87773661 6.04071762 4.3125 9.5625 C1.64581546 12.36251877 1.35118086 12.59465187 -2.25 12.6875 C-6.1875 12.1875 -6.1875 12.1875 -9.1875 10.1875 C-9.84343302 4.17478063 -9.84343302 4.17478063 -8.05078125 1.4765625 C-5.34867428 -0.39281968 -3.24375049 -0.10463711 0 0 Z " fill="#F0F0F0" transform="translate(472.1875,555.8125)"/>
<path d="M0 0 C6.33756589 -0.01040651 6.33756589 -0.01040651 9.06640625 1.99609375 C10.31799502 5.48266248 9.86122577 7.88571847 8.94140625 11.43359375 C5.23725332 13.90302904 3.3199612 13.90272464 -1.05859375 13.43359375 C-3.73384875 11.18983149 -4.01728348 9.8384344 -4.37109375 6.37109375 C-4.01471715 3.02115369 -3.58911699 0.75596202 0 0 Z " fill="#0A0A0A" transform="translate(302.05859375,514.56640625)"/>
</svg>
